{"glyphs":{"0":{"ha":857,"x_min":42,"x_max":718,"o":"m 592 536 q 574 663 585 611 q 532 772 558 729 q 461 836 503 817 q 328 850 408 860 q 274 814 303 847 q 221 724 244 781 q 167 424 165 589 q 236 163 169 253 q 435 103 304 72 q 497 153 465 110 q 553 267 528 197 q 586 401 575 331 q 592 518 597 472 q 592 536 590 528 m 718 521 q 710 379 722 460 q 671 225 697 299 q 596 75 640 135 q 464 -19 538 -3 q 276 -15 360 -43 q 135 88 192 13 q 42 422 44 210 q 104 772 39 614 q 186 904 139 854 q 314 975 243 967 q 638 839 536 1001 q 696 690 676 778 q 718 538 710 628 q 718 521 719 529 z "},"1":{"ha":640,"x_min":176,"x_max":501,"o":"m 210 796 q 256 814 232 806 l 288 824 q 313 835 307 829 q 376 946 335 854 q 385 960 379 954 q 406 977 393 971 q 433 985 418 983 q 453 981 443 985 q 474 971 464 978 q 491 950 485 963 q 497 922 497 938 q 496 907 497 915 q 482 486 472 797 q 490 289 485 406 q 492 251 490 285 q 496 184 494 218 q 497 138 497 150 q 501 26 501 63 q 483 -19 501 0 q 439 -37 465 -37 q 394 -19 413 -37 q 375 25 376 -1 q 372 132 375 60 q 369 178 371 144 q 367 246 368 213 q 365 283 365 279 q 357 483 358 400 q 354 713 353 618 q 325 703 342 708 q 294 693 308 697 q 260 681 276 688 q 212 681 236 671 q 177 714 188 690 q 176 762 167 738 q 210 796 186 786 z "},"2":{"ha":894,"x_min":44,"x_max":756,"o":"m 61 656 q 200 886 94 801 q 415 965 296 963 q 617 896 536 969 q 696 682 707 815 q 610 486 688 575 q 454 356 561 431 q 428 337 450 351 q 404 319 407 322 q 251 193 299 246 q 199 117 218 156 q 244 111 224 115 l 247 111 q 264 110 254 110 q 318 107 285 108 q 469 108 388 107 q 615 114 558 110 q 661 118 644 115 q 665 118 663 118 q 732 111 701 136 q 756 69 753 96 q 742 24 758 43 q 703 -1 728 6 q 679 -7 693 -4 q 624 -12 658 -10 q 472 -18 564 -17 q 315 -18 388 -19 q 215 -11 236 -17 q 190 -10 206 -10 q 144 -14 171 -10 q 128 -18 136 -15 q 125 -18 126 -18 l 124 -18 l 122 -18 q 119 -19 121 -19 q 116 -19 118 -19 q 108 -21 114 -19 q 103 -21 106 -21 q 92 -18 99 -19 q 82 -15 88 -17 q 65 -4 75 -11 q 56 6 61 0 q 49 21 51 13 q 44 38 46 29 q 46 54 44 47 q 158 276 68 176 q 331 422 215 340 q 356 440 335 425 q 382 458 376 454 q 515 569 476 525 q 571 692 565 626 q 532 803 576 764 q 418 840 489 842 q 279 788 342 838 q 185 626 208 731 q 156 588 178 601 q 108 580 133 574 q 69 608 83 586 q 61 656 56 631 m 650 108 q 663 117 656 113 q 650 108 656 114 z "},"3":{"ha":864,"x_min":53,"x_max":724,"o":"m 57 725 q 149 893 86 828 q 297 979 211 958 q 447 983 371 999 q 586 925 524 968 q 683 810 653 878 q 696 672 714 743 q 582 518 674 586 q 635 476 611 500 q 724 296 711 403 q 667 93 738 181 q 433 -25 588 -1 q 140 46 247 -53 q 53 249 53 128 q 72 293 53 275 q 116 311 90 311 q 160 293 142 311 q 179 249 179 275 q 225 139 179 182 q 294 103 253 114 q 415 100 346 90 q 568 172 522 115 q 599 281 607 218 q 547 386 592 343 q 444 426 503 429 q 418 431 431 425 q 397 424 407 426 q 349 425 372 414 q 317 461 325 436 q 319 510 308 486 q 354 542 331 533 q 519 629 461 581 q 574 704 564 667 q 565 765 581 733 q 514 821 550 796 q 424 860 474 850 q 329 858 375 869 q 178 689 218 829 q 147 651 169 664 q 99 647 124 639 q 61 677 74 654 q 57 725 49 700 z "},"4":{"ha":863,"x_min":18,"x_max":722,"o":"m 431 346 q 431 471 429 407 q 436 725 431 614 q 313 544 371 632 q 190 349 238 431 q 200 349 196 349 q 365 347 251 350 l 367 347 q 431 346 406 346 m 576 893 q 556 471 557 815 q 557 346 556 407 q 644 356 619 349 q 692 350 669 363 q 722 313 714 338 q 717 265 729 288 q 678 235 704 242 q 560 221 639 222 q 575 35 565 79 q 567 -12 581 10 q 527 -40 553 -35 q 479 -32 501 -46 q 451 8 457 -18 q 433 219 439 64 q 365 221 407 221 q 363 221 364 221 q 203 222 250 224 q 94 215 126 222 q 74 214 85 213 q 53 221 63 215 q 32 237 40 226 q 21 260 24 247 q 18 283 17 272 q 24 303 19 293 q 207 614 68 401 q 449 960 328 796 q 490 985 464 981 q 536 974 515 989 q 547 964 543 969 q 574 933 565 953 q 576 893 582 914 z "},"5":{"ha":854,"x_min":60,"x_max":715,"o":"m 208 968 q 369 964 260 964 q 378 964 374 964 q 489 964 449 965 q 600 953 551 961 q 642 928 626 949 q 652 881 657 907 q 626 840 647 856 q 579 829 606 825 q 379 839 515 840 q 369 839 376 839 q 257 839 293 838 q 256 829 257 835 q 243 747 247 782 q 233 635 233 679 q 229 607 233 626 q 406 626 318 635 q 563 574 493 617 q 682 446 642 526 q 715 265 722 365 q 592 38 707 118 q 364 -31 497 -29 q 150 25 238 -32 q 72 108 96 58 q 60 215 47 158 q 85 255 64 240 q 133 265 107 269 q 173 238 158 260 q 182 190 188 217 q 217 131 176 157 q 363 96 274 94 q 519 140 457 96 q 590 272 585 186 q 497 467 599 406 q 389 501 450 496 q 264 486 328 507 q 258 482 261 485 q 236 465 250 476 q 233 463 235 464 q 226 458 232 463 q 218 451 219 453 q 204 439 210 444 q 189 429 194 433 q 178 422 183 425 q 165 418 172 421 q 138 418 151 415 q 99 442 114 422 q 88 463 92 451 q 85 485 85 472 q 86 511 83 496 q 94 568 88 532 q 97 582 96 575 l 104 625 q 107 638 107 633 q 118 765 107 689 q 132 850 122 801 q 140 899 133 864 l 140 900 q 140 910 140 906 q 163 953 143 936 q 208 968 182 969 z "},"6":{"ha":876,"x_min":71,"x_max":736,"o":"m 192 354 q 194 343 193 349 q 243 207 211 265 q 317 119 275 149 q 404 97 357 93 q 529 153 461 103 q 611 314 621 221 q 521 464 603 401 q 353 507 439 526 q 192 354 254 485 m 549 786 q 475 857 513 838 q 390 864 435 879 q 210 665 264 821 q 186 557 193 614 q 325 629 249 613 q 465 628 394 646 q 597 564 536 610 q 692 457 656 519 q 736 326 729 394 q 710 178 744 249 q 604 53 676 107 q 417 -28 510 -18 q 247 15 325 -37 q 138 137 183 58 q 71 318 92 215 q 90 706 28 522 q 192 881 126 808 q 349 983 257 953 q 535 968 447 1017 q 651 858 599 933 q 663 812 667 838 q 637 771 658 786 q 590 760 615 756 q 549 786 564 764 z "},"7":{"ha":874,"x_min":35,"x_max":733,"o":"m 719 835 q 474 442 568 624 q 303 25 381 260 q 271 -12 294 0 q 223 -15 247 -24 q 187 17 199 -7 q 183 65 175 40 q 340 453 256 282 q 547 810 424 625 q 291 812 426 803 q 81 840 156 821 q 42 869 56 846 q 35 917 29 892 q 64 955 42 942 q 113 961 86 968 q 384 934 201 939 q 660 947 567 929 q 707 938 685 953 q 733 899 729 924 q 731 861 738 879 q 719 835 728 847 z "},"8":{"ha":864,"x_min":39,"x_max":722,"o":"m 401 568 q 438 575 421 569 q 533 653 501 596 q 547 761 564 707 q 446 865 528 825 q 313 856 383 882 q 199 775 240 829 q 175 686 163 728 q 286 588 192 631 q 371 567 329 568 q 400 568 386 571 l 401 568 m 158 515 q 54 650 78 572 q 99 851 24 753 q 271 975 161 935 q 493 983 386 1017 q 514 972 506 979 q 667 797 633 907 q 642 590 700 692 q 569 506 614 542 q 661 428 625 474 q 722 207 740 331 q 619 15 706 93 q 407 -58 526 -67 q 153 39 254 -49 q 39 238 58 121 q 86 449 19 357 q 158 515 115 489 m 311 436 q 188 374 226 428 q 163 258 153 325 q 235 135 175 186 q 415 67 304 74 q 535 110 482 63 q 597 225 588 157 q 564 349 608 294 q 393 440 511 413 q 335 443 364 439 q 311 436 324 438 z "},"9":{"ha":838,"x_min":31,"x_max":694,"o":"m 571 589 q 569 599 569 594 q 533 740 560 678 q 467 832 506 801 q 382 863 429 863 q 253 818 324 863 q 156 665 154 758 q 233 508 157 578 q 397 450 310 439 q 571 589 497 464 m 176 189 q 244 111 210 135 q 329 97 282 86 q 525 281 458 129 q 558 386 547 329 q 414 325 492 336 q 274 340 343 315 q 149 415 204 364 q 63 530 94 465 q 31 663 31 594 q 69 810 29 742 q 186 925 108 878 q 380 988 288 988 q 544 931 472 989 q 694 614 668 832 q 640 229 718 407 q 524 64 596 129 q 358 -25 453 -1 q 175 7 258 -49 q 68 125 115 46 q 62 174 56 149 q 91 212 68 199 q 139 219 114 225 q 176 189 164 213 z "}," ":{"ha":417,"x_min":0,"x_max":0,"o":""},"!":{"ha":490,"x_min":126,"x_max":349,"o":"m 214 161 q 274 158 243 167 q 325 129 304 150 q 347 99 340 115 q 349 46 357 72 q 318 6 340 21 q 282 -11 303 -6 q 204 -8 243 -22 q 143 35 165 6 q 126 79 128 56 q 153 142 124 117 q 201 160 172 157 q 214 161 207 161 m 281 949 q 279 700 271 860 q 286 582 282 654 q 296 411 294 454 q 297 364 297 385 l 299 361 q 300 351 300 354 q 301 338 301 344 q 301 334 301 336 q 300 329 300 332 q 299 319 300 325 q 292 281 296 307 q 269 244 286 258 q 229 231 251 231 q 217 232 224 231 q 182 252 196 236 q 167 289 168 268 q 165 294 165 290 q 168 324 164 310 q 171 331 169 326 q 169 407 172 360 q 160 574 168 447 q 153 693 156 647 q 156 963 144 864 q 178 1005 158 989 q 225 1018 199 1021 q 267 995 251 1015 q 281 949 283 975 z "},"\"":{"ha":538,"x_min":43,"x_max":400,"o":"m 164 988 q 181 893 175 946 q 185 806 183 864 q 185 783 185 790 q 194 683 188 719 l 194 683 q 194 681 194 682 l 194 679 q 196 674 196 676 q 194 643 199 658 q 169 606 189 619 q 144 593 158 597 q 97 597 119 585 q 65 632 74 608 q 67 678 58 656 q 60 779 61 717 q 58 801 60 786 q 56 882 57 856 q 43 953 51 922 q 48 1001 35 978 q 86 1031 61 1024 q 134 1026 111 1039 q 164 988 157 1013 m 390 979 q 397 907 394 967 q 399 799 399 860 q 400 689 400 733 q 399 650 400 664 q 399 635 399 642 q 389 604 397 618 q 351 575 376 582 q 304 582 326 568 q 278 610 286 592 q 274 647 269 628 q 274 654 274 650 q 274 689 274 667 q 274 796 274 732 q 271 903 272 857 q 269 939 269 926 q 268 949 269 946 q 276 992 264 972 q 311 1019 289 1013 q 360 1016 336 1028 q 390 979 383 1004 z "},"#":{"ha":957,"x_min":-31,"x_max":818,"o":"m 346 590 q 289 406 313 481 q 399 407 342 406 q 454 589 422 485 q 439 589 447 589 q 346 590 383 590 m 443 924 q 415 853 428 893 q 396 771 408 826 q 393 758 394 763 q 383 715 388 733 q 440 715 407 715 q 493 715 471 715 q 507 775 499 738 q 510 788 508 779 q 532 878 522 847 q 568 972 547 931 q 606 1003 581 996 q 653 999 631 1011 q 684 963 676 988 q 681 914 692 938 q 653 843 664 885 q 633 761 644 817 q 631 749 631 753 q 622 714 626 729 q 756 714 692 714 q 800 696 782 714 q 818 651 818 678 q 800 606 818 625 q 756 588 782 588 q 586 589 678 588 q 531 408 553 481 q 676 408 597 408 q 721 390 703 408 q 739 345 739 371 q 721 301 739 319 q 676 282 703 282 q 493 282 576 282 q 422 22 451 142 q 393 -17 415 -4 q 346 -24 371 -31 q 307 4 321 -18 q 300 53 293 26 q 361 281 326 158 q 251 278 304 279 q 185 31 214 146 q 156 -8 178 6 q 108 -15 133 -21 q 69 14 83 -8 q 63 61 56 36 q 119 275 88 163 q 36 271 78 274 q -10 288 10 271 q -30 332 -29 306 q -13 377 -31 358 q 31 397 4 396 q 157 401 93 400 q 214 590 181 483 q 124 590 169 590 q 79 609 97 590 q 61 654 61 628 q 79 699 61 681 q 124 717 97 717 q 254 717 188 717 q 269 785 260 740 q 272 797 271 789 q 294 888 286 857 q 331 982 310 940 q 368 1013 343 1006 q 416 1009 393 1021 q 447 972 439 997 q 443 924 454 947 z "},"$":{"ha":843,"x_min":17,"x_max":701,"o":"m 424 1061 q 425 1031 425 1050 q 426 1017 426 1021 q 432 981 428 992 q 433 974 433 978 q 563 928 503 963 q 701 761 668 867 q 698 713 710 736 q 661 681 686 689 q 613 685 636 674 q 582 722 590 697 q 499 819 563 782 q 358 854 435 856 q 238 815 283 853 q 190 703 190 776 q 215 668 190 683 q 324 625 243 650 q 344 618 329 624 l 361 613 q 400 601 383 606 q 513 556 468 579 q 617 479 576 524 q 689 183 719 369 q 561 13 671 74 q 425 -33 501 -21 q 429 -71 421 -46 q 426 -119 438 -96 q 389 -150 414 -142 q 341 -147 364 -158 q 310 -111 318 -135 q 297 -35 294 -68 q 139 19 207 -24 q 17 210 31 88 q 31 256 14 236 q 73 279 47 276 q 119 266 99 282 q 142 224 139 250 q 206 125 149 161 q 351 88 265 89 q 500 122 438 88 q 565 203 557 154 q 563 322 576 272 q 525 393 553 364 q 361 481 479 443 q 324 493 346 486 l 308 497 q 288 504 292 503 q 146 563 189 535 q 65 703 65 615 q 157 913 65 835 q 304 975 218 963 q 301 1008 301 989 q 300 1024 300 1013 q 299 1047 299 1040 q 312 1094 296 1074 q 354 1117 328 1114 q 401 1103 381 1119 q 424 1061 421 1086 z "},"%":{"ha":1317,"x_min":58,"x_max":1171,"o":"m 285 813 q 247 806 268 815 q 185 740 207 785 q 175 667 163 699 q 260 604 190 626 q 350 603 318 586 q 382 647 375 615 q 375 726 392 685 q 349 769 365 750 q 308 781 326 768 q 285 813 290 793 m 376 907 q 379 906 378 907 q 390 899 385 901 q 579 919 500 906 q 790 974 697 938 q 794 975 793 974 q 807 979 801 978 q 817 982 813 981 q 841 988 831 986 q 860 988 851 989 q 900 968 885 985 q 918 933 915 954 q 911 894 921 913 q 910 892 911 893 q 906 883 908 889 q 889 853 899 869 q 832 746 861 801 q 654 418 735 567 q 646 404 650 411 q 392 -44 440 29 q 351 -72 376 -67 q 303 -62 325 -76 q 277 -22 282 -47 q 286 25 272 3 q 535 464 333 94 q 543 479 539 472 q 721 806 625 628 q 729 821 725 814 q 600 794 668 806 q 489 781 547 786 q 492 775 490 778 q 506 617 524 694 q 408 490 483 529 q 221 485 329 450 q 58 621 94 525 q 72 799 25 707 q 190 918 114 879 q 367 914 285 965 q 376 907 372 911 m 1043 460 q 1046 458 1044 460 q 1158 328 1124 411 q 1171 171 1190 249 q 1075 43 1150 82 q 888 38 996 3 q 724 175 761 78 q 739 351 692 260 q 857 471 781 432 q 1033 468 951 518 q 1043 460 1038 464 m 967 360 q 914 358 944 374 q 850 294 874 338 q 842 219 829 251 q 926 157 857 179 q 1017 156 985 139 q 1049 200 1042 168 q 1042 279 1058 238 q 981 350 1022 325 q 971 358 975 354 q 967 360 968 360 z "},"&":{"ha":1057,"x_min":107,"x_max":919,"o":"m 508 819 q 389 832 463 860 q 322 791 353 818 q 274 733 290 764 q 261 683 260 706 q 282 644 264 663 q 371 601 311 618 q 563 581 447 581 q 607 563 589 581 q 625 518 625 544 q 607 474 625 492 q 563 456 589 456 q 371 428 449 456 q 269 367 306 406 q 236 208 208 300 q 278 134 249 167 q 344 86 307 101 q 519 132 429 54 q 540 183 539 150 q 518 254 540 217 q 508 286 508 269 q 539 340 508 322 q 572 350 554 350 q 626 319 607 350 q 731 197 663 257 q 856 132 807 132 q 901 113 882 132 q 919 68 919 94 q 901 24 919 42 q 856 6 882 6 q 743 36 803 6 q 650 101 697 61 q 603 38 633 64 q 451 -42 531 -25 q 299 -31 372 -60 q 185 49 233 -6 q 115 172 136 103 q 108 320 92 246 q 176 451 124 394 q 253 513 208 486 q 196 553 219 531 q 137 665 144 601 q 163 792 129 729 q 238 885 189 843 q 343 950 286 928 q 476 967 410 976 q 592 914 542 958 q 613 870 611 896 q 597 825 614 844 q 553 803 579 806 q 508 819 528 801 z "},"'":{"ha":375,"x_min":78,"x_max":235,"o":"m 235 950 q 208 768 217 896 q 204 649 204 703 q 203 583 224 615 q 200 578 201 581 q 149 543 183 547 q 143 543 146 543 q 100 559 118 543 q 81 600 82 575 q 78 622 79 614 q 78 628 78 624 l 79 632 q 83 776 78 694 q 114 989 92 919 q 145 1026 122 1014 q 193 1029 168 1038 q 230 998 218 1021 q 235 950 242 975 z "},"(":{"ha":565,"x_min":108,"x_max":426,"o":"m 396 936 q 281 714 325 874 q 235 360 236 554 q 278 12 233 163 q 399 -189 324 -139 q 426 -229 421 -204 q 416 -276 431 -254 q 376 -303 401 -299 q 329 -294 350 -308 q 157 -22 215 -218 q 108 360 107 146 q 158 747 110 571 q 313 1031 214 943 q 358 1046 332 1047 q 401 1025 383 1044 q 417 979 418 1006 q 396 936 415 953 z "},")":{"ha":489,"x_min":40,"x_max":350,"o":"m 43 -236 q 188 117 146 -26 q 224 383 229 261 q 174 633 219 494 q 47 949 142 728 q 47 997 38 972 q 81 1031 57 1021 q 130 1032 106 1042 q 164 999 154 1022 q 293 672 260 772 q 350 389 344 517 q 311 90 356 249 q 157 -292 267 -68 q 121 -323 146 -314 q 72 -320 96 -332 q 40 -284 49 -308 q 43 -236 32 -260 z "},"*":{"ha":607,"x_min":46,"x_max":468,"o":"m 147 900 q 190 882 158 892 q 193 882 192 882 q 193 950 196 911 q 208 995 190 975 q 251 1017 225 1015 q 297 1002 276 1019 q 318 958 317 985 q 318 875 321 913 q 329 879 324 876 q 396 901 364 896 q 442 890 421 906 q 468 849 464 875 q 457 802 472 824 q 417 776 442 781 q 342 743 393 774 q 368 708 356 722 q 390 683 382 692 q 414 642 411 668 q 401 595 417 615 q 358 572 385 575 q 313 586 332 569 q 269 629 292 601 q 240 669 256 646 q 213 628 228 651 q 172 603 197 607 q 124 614 146 599 q 99 655 103 629 q 110 701 94 681 q 151 763 136 739 q 114 776 129 769 q 69 803 88 788 q 46 844 49 818 q 59 891 43 871 q 101 914 75 911 q 147 900 128 917 z "},"+":{"ha":960,"x_min":36,"x_max":818,"o":"m 115 410 l 122 408 q 144 406 131 407 q 221 401 174 403 q 349 397 278 399 q 346 519 346 471 q 360 685 347 611 q 385 726 364 711 q 431 736 406 740 q 472 711 457 732 q 483 664 488 690 q 472 519 472 601 q 475 396 472 471 q 642 399 572 396 q 714 403 686 400 q 733 406 726 404 l 731 403 q 778 407 754 415 q 815 375 803 399 q 818 326 826 351 q 786 290 810 301 q 725 276 768 281 q 646 272 694 274 q 481 269 576 269 q 482 204 482 236 q 472 46 482 115 q 449 4 469 19 q 401 -8 428 -11 q 360 17 375 -4 q 347 64 344 38 q 357 204 357 125 q 356 271 357 236 q 214 275 276 272 q 76 289 106 281 q 40 321 51 297 q 36 369 28 344 q 67 406 44 393 q 115 410 90 418 z "},",":{"ha":440,"x_min":78,"x_max":300,"o":"m 92 -131 q 121 -93 114 -101 q 160 -22 151 -51 q 147 -15 153 -19 q 142 -11 144 -14 q 82 63 96 17 q 93 135 71 101 q 154 175 113 165 q 244 157 201 186 q 299 81 288 128 q 300 25 306 50 q 289 0 296 11 q 289 -12 290 -6 q 264 -101 285 -58 q 221 -169 249 -132 l 192 -207 q 149 -231 175 -228 q 103 -219 124 -235 q 78 -177 82 -203 q 92 -131 75 -151 z "},"-":{"ha":588,"x_min":11,"x_max":449,"o":"m 83 450 q 235 431 178 435 q 375 435 319 424 q 422 426 400 440 q 449 385 443 411 q 440 338 454 360 q 399 311 425 317 q 225 304 326 296 q 63 326 163 310 q 22 351 36 331 q 11 398 7 372 q 36 439 15 424 q 83 450 57 454 z "},".":{"ha":442,"x_min":71,"x_max":303,"o":"m 256 138 q 303 60 301 110 q 267 -19 304 15 q 192 -50 232 -51 q 135 -28 158 -50 q 97 4 113 -18 q 85 28 92 14 q 71 88 71 60 q 99 151 72 126 q 154 176 121 172 q 201 171 176 178 q 256 138 233 161 z "},"/":{"ha":558,"x_min":3,"x_max":415,"o":"m 3 35 q 156 549 46 204 q 299 969 265 894 q 334 1003 310 994 q 382 1002 358 1013 q 415 967 406 992 q 414 919 425 943 q 275 508 383 849 q 124 3 167 167 q 95 -35 118 -22 q 47 -42 72 -49 q 9 -12 22 -35 q 3 35 -4 10 z "},":":{"ha":471,"x_min":133,"x_max":322,"o":"m 149 675 q 172 713 156 697 q 253 732 207 743 q 322 674 299 721 q 314 576 350 621 q 244 540 289 546 q 188 546 211 536 q 136 596 149 560 q 138 653 128 624 q 149 675 142 664 m 146 135 q 169 172 153 157 q 251 192 204 203 q 319 133 296 181 q 311 36 347 81 q 242 0 286 6 q 185 6 208 -4 q 133 56 146 19 q 135 113 125 83 q 146 135 139 124 z "},";":{"ha":475,"x_min":118,"x_max":336,"o":"m 149 675 q 172 713 156 697 q 253 732 207 743 q 322 674 299 721 q 314 576 350 621 q 244 540 289 546 q 188 546 211 536 q 136 596 149 560 q 138 653 128 624 q 149 675 142 664 m 333 63 l 333 61 q 336 -21 338 4 q 317 -110 335 -69 q 282 -165 304 -137 q 244 -204 267 -185 q 208 -229 225 -222 q 179 -233 194 -235 q 129 -206 147 -232 q 118 -168 118 -189 q 119 -149 118 -158 q 169 -101 131 -108 q 175 -96 172 -99 q 185 -85 182 -89 q 201 -58 196 -72 q 210 -25 208 -43 q 174 -10 190 -21 q 133 42 144 10 q 147 126 117 89 q 239 163 182 167 q 288 146 265 160 q 324 96 315 126 q 325 89 325 92 q 333 63 332 78 z "},"<":{"ha":975,"x_min":-7,"x_max":832,"o":"m 10 379 q 174 479 46 418 q 418 586 274 528 q 647 674 543 636 q 724 699 696 690 q 750 704 740 703 q 767 707 760 707 q 789 703 779 707 q 813 690 801 699 q 832 653 828 675 q 821 606 836 628 q 779 581 806 585 l 774 581 q 758 578 769 581 q 689 554 733 569 q 465 469 588 518 q 228 367 324 413 q 208 357 218 361 q 799 108 614 188 q 832 74 822 99 q 831 26 842 50 q 797 -8 821 1 q 749 -7 772 -18 q 74 276 543 81 q 14 290 39 267 q -6 335 -6 308 q 10 379 -7 361 z "},"=":{"ha":921,"x_min":22,"x_max":782,"o":"m 103 256 q 314 258 172 258 q 540 260 465 257 q 710 278 633 264 q 757 267 736 282 q 782 226 778 251 q 771 178 786 200 q 731 153 756 157 q 546 135 647 139 q 314 132 467 131 q 108 131 175 133 q 63 147 82 129 q 43 190 44 164 q 60 236 42 217 q 103 256 78 256 m 85 540 q 714 567 415 542 q 759 553 739 569 q 781 510 779 536 q 767 464 783 483 q 724 442 750 444 q 86 414 421 417 q 41 432 60 414 q 22 476 22 450 q 40 522 22 503 q 85 540 58 540 z "},">":{"ha":967,"x_min":-15,"x_max":828,"o":"m 14 86 q 213 186 101 138 q 417 267 294 221 q 458 283 435 274 l 500 299 q 621 344 576 326 q 336 476 506 404 q 135 560 221 526 q 74 581 96 574 q 68 583 71 582 q 44 588 56 582 q 9 621 19 597 q 8 669 -1 644 q 68 710 25 708 q 86 708 76 710 q 111 701 96 706 q 181 676 136 693 q 386 592 268 643 q 800 386 692 461 q 827 347 822 372 q 818 299 832 321 q 782 274 804 279 q 776 271 779 272 q 544 181 696 236 q 503 164 511 168 q 460 149 478 156 q 264 71 342 104 q 78 -24 160 25 q 29 -30 54 -36 q -9 -1 4 -24 q -15 47 -22 22 q 14 86 -8 72 m 124 617 q 82 585 111 592 q 124 617 110 589 z "},"?":{"ha":863,"x_min":94,"x_max":706,"o":"m 322 92 q 335 111 326 103 q 349 125 340 119 q 413 139 378 146 q 449 119 433 135 q 468 81 464 104 q 454 22 472 51 q 424 -11 442 3 q 404 -22 414 -18 q 367 -29 385 -31 q 310 13 325 -26 q 307 58 301 33 q 322 92 311 74 m 94 724 q 180 881 114 808 q 335 989 246 953 q 515 1011 428 1026 q 676 904 615 992 q 706 660 754 790 q 651 558 689 613 q 585 471 628 524 q 569 453 582 467 l 558 439 q 533 408 543 421 q 494 354 508 376 q 475 293 469 313 q 469 245 482 268 q 432 215 457 222 q 384 219 407 207 q 354 257 361 232 q 354 346 342 299 q 388 419 363 381 q 435 486 404 449 q 461 518 444 499 q 473 533 461 519 q 488 550 485 547 q 588 703 567 649 q 572 832 614 772 q 492 888 540 878 q 382 872 442 896 q 276 798 322 847 q 217 694 229 749 q 188 655 210 668 q 140 648 165 642 q 101 676 115 654 q 94 724 88 699 z "},"@":{"ha":1394,"x_min":122,"x_max":1244,"o":"m 800 521 q 801 536 800 528 q 808 571 806 557 q 813 585 811 579 q 760 667 788 640 q 726 686 742 685 q 642 625 689 689 q 565 461 588 554 q 557 388 556 419 q 560 365 557 375 q 564 357 563 360 q 611 336 583 331 q 701 389 651 343 q 785 493 751 435 q 800 521 793 507 m 935 578 q 935 572 935 575 q 922 489 940 536 q 919 429 919 457 q 933 354 921 378 q 940 343 936 346 q 946 343 942 343 q 1106 415 1061 343 q 1122 600 1147 486 q 1010 807 1094 718 q 806 913 919 901 q 406 786 571 936 q 292 635 333 721 q 247 461 250 549 q 284 299 244 372 q 401 179 324 226 q 997 139 604 60 q 1044 129 1022 143 q 1072 90 1067 115 q 1062 42 1076 64 q 1022 15 1047 19 q 338 72 582 -74 q 174 239 229 136 q 122 465 118 342 q 178 688 125 579 q 321 879 231 797 q 549 1011 421 969 q 818 1038 676 1053 q 1101 894 979 1022 q 1244 628 1210 781 q 1213 351 1282 465 q 947 217 1132 217 q 819 299 860 217 q 811 319 814 308 q 786 296 799 307 q 635 211 710 225 q 463 282 528 192 q 431 383 433 321 q 443 490 429 432 q 542 701 472 610 q 622 781 579 751 q 735 811 678 815 q 849 757 797 807 q 933 624 896 710 q 935 578 943 601 z "},"A":{"ha":1042,"x_min":49,"x_max":901,"o":"m 307 428 q 407 422 342 426 q 433 421 424 421 q 604 415 543 414 q 532 603 575 489 q 517 643 525 619 q 512 656 515 646 q 506 674 508 665 l 501 682 q 449 821 468 771 q 378 626 419 751 q 371 607 374 618 q 368 599 369 604 q 365 592 367 594 l 364 588 q 315 447 333 496 q 307 428 311 438 m 49 46 q 61 161 43 96 q 101 275 74 211 q 133 347 114 306 q 142 367 133 350 q 158 401 150 383 q 169 426 167 419 q 197 490 188 467 q 244 628 214 538 l 246 631 q 249 640 247 635 q 251 647 250 646 q 258 667 256 658 q 372 961 324 857 q 375 968 374 965 q 382 981 379 975 q 396 1001 389 993 q 415 1019 404 1013 q 439 1029 426 1026 q 478 1026 458 1033 q 504 1007 493 1019 q 517 990 511 1000 q 528 967 522 981 q 532 953 529 961 q 533 949 533 950 q 619 726 565 871 l 622 718 q 630 700 626 710 q 635 688 633 690 q 650 647 643 664 q 764 358 718 468 q 896 83 831 204 q 901 35 908 60 q 872 -3 894 10 q 824 -8 849 -15 q 786 22 799 0 q 656 290 721 142 q 425 294 575 286 q 399 296 417 296 q 251 303 296 303 q 247 294 249 296 q 217 226 229 254 q 174 57 168 111 q 160 10 176 31 q 117 -12 143 -10 q 70 3 90 -14 q 49 46 50 19 z "},"B":{"ha":1010,"x_min":103,"x_max":871,"o":"m 231 614 q 336 613 293 614 q 443 604 393 610 q 518 606 485 604 q 647 635 599 611 q 674 683 661 640 q 675 692 674 686 q 676 697 675 693 l 678 700 q 681 713 679 708 q 674 814 700 778 q 583 872 649 850 q 431 899 521 893 q 289 900 363 903 q 267 899 282 899 q 231 899 243 899 q 232 892 232 894 q 232 876 232 882 q 232 631 232 794 q 231 614 232 622 m 233 139 q 249 138 238 139 q 267 135 260 136 q 278 135 274 135 q 411 122 360 125 q 640 146 571 113 q 710 207 676 164 q 746 281 743 249 q 676 410 750 363 q 471 474 607 456 q 436 479 454 476 q 346 482 401 479 q 332 483 340 482 q 231 488 261 488 q 231 424 231 456 q 233 139 229 261 m 221 14 q 175 -10 203 -8 q 129 8 149 -10 q 110 51 110 25 q 110 57 110 54 q 104 89 101 72 q 107 106 104 97 q 104 424 104 242 q 106 632 104 493 q 107 875 107 794 q 107 879 107 876 l 106 892 q 104 906 104 900 q 103 935 101 922 q 106 956 103 946 q 121 988 110 974 q 153 1011 133 1003 q 179 1019 164 1015 q 225 1025 199 1024 q 267 1025 240 1025 q 282 1025 279 1025 q 439 1025 364 1029 q 622 992 546 1017 q 778 886 729 957 q 803 678 838 800 q 799 667 801 674 l 797 664 q 797 658 797 660 q 794 649 796 653 q 768 583 782 608 q 719 531 749 550 q 746 515 733 524 q 871 274 881 428 q 810 129 867 203 q 694 33 757 64 q 556 -3 639 6 q 404 -4 490 -8 q 264 8 349 0 q 221 14 261 10 z "},"C":{"ha":1083,"x_min":63,"x_max":944,"o":"m 829 706 q 581 911 725 875 q 342 865 456 942 q 185 640 225 786 q 217 294 139 475 q 365 128 269 174 q 551 108 450 86 q 721 199 650 131 q 800 350 792 267 q 824 392 803 375 q 870 406 844 408 q 912 382 896 403 q 925 336 928 361 q 813 113 911 211 q 578 -14 715 15 q 311 14 435 -46 q 101 244 172 81 q 63 672 7 465 q 142 842 88 765 q 271 969 196 919 q 611 1033 432 1078 q 936 771 806 985 q 944 723 950 749 q 915 684 938 697 q 867 677 893 671 q 829 706 842 683 z "},"D":{"ha":1056,"x_min":82,"x_max":917,"o":"m 186 13 q 182 11 185 13 q 133 19 156 6 q 106 57 111 32 q 82 511 81 157 q 90 776 83 663 q 114 953 99 908 q 142 988 121 976 q 188 994 164 1000 q 444 1007 335 1014 q 681 949 585 999 q 917 500 907 833 q 678 42 926 142 q 435 0 582 3 q 186 13 343 -1 m 225 872 q 217 769 219 832 q 208 510 210 657 q 219 136 207 264 q 433 126 353 125 q 632 158 557 129 q 749 261 711 190 q 790 497 794 346 q 740 722 786 636 q 624 836 700 797 q 225 872 492 904 z "},"E":{"ha":994,"x_min":110,"x_max":856,"o":"m 225 985 q 368 1008 289 1003 q 525 1008 433 1013 q 603 1004 553 1007 q 756 997 708 997 q 801 978 782 997 q 819 934 819 960 q 801 890 819 908 q 756 871 782 871 q 596 878 704 871 q 519 882 546 881 q 250 861 346 890 q 246 681 246 786 q 246 608 246 651 q 306 611 271 611 q 449 603 364 611 q 543 593 492 599 q 611 585 558 592 q 669 578 664 578 q 713 554 696 575 q 726 508 729 533 q 702 466 722 482 q 656 453 682 450 q 597 460 650 453 q 529 468 543 467 q 438 478 478 474 q 306 485 358 485 q 258 482 278 485 q 246 481 251 482 q 246 382 246 428 q 242 240 244 313 q 238 119 242 225 q 293 126 272 126 l 329 126 q 532 126 464 128 q 799 113 685 124 q 842 91 825 111 q 856 44 858 71 q 833 1 853 18 q 788 -12 814 -15 q 529 0 678 -3 q 329 1 464 1 l 293 1 q 253 -6 285 1 q 214 -14 228 -12 q 165 -15 186 -18 q 114 28 126 -10 q 111 43 113 35 q 110 60 110 50 q 111 100 110 72 q 113 165 111 106 q 115 244 115 224 q 119 383 118 317 q 119 576 121 449 q 119 681 119 646 q 128 938 119 832 q 150 981 131 964 q 196 996 169 997 q 225 985 213 994 z "},"F":{"ha":976,"x_min":122,"x_max":838,"o":"m 124 50 q 122 404 114 192 q 126 521 124 443 q 135 725 133 658 q 129 792 135 732 q 125 825 126 811 q 122 900 121 871 q 125 935 122 919 q 140 978 129 961 q 183 1007 156 999 q 211 1013 194 1010 q 276 1018 235 1015 q 463 1024 349 1022 q 782 1019 707 1028 q 824 997 807 1017 q 838 951 840 976 q 815 908 835 925 q 768 894 794 892 q 465 899 701 901 q 285 893 353 897 q 247 890 264 892 q 251 836 247 869 q 254 806 251 824 q 255 800 254 804 q 256 792 256 796 q 256 785 256 788 l 257 782 q 258 760 258 768 q 261 722 261 735 q 256 576 260 663 q 456 585 319 578 q 565 589 528 588 q 679 592 628 592 q 723 573 704 592 q 742 528 742 554 q 723 484 742 503 q 679 465 704 465 q 569 464 631 465 q 461 458 533 463 q 250 451 319 451 q 249 399 249 424 q 249 58 240 193 q 233 13 250 33 q 190 -8 215 -7 q 144 8 164 -10 q 124 50 125 25 z "},"G":{"ha":1107,"x_min":78,"x_max":968,"o":"m 825 725 q 801 778 821 754 q 736 835 781 803 q 501 896 617 917 q 311 780 394 876 q 201 551 228 683 q 221 297 174 415 q 369 139 265 189 q 578 113 465 93 q 764 208 692 133 q 840 408 840 289 q 842 419 840 413 q 842 424 842 422 l 842 425 l 842 428 q 842 443 842 438 q 825 444 835 444 q 753 440 799 446 q 713 436 738 439 q 686 432 692 433 q 660 429 671 431 q 610 425 629 425 q 565 444 583 425 q 546 488 546 463 q 565 533 546 514 q 610 551 583 551 q 696 561 626 551 q 738 567 721 564 q 831 571 793 572 q 924 547 888 569 q 963 493 953 531 q 968 450 968 475 q 968 422 968 439 q 967 408 967 410 q 854 121 967 239 q 600 -11 754 17 q 315 25 447 -37 q 104 250 167 96 q 78 576 43 403 q 215 863 111 740 q 478 1019 329 993 q 807 938 646 1050 q 894 863 864 899 q 950 746 939 811 q 939 699 954 721 q 898 673 924 678 q 851 683 872 668 q 825 725 831 699 z "},"H":{"ha":1068,"x_min":103,"x_max":931,"o":"m 892 918 q 892 575 883 767 q 892 557 892 567 q 908 508 911 536 q 897 476 907 490 q 915 229 901 397 q 931 44 925 106 q 915 -2 932 18 q 872 -24 897 -22 q 826 -8 846 -25 q 804 35 806 8 q 790 219 800 96 q 772 457 776 381 q 246 453 461 483 q 261 61 261 197 q 242 17 261 35 q 198 -1 224 -1 q 153 17 172 -1 q 135 61 135 35 q 118 471 135 197 q 107 700 110 624 q 103 933 101 829 q 103 972 103 953 q 123 1017 104 999 q 168 1034 142 1035 q 212 1015 194 1033 q 229 969 229 996 q 228 932 229 950 q 232 706 226 832 q 239 579 235 649 q 765 585 458 610 q 763 762 761 607 q 765 926 765 917 q 788 969 768 951 q 833 985 807 986 q 876 964 858 983 q 892 918 893 944 z "},"I":{"ha":418,"x_min":118,"x_max":279,"o":"m 260 936 q 244 718 244 838 q 253 492 244 625 q 261 382 256 454 q 274 214 271 269 q 279 46 279 119 q 261 1 279 19 q 217 -18 243 -18 q 172 1 190 -18 q 154 46 154 19 q 136 372 154 151 q 128 482 131 444 q 118 718 118 621 q 136 956 118 849 q 161 997 140 982 q 208 1008 182 1013 q 249 983 233 1004 q 260 936 264 963 z "},"J":{"ha":776,"x_min":28,"x_max":636,"o":"m 154 292 q 165 183 156 218 q 206 110 176 139 q 271 76 232 85 q 339 82 310 68 q 485 258 444 128 q 510 561 519 374 q 488 788 506 649 l 486 794 q 485 809 486 800 q 483 830 485 818 q 481 852 482 842 q 478 872 479 863 q 476 886 476 882 q 467 976 469 940 q 481 1022 464 1001 q 524 1044 497 1042 q 570 1029 550 1046 q 592 986 590 1013 q 601 901 594 953 q 603 884 601 896 q 606 859 604 872 q 610 833 608 846 q 612 813 611 821 q 613 803 613 804 q 636 568 631 660 q 606 222 647 357 q 390 -33 547 36 q 248 -47 324 -62 q 119 18 172 -32 q 43 154 63 72 q 28 289 31 201 q 45 333 28 314 q 89 353 63 353 q 134 336 115 354 q 154 292 153 318 z "},"K":{"ha":993,"x_min":94,"x_max":853,"o":"m 486 615 q 528 519 490 586 q 628 369 564 458 q 671 313 647 343 q 768 186 700 272 q 843 88 822 115 q 853 40 857 65 q 828 -1 849 14 q 781 -12 807 -17 q 740 14 756 -7 q 668 108 721 40 q 569 236 600 196 q 526 294 546 268 q 419 457 458 389 q 386 521 399 492 q 315 449 367 501 q 221 353 250 381 q 239 51 224 189 q 226 5 242 25 q 183 -18 210 -15 q 137 -5 157 -21 q 114 38 117 11 q 94 369 97 189 q 94 385 93 378 q 94 539 93 457 q 101 826 96 636 q 107 975 106 926 q 126 1019 107 1001 q 172 1037 146 1038 q 215 1017 197 1036 q 232 972 233 997 q 228 822 231 924 q 221 538 222 633 q 221 532 221 535 q 226 538 224 535 q 376 690 332 646 q 421 735 400 714 q 733 997 640 950 q 781 1001 757 1008 q 817 969 806 993 q 821 921 829 946 q 789 885 813 896 q 510 644 714 847 q 486 621 497 633 q 486 615 486 618 z "},"L":{"ha":917,"x_min":101,"x_max":778,"o":"m 228 957 q 243 211 218 611 q 244 177 244 204 q 243 133 243 150 q 244 113 244 122 q 300 111 267 111 q 463 115 360 111 q 526 118 489 117 q 715 126 682 126 q 760 108 742 126 q 778 63 778 89 q 760 19 778 38 q 715 0 742 0 q 532 -7 685 0 q 468 -10 494 -8 q 300 -15 363 -15 q 176 -4 210 -14 q 143 19 156 3 q 131 40 135 29 q 122 72 125 54 q 118 132 118 96 q 118 178 117 150 q 118 203 118 200 q 101 961 93 608 q 122 1004 103 986 q 166 1022 140 1022 q 210 1002 192 1021 q 228 957 228 983 z "},"M":{"ha":1204,"x_min":90,"x_max":1065,"o":"m 1053 929 q 1065 65 1039 447 q 1051 19 1068 39 q 1008 -2 1033 0 q 962 13 982 -4 q 940 56 942 31 q 922 714 918 360 q 915 697 918 706 q 821 439 874 600 q 806 389 814 418 q 797 363 804 383 q 789 338 790 342 q 703 86 736 174 q 699 81 701 86 q 697 74 697 75 q 689 54 693 63 q 654 4 674 22 q 560 -14 611 -33 q 513 21 535 -4 q 483 65 497 39 q 432 181 460 107 q 381 329 410 239 q 354 410 369 361 q 343 447 354 411 q 328 493 332 483 q 251 724 281 644 q 232 772 242 750 q 233 728 233 751 q 229 511 235 653 q 228 503 228 507 q 224 275 222 350 q 244 60 225 154 q 235 13 250 35 q 195 -14 221 -8 q 148 -5 169 -19 q 121 36 126 10 q 97 274 100 140 q 103 507 96 351 q 103 515 103 513 q 107 726 108 654 q 90 928 106 839 q 101 974 86 953 q 142 1000 117 996 q 153 1001 147 1001 q 156 1004 154 1003 q 200 1022 174 1022 q 244 1004 226 1022 q 283 956 264 985 q 369 768 322 893 q 449 532 400 685 q 464 485 451 521 l 475 449 q 500 368 490 400 q 550 225 529 281 q 588 138 571 171 q 669 376 618 218 q 677 401 671 381 q 685 426 683 422 q 701 478 694 457 q 799 747 756 644 q 935 997 861 893 q 976 1024 950 1019 q 1024 1013 1001 1028 q 1049 951 1056 990 q 1053 929 1053 942 z "},"N":{"ha":1038,"x_min":94,"x_max":899,"o":"m 886 956 q 899 444 901 751 q 897 293 899 394 q 896 53 896 132 q 877 8 896 26 q 832 -11 858 -11 q 788 7 806 -11 q 719 60 757 22 q 636 160 683 97 q 446 438 564 254 q 414 489 432 461 q 371 556 397 515 q 331 621 339 607 q 253 743 282 697 q 222 789 236 768 q 235 503 225 696 q 236 471 236 482 q 250 53 250 203 q 231 8 250 26 q 187 -10 213 -10 q 142 8 161 -10 q 124 53 124 26 q 111 465 124 199 q 108 496 110 475 q 94 946 94 794 q 113 990 94 972 q 156 1008 131 1008 q 195 1014 174 1018 q 231 993 217 1010 q 358 811 274 943 q 436 689 388 765 l 478 622 q 519 556 503 583 q 553 506 538 529 q 736 235 667 326 q 769 192 754 211 q 771 294 771 231 q 772 446 772 396 q 760 946 775 747 q 775 992 758 972 q 818 1014 792 1013 q 864 999 844 1015 q 886 956 883 982 z "},"O":{"ha":1147,"x_min":50,"x_max":1008,"o":"m 507 1029 q 546 1039 525 1040 q 908 844 781 1021 q 1008 477 1022 688 q 858 128 993 267 q 468 -18 706 -31 q 285 33 368 -14 q 144 164 203 81 q 50 519 40 315 q 189 871 61 729 q 507 1029 313 1007 m 578 907 q 282 786 392 907 q 176 514 185 678 q 249 235 168 353 q 475 107 332 115 q 767 215 656 99 q 882 486 871 322 q 807 771 893 651 q 583 907 726 881 q 578 907 581 907 z "},"P":{"ha":1017,"x_min":100,"x_max":872,"o":"m 238 881 q 226 743 229 824 q 228 542 224 660 q 315 536 254 540 q 336 535 328 536 q 483 531 431 531 q 671 582 596 531 q 750 690 735 626 q 725 799 763 750 q 565 882 678 860 q 369 889 493 896 q 322 886 354 888 q 238 881 265 882 m 232 415 q 235 351 233 389 q 244 69 244 140 q 226 24 244 43 q 182 6 208 6 q 137 24 156 6 q 118 69 118 43 q 108 344 118 138 q 103 482 106 429 q 100 747 97 642 q 126 968 104 888 q 155 1008 132 994 q 203 1014 178 1021 q 221 1006 213 1011 q 313 1011 250 1007 q 363 1015 346 1014 q 590 1006 501 1024 q 824 876 747 974 q 872 663 899 781 q 743 479 847 551 q 483 404 636 404 q 328 410 426 404 q 307 411 321 410 q 232 415 256 414 z "},"Q":{"ha":1169,"x_min":75,"x_max":1019,"o":"m 881 107 q 915 79 899 90 q 967 47 951 50 q 1006 18 992 40 q 1013 -30 1019 -4 q 984 -69 1007 -56 q 936 -75 961 -82 q 838 -21 894 -65 q 783 25 814 -3 q 718 -7 751 6 q 519 -26 632 -39 q 340 13 451 -18 q 191 101 254 38 q 93 257 128 164 q 75 625 28 429 q 276 946 124 833 q 700 1021 451 1075 q 731 1006 718 1018 l 735 1004 q 828 960 794 981 q 919 882 881 929 q 1019 660 993 793 q 1015 392 1044 528 q 915 151 988 254 q 881 107 899 128 m 676 269 q 754 217 708 253 q 786 190 769 204 q 892 417 864 278 q 897 632 915 528 q 822 801 878 736 q 764 851 797 832 q 689 886 738 867 l 679 889 q 659 897 669 893 q 644 904 649 901 q 351 844 469 932 q 197 596 236 760 q 211 300 160 438 q 375 135 261 165 q 533 99 476 106 q 675 111 617 89 q 681 114 678 113 q 675 119 678 117 q 619 157 640 147 q 588 194 596 169 q 591 242 579 218 q 628 274 603 265 q 676 269 653 282 z "},"R":{"ha":1090,"x_min":103,"x_max":953,"o":"m 233 871 q 228 724 226 808 q 236 564 229 654 q 407 542 318 546 q 608 553 522 536 q 747 615 703 571 q 783 740 793 660 q 758 803 779 775 q 704 843 738 831 q 481 879 610 879 q 346 875 436 881 q 233 871 271 872 m 147 994 q 190 1001 168 1007 q 206 997 199 1000 q 340 1001 249 997 q 481 1006 433 1006 q 750 961 633 1004 q 858 881 815 936 q 908 756 900 825 q 836 526 925 614 q 792 490 817 507 q 832 413 817 457 q 849 344 842 383 q 858 281 853 322 q 858 278 858 279 q 879 171 868 204 q 928 100 894 126 q 952 58 949 85 q 940 12 956 32 q 897 -12 924 -8 q 851 0 871 -15 q 760 131 788 50 q 743 199 749 160 q 733 263 739 221 q 733 265 733 264 q 713 372 724 340 q 669 438 699 413 q 633 429 651 433 q 401 417 531 408 q 246 433 322 421 q 249 394 247 418 q 264 213 260 265 q 271 46 271 113 q 252 1 271 19 q 207 -17 233 -17 q 163 1 181 -17 q 144 46 144 19 q 138 204 144 108 q 124 385 135 256 q 117 458 119 438 q 103 721 104 621 q 111 910 100 832 q 106 938 104 922 q 117 972 106 957 q 147 994 129 988 z "},"S":{"ha":975,"x_min":65,"x_max":831,"o":"m 692 758 q 626 880 689 833 q 471 929 564 926 q 317 889 379 932 q 249 772 254 847 q 308 629 243 678 q 390 588 339 607 q 497 553 425 574 q 507 550 500 551 q 629 511 589 526 q 742 449 699 483 q 831 179 863 354 q 714 17 813 72 q 522 -31 636 -28 q 323 -4 421 -33 q 171 76 225 25 q 118 153 140 107 q 88 228 103 181 q 85 239 86 232 q 83 244 85 240 l 82 249 q 65 296 71 281 q 66 344 56 321 q 101 378 76 368 q 149 377 125 388 q 182 343 172 367 q 201 286 190 324 l 203 282 q 204 276 204 278 q 208 267 207 271 q 258 168 232 193 q 367 114 292 135 q 519 94 443 93 q 651 125 601 97 q 707 200 699 153 q 704 296 717 258 q 664 350 693 326 q 583 393 635 374 q 472 429 549 407 q 463 432 465 431 q 344 469 385 454 q 233 528 278 496 q 124 781 113 618 q 246 994 132 917 q 475 1054 343 1058 q 701 981 607 1051 q 818 764 813 899 q 801 718 818 738 q 757 698 783 699 q 712 715 731 697 q 692 758 693 732 z "},"T":{"ha":950,"x_min":24,"x_max":811,"o":"m 735 878 q 467 899 629 903 q 456 743 454 843 q 471 481 456 644 q 481 385 475 443 l 485 338 q 489 290 488 310 q 497 201 494 239 q 506 49 506 106 q 488 4 506 22 q 443 -14 469 -14 q 399 4 417 -14 q 381 49 381 22 q 372 192 381 100 q 364 279 369 226 q 360 325 363 297 q 354 372 356 361 q 346 469 349 431 q 329 742 331 639 q 338 892 329 831 q 306 890 325 890 q 86 879 158 879 q 42 898 61 879 q 24 942 24 917 q 42 987 24 968 q 86 1006 61 1006 q 297 1015 153 1006 q 389 1021 357 1019 q 576 1024 499 1028 q 764 1000 681 1021 q 803 972 789 994 q 810 924 817 950 q 782 885 804 899 q 735 878 760 872 z "},"U":{"ha":1050,"x_min":106,"x_max":913,"o":"m 247 946 q 231 751 229 869 q 235 644 232 715 q 238 571 238 594 q 239 542 238 560 q 246 389 242 439 q 306 171 258 246 q 391 106 335 125 q 518 99 447 88 q 643 145 586 110 q 724 226 700 181 q 786 569 785 350 q 747 939 788 758 q 756 986 742 964 q 794 1014 769 1008 q 842 1006 819 1019 q 869 965 864 992 q 913 569 913 771 q 836 169 911 319 q 717 42 799 94 q 538 -26 636 -10 q 351 -14 438 -42 q 199 104 253 19 q 121 376 136 204 q 113 538 115 431 q 111 567 113 557 q 108 639 111 590 q 106 749 106 711 q 125 975 103 882 q 153 1014 131 1000 q 200 1022 175 1028 q 239 994 225 1017 q 247 946 253 972 z "},"V":{"ha":1011,"x_min":67,"x_max":872,"o":"m 189 961 q 258 776 204 896 q 261 772 260 775 q 261 769 261 771 l 263 767 q 313 651 297 692 q 426 326 353 543 q 429 318 429 319 q 432 310 431 317 q 469 201 454 243 q 485 236 482 231 q 561 414 531 342 q 614 538 590 481 q 747 971 733 836 q 770 1014 750 997 q 816 1028 790 1031 q 858 1005 842 1025 q 872 958 875 985 q 731 490 857 806 q 678 364 707 432 q 599 185 646 292 q 583 147 597 179 q 564 106 568 114 q 533 38 546 64 q 490 1 521 8 q 476 -7 483 -4 q 428 -4 451 -15 q 396 32 404 7 q 313 269 365 115 q 310 278 311 274 q 307 286 308 282 q 194 606 235 500 q 149 714 181 643 q 146 719 146 718 q 143 725 144 724 q 101 824 115 788 q 67 932 79 881 q 74 979 61 957 q 113 1008 88 1001 q 161 1000 139 1014 q 189 961 183 986 z "},"W":{"ha":1411,"x_min":38,"x_max":1271,"o":"m 163 963 q 179 885 167 929 q 208 800 188 857 q 247 679 238 719 q 300 460 269 590 q 324 364 307 431 q 349 261 339 303 q 451 607 415 478 q 546 949 507 794 q 560 994 543 975 q 590 1021 571 1013 q 629 1024 610 1029 q 665 1000 651 1018 q 678 960 678 982 q 703 903 690 935 q 729 819 714 874 q 731 815 731 818 l 731 814 q 732 811 732 813 q 763 719 751 749 q 910 329 818 583 q 919 303 913 321 q 940 246 932 271 q 1039 601 975 367 q 1044 622 1040 608 q 1150 1001 1113 875 q 1181 1039 1157 1026 q 1229 1044 1204 1051 q 1266 1013 1254 1036 q 1271 965 1278 990 q 1165 589 1233 840 q 1161 569 1163 575 q 1089 306 1115 399 q 1008 44 1047 161 q 958 1 996 8 q 913 6 935 -6 q 882 40 890 17 q 801 260 854 114 q 792 286 794 279 q 646 672 700 538 q 621 742 633 701 q 574 572 599 661 q 461 199 535 438 q 435 113 440 132 q 408 26 419 64 q 378 -10 401 1 q 329 -15 354 -22 q 325 -14 328 -14 q 293 2 307 -11 q 274 33 279 15 q 201 335 249 136 q 178 431 185 401 q 125 649 147 560 q 89 757 117 683 q 58 850 68 818 q 38 951 42 906 q 52 998 35 978 q 95 1020 69 1018 q 141 1006 121 1022 q 163 963 161 989 z "},"X":{"ha":1040,"x_min":64,"x_max":901,"o":"m 790 -4 q 590 261 697 111 q 479 421 540 332 q 321 197 393 300 q 272 136 303 172 q 269 133 271 135 q 267 129 267 131 q 263 126 265 129 q 261 122 261 124 q 213 64 228 85 q 183 8 192 33 q 151 -28 175 -17 q 103 -31 128 -39 q 67 1 78 -22 q 64 50 56 25 q 110 136 79 92 q 165 206 128 161 l 168 208 l 171 211 q 176 218 174 215 q 217 269 204 250 q 404 532 299 386 q 397 542 401 536 q 117 942 215 811 q 105 988 101 963 q 129 1030 108 1014 q 176 1042 150 1046 q 218 1017 201 1038 q 482 642 315 888 q 511 682 496 661 l 590 793 q 733 993 679 917 q 774 1018 749 1014 q 822 1008 800 1022 q 847 967 843 993 q 836 919 851 940 q 693 719 782 843 q 614 608 631 633 q 557 531 583 567 q 693 333 638 413 q 888 75 797 188 q 901 29 904 56 q 878 -13 899 3 q 833 -26 858 -29 q 790 -4 807 -24 z "},"Y":{"ha":1004,"x_min":71,"x_max":863,"o":"m 543 435 q 524 342 529 399 q 519 229 521 307 q 519 225 519 226 q 515 125 518 160 q 500 21 511 67 q 472 -17 494 -4 q 424 -24 450 -31 q 385 4 399 -18 q 378 51 372 26 q 390 133 388 86 q 393 228 393 165 q 393 231 393 229 q 399 354 394 314 q 410 426 403 393 q 403 440 407 432 q 379 493 394 458 l 378 494 q 365 522 375 501 l 356 544 q 347 561 350 556 q 344 567 346 564 q 268 686 314 621 q 179 803 240 725 q 82 931 113 886 q 71 978 67 951 q 97 1019 75 1004 q 144 1029 118 1033 q 185 1004 169 1025 q 278 881 214 963 l 279 879 q 371 760 340 801 q 456 628 421 689 q 469 596 458 622 q 471 593 471 596 q 510 654 489 624 q 574 738 535 689 q 592 760 581 747 q 595 765 592 761 q 601 772 599 768 q 606 778 604 775 l 608 781 q 688 881 661 844 q 746 981 725 935 q 781 1014 756 1004 q 829 1013 806 1024 q 862 978 853 1003 q 861 929 871 954 q 790 808 835 872 q 707 701 761 768 q 703 698 706 701 q 699 692 701 694 q 693 685 696 689 q 689 679 690 681 q 671 658 678 667 q 613 582 635 614 q 547 465 572 524 q 543 435 549 450 z "},"Z":{"ha":982,"x_min":25,"x_max":843,"o":"m 115 1010 q 200 1014 150 1014 q 226 1014 210 1014 q 260 1014 249 1014 q 406 1008 322 1014 q 501 1001 438 1006 q 726 988 660 989 q 728 989 728 988 l 729 989 q 736 990 733 989 q 751 990 744 990 q 806 960 788 989 q 814 904 824 935 q 807 890 811 897 q 799 878 804 885 q 781 858 792 869 q 733 810 765 842 q 731 807 732 808 q 717 793 726 803 q 698 775 707 783 q 689 765 689 767 q 674 751 679 756 q 669 746 671 749 q 393 382 639 710 q 218 146 285 236 q 214 139 215 143 q 278 140 242 140 q 457 136 336 140 q 468 136 461 136 q 665 131 611 131 q 732 135 708 132 q 749 138 743 136 q 794 144 769 150 q 832 119 818 139 q 843 73 847 99 q 818 32 839 47 q 747 10 794 15 q 667 6 717 6 q 464 10 610 4 q 453 10 457 10 q 278 15 333 15 q 167 8 197 15 l 164 8 l 161 7 q 149 4 154 4 q 131 0 139 1 q 88 -1 106 -4 q 49 17 65 3 q 25 79 19 42 q 42 115 28 94 q 58 140 47 124 q 117 219 79 168 q 293 457 183 311 q 572 826 539 788 q 600 856 578 833 q 611 867 601 857 q 492 875 569 869 q 397 882 429 881 q 260 888 318 888 q 224 888 249 888 q 200 888 207 888 q 131 885 157 889 q 84 898 104 882 q 60 940 64 914 q 73 987 57 967 q 115 1010 89 1007 z "},"[":{"ha":515,"x_min":64,"x_max":376,"o":"m 300 864 q 267 872 279 869 q 222 879 242 876 q 197 881 208 881 q 196 872 196 876 q 192 744 193 826 q 190 358 189 603 q 193 18 190 203 q 194 -149 194 -67 q 196 -156 196 -153 q 222 -156 203 -156 q 311 -157 279 -154 q 354 -179 338 -160 q 369 -225 371 -199 q 347 -268 367 -251 q 301 -283 326 -285 q 225 -282 275 -281 q 189 -282 201 -282 q 125 -278 153 -282 q 86 -258 101 -275 q 71 -217 71 -240 l 71 -215 l 71 -214 l 71 -212 q 69 -200 69 -207 q 69 -151 69 -176 q 67 17 68 -69 q 64 357 64 201 q 65 746 63 603 q 71 881 67 832 q 75 924 72 907 q 78 943 76 935 q 100 979 85 965 q 174 1007 128 1003 q 238 1004 200 1008 q 293 994 263 1001 q 329 986 307 992 q 368 958 354 981 q 376 910 382 936 q 347 872 369 885 q 300 864 325 858 z "},"\\":{"ha":586,"x_min":-54,"x_max":446,"o":"m 68 989 q 156 738 99 875 q 267 486 190 651 q 301 410 292 433 q 446 58 400 194 q 442 10 454 33 q 406 -22 431 -14 q 357 -18 381 -29 q 326 18 333 -7 q 188 357 282 149 q 153 433 176 381 q 39 689 75 601 q -54 956 -21 835 q -48 1003 -61 981 q -10 1033 -35 1026 q 38 1027 15 1040 q 68 989 61 1014 z "},"]":{"ha":439,"x_min":-4,"x_max":300,"o":"m 21 -188 q 31 -180 21 -188 q 67 -176 42 -172 q 129 -186 93 -181 q 158 -190 150 -190 q 175 -189 165 -190 q 167 267 175 -49 q 160 533 161 443 q 160 881 156 731 q 89 876 122 881 q 42 890 63 874 q 19 931 22 906 q 31 978 15 957 q 74 1001 47 999 q 235 1000 160 1013 q 274 976 258 996 q 286 931 289 956 q 286 922 288 926 q 285 536 281 757 q 292 271 286 446 q 300 -236 303 -74 q 285 -277 300 -260 q 249 -299 271 -294 q 224 -308 238 -306 q 150 -317 179 -318 q 108 -310 136 -315 q 50 -301 74 -304 q 9 -276 25 -297 q -3 -230 -7 -256 q 21 -188 0 -204 z "},"^":{"ha":779,"x_min":75,"x_max":638,"o":"m 75 433 q 132 583 93 504 q 206 719 156 633 q 243 785 232 767 q 260 817 253 801 q 307 903 275 846 q 335 951 325 933 q 344 968 342 963 q 350 975 349 972 q 357 983 354 981 q 375 996 365 992 q 406 1001 389 1003 q 451 979 433 1001 q 464 931 468 957 q 497 792 471 868 q 561 636 515 736 q 601 544 590 571 q 638 450 624 492 q 634 402 646 425 q 597 371 622 379 q 549 374 572 363 q 518 411 526 386 q 485 496 506 447 q 446 585 475 521 q 378 750 399 690 q 374 763 376 756 q 371 757 372 760 q 353 724 363 742 q 314 657 342 704 q 246 529 267 574 q 197 403 213 460 q 168 363 190 376 q 120 357 146 350 q 81 386 94 364 q 75 433 68 408 z "},"_":{"ha":956,"x_min":-53,"x_max":818,"o":"m 13 -79 q 354 -83 154 -85 q 532 -83 413 -83 q 754 -81 681 -81 q 799 -99 781 -81 q 818 -144 818 -118 q 799 -189 818 -171 q 754 -207 781 -207 q 533 -208 681 -207 q 354 -210 414 -210 q 7 -204 151 -211 q -37 -184 -19 -203 q -53 -139 -54 -165 q -33 -95 -51 -112 q 13 -79 -14 -78 z "},"`":{"ha":454,"x_min":54,"x_max":315,"o":"m 168 1028 q 297 863 240 919 q 315 817 315 843 q 297 773 315 792 q 253 754 279 754 q 208 772 226 754 q 64 958 142 839 q 54 1006 49 981 q 81 1047 60 1032 q 128 1056 103 1061 q 168 1028 154 1050 z "},"a":{"ha":904,"x_min":82,"x_max":767,"o":"m 540 360 q 264 247 358 325 q 208 179 222 214 q 203 140 197 156 q 221 119 206 128 q 288 111 246 107 q 539 226 396 121 q 540 351 538 269 q 540 360 540 354 m 93 558 q 177 681 115 625 q 318 765 239 738 q 476 782 401 796 q 621 692 568 767 q 664 538 657 642 q 665 360 668 483 q 665 349 665 353 q 665 264 664 293 q 675 254 669 260 q 688 210 690 235 q 669 168 686 186 q 674 133 671 149 q 692 85 681 97 q 703 79 696 79 q 748 60 729 79 q 767 16 767 42 q 748 -28 767 -10 q 703 -47 729 -47 q 593 6 636 -47 q 556 86 568 36 q 300 -14 417 -3 q 164 8 221 -21 q 82 104 100 40 q 91 226 64 163 q 183 344 118 290 q 540 488 311 449 q 539 529 540 508 q 519 618 533 597 q 456 658 496 651 q 360 647 413 665 q 267 592 308 628 q 213 517 225 556 q 181 481 204 493 q 132 478 157 469 q 96 510 107 488 q 93 558 85 533 z "},"b":{"ha":858,"x_min":50,"x_max":719,"o":"m 175 215 q 257 122 197 149 q 400 119 319 96 q 538 218 485 146 q 594 406 599 297 q 536 529 592 475 q 403 597 482 582 q 271 585 326 614 q 201 482 215 556 q 175 443 196 457 q 175 215 175 314 m 183 18 q 182 15 183 17 q 181 13 182 14 q 142 -29 172 -18 q 121 -32 132 -32 q 85 -21 101 -32 q 61 10 68 -10 q 56 28 57 21 q 53 36 54 33 q 51 44 53 40 q 51 54 51 49 q 54 68 51 61 q 53 75 53 72 q 50 178 51 114 q 50 197 50 188 q 50 221 47 210 q 50 472 49 331 q 64 988 53 881 q 88 1029 67 1013 q 134 1043 108 1046 q 176 1019 160 1040 q 189 974 193 999 q 178 675 182 910 q 213 697 194 688 q 428 721 308 746 q 624 619 543 697 q 719 410 715 531 q 639 142 725 256 q 438 0 560 39 q 206 7 313 -39 q 183 18 194 13 z "},"c":{"ha":794,"x_min":38,"x_max":651,"o":"m 535 489 q 429 610 496 589 q 300 586 369 628 q 185 456 225 540 q 161 272 140 365 q 249 126 183 172 q 375 93 303 88 q 483 140 442 100 q 515 219 522 175 q 527 267 511 246 q 569 291 543 288 q 615 279 594 294 q 640 238 636 264 q 571 47 656 128 q 386 -32 496 -22 q 176 24 268 -42 q 38 244 71 97 q 71 510 8 379 q 236 693 128 629 q 467 729 353 764 q 651 533 592 690 q 651 486 661 510 q 616 453 640 463 q 567 453 592 443 q 535 489 543 464 z "},"d":{"ha":822,"x_min":46,"x_max":683,"o":"m 654 97 q 678 59 672 82 q 671 15 683 36 q 633 -15 658 -7 q 586 -8 608 -22 q 543 36 560 6 q 531 68 536 50 q 372 -15 461 1 q 171 25 261 -37 q 46 222 75 90 q 65 517 11 378 q 221 714 115 644 q 446 760 332 789 q 543 710 499 746 q 543 714 543 713 q 558 971 550 874 q 580 1014 560 997 q 626 1028 600 1031 q 668 1006 651 1026 q 683 961 685 986 q 669 710 675 865 q 668 663 669 694 q 651 354 661 456 q 650 338 653 346 q 643 289 647 313 q 640 192 639 239 q 649 114 642 143 q 654 97 651 103 m 522 532 q 415 638 482 619 q 290 610 356 653 q 183 471 218 561 q 169 250 143 367 q 242 129 188 167 q 349 108 289 96 q 460 178 413 121 q 518 307 503 231 q 525 357 521 336 q 536 513 532 429 q 522 532 528 521 z "},"e":{"ha":846,"x_min":75,"x_max":707,"o":"m 564 431 q 563 435 563 433 q 558 451 560 447 q 499 574 547 535 q 396 601 457 607 q 276 551 331 596 q 196 435 218 506 q 318 435 240 438 q 332 435 324 435 q 438 435 403 433 q 494 432 449 435 q 538 431 519 431 q 564 431 551 431 m 182 308 q 210 228 188 264 q 350 124 254 154 q 513 122 440 96 q 582 208 575 147 q 605 251 585 235 q 651 265 625 268 q 693 242 676 263 q 707 196 710 222 q 660 80 700 129 q 557 6 621 31 q 311 4 444 -39 q 101 163 171 49 q 75 469 21 294 q 197 650 108 579 q 385 726 282 718 q 576 672 494 736 q 683 472 664 604 q 683 469 683 471 q 686 463 685 468 l 686 458 q 688 451 688 453 q 690 440 689 444 q 692 435 692 438 q 699 404 696 415 q 700 389 700 394 q 700 375 700 381 q 696 360 699 367 q 672 328 689 340 q 601 307 647 311 q 535 304 575 304 q 489 307 517 306 q 440 308 447 308 q 331 310 403 307 q 315 310 321 310 q 182 308 228 311 z "},"f":{"ha":549,"x_min":-24,"x_max":410,"o":"m 338 892 q 260 890 282 900 q 242 865 249 885 q 233 758 232 832 q 235 731 233 746 q 338 735 299 735 q 383 717 364 735 q 401 672 401 699 q 383 627 401 646 q 338 608 364 608 q 240 606 303 608 l 243 572 q 251 335 250 436 q 243 36 253 183 q 240 19 243 28 q 226 -5 236 6 q 203 -19 217 -15 q 182 -24 193 -24 q 163 -21 172 -24 q 119 28 126 -10 q 118 31 118 29 q 117 46 117 38 l 115 46 q 115 58 115 49 q 114 71 114 67 q 114 75 114 74 q 114 79 114 78 l 114 82 q 114 92 114 83 q 117 100 115 94 q 119 107 118 103 q 122 111 121 111 q 125 333 126 221 q 117 565 124 432 q 115 600 115 581 q 33 603 71 600 q -8 626 8 606 q -23 672 -25 646 q -1 715 -21 699 q 46 729 19 731 q 108 726 76 726 q 107 757 108 743 q 122 901 107 850 q 208 1006 144 976 q 357 1017 264 1029 q 398 992 382 1013 q 410 945 414 971 q 385 903 406 919 q 338 892 364 888 z "},"g":{"ha":817,"x_min":54,"x_max":675,"o":"m 540 519 q 440 624 499 599 q 319 615 382 649 q 211 494 251 579 q 179 275 165 397 q 196 226 182 257 q 236 158 213 188 q 356 107 292 93 q 486 210 443 128 q 536 413 526 283 q 540 519 540 461 m 675 486 q 667 399 668 460 q 669 261 667 361 q 672 143 672 186 q 664 -33 674 40 q 617 -194 651 -131 q 296 -315 525 -368 q 163 -260 207 -294 q 79 -146 119 -225 q 76 -98 68 -122 q 107 -62 83 -74 q 156 -58 131 -50 q 192 -90 181 -67 q 240 -161 219 -144 q 324 -192 263 -178 q 447 -192 401 -210 q 506 -135 483 -176 q 546 78 542 -68 q 383 -15 481 7 q 240 -1 308 -32 q 140 78 185 25 q 82 170 106 119 q 54 261 58 221 q 97 547 36 418 q 261 728 154 672 q 489 740 376 788 q 549 706 519 726 q 601 736 567 736 q 647 717 628 736 q 665 672 665 699 q 665 607 665 654 q 667 547 667 572 q 669 539 668 543 q 674 528 672 533 q 675 486 682 507 z "},"h":{"ha":822,"x_min":65,"x_max":683,"o":"m 204 964 q 190 749 190 874 q 193 660 192 707 q 306 732 246 707 q 476 750 396 768 q 628 638 571 728 q 683 460 676 561 q 674 288 688 396 q 671 268 672 281 q 658 144 660 183 q 669 42 657 83 q 665 -6 678 17 q 628 -37 653 -29 q 580 -32 603 -44 q 549 6 557 -19 q 533 147 531 67 q 546 283 535 193 q 549 304 547 297 q 557 451 561 400 q 522 569 553 521 q 449 628 492 617 q 354 615 407 636 q 263 553 306 594 q 201 468 221 513 q 211 263 210 335 q 203 42 213 135 q 179 -1 200 15 q 133 -14 158 -17 q 90 9 107 -11 q 78 56 74 29 q 85 260 86 142 q 76 465 83 331 q 75 481 75 474 q 75 483 75 482 q 74 507 74 499 q 65 749 65 663 q 79 982 64 882 q 104 1023 83 1007 q 151 1035 125 1039 q 192 1010 176 1031 q 204 964 207 989 z "},"i":{"ha":368,"x_min":75,"x_max":229,"o":"m 204 936 q 206 935 204 935 q 203 886 214 910 q 167 854 192 863 q 133 850 150 847 q 93 871 110 853 q 78 900 82 883 q 75 918 76 908 q 85 960 75 940 q 122 992 97 983 q 169 988 146 1000 q 204 936 201 972 m 201 701 q 229 353 233 565 q 224 218 228 307 q 219 38 219 94 q 201 -7 219 11 q 156 -25 182 -25 q 112 -7 131 -25 q 93 38 93 11 q 99 224 93 97 q 103 356 103 311 q 78 672 107 551 q 86 719 72 697 q 125 748 100 742 q 172 740 150 754 q 201 701 194 726 z "},"j":{"ha":354,"x_min":-65,"x_max":215,"o":"m 142 1001 q 169 992 157 1000 q 203 946 196 976 q 204 913 207 931 q 185 869 199 889 q 172 857 179 863 q 142 844 158 847 q 88 860 111 839 q 76 872 82 865 q 63 893 68 881 q 57 929 54 910 q 64 953 58 942 q 88 985 72 972 q 142 1001 111 1007 m 208 678 q 206 547 206 644 q 211 338 207 493 q 213 249 213 283 q 215 -43 217 58 q 208 -154 213 -111 q 186 -237 201 -211 q 69 -304 149 -301 q -36 -275 13 -306 q -65 -235 -58 -261 q -57 -187 -71 -210 q -18 -160 -43 -165 q 29 -168 7 -154 q 67 -178 46 -178 q 76 -176 72 -178 l 76 -175 q 79 -169 78 -174 q 83 -140 81 -158 q 89 -39 88 -103 q 88 246 92 58 q 85 333 86 281 q 81 546 81 492 q 83 690 79 651 q 106 733 86 717 q 152 747 126 750 q 194 724 178 744 q 208 678 211 703 z "},"k":{"ha":767,"x_min":60,"x_max":628,"o":"m 197 951 q 186 517 182 868 q 188 439 186 478 q 292 547 238 493 q 515 742 458 717 q 563 744 539 753 q 599 710 588 735 q 600 662 610 686 q 567 628 590 638 q 546 613 561 625 q 500 574 526 597 q 381 460 450 528 q 615 72 460 272 q 627 26 631 53 q 603 -16 624 0 q 557 -28 583 -32 q 515 -4 531 -25 q 288 361 374 178 q 194 256 217 285 q 192 251 193 254 q 203 44 197 108 q 189 -2 206 18 q 147 -24 172 -22 q 101 -10 121 -26 q 78 32 81 6 q 60 515 64 175 q 74 975 56 879 q 99 1015 78 1000 q 147 1025 121 1029 q 188 999 172 1021 q 197 951 203 978 z "},"l":{"ha":357,"x_min":78,"x_max":215,"o":"m 203 971 q 213 778 211 911 q 210 519 213 693 q 210 493 210 510 q 207 210 206 289 q 210 107 207 146 q 213 74 211 88 q 215 60 214 64 q 212 12 224 35 q 176 -19 200 -11 q 128 -16 151 -28 q 96 21 104 -4 q 81 208 82 63 q 83 496 81 289 q 83 522 83 513 q 86 776 86 693 q 78 954 85 901 q 91 1001 75 981 q 133 1026 107 1022 q 179 1013 158 1029 q 203 971 200 997 z "},"m":{"ha":1207,"x_min":63,"x_max":1068,"o":"m 575 635 q 594 656 585 646 q 743 735 661 721 q 925 723 851 753 q 1035 618 999 693 q 1068 476 1063 561 q 1064 329 1071 417 q 1057 260 1061 303 q 1047 143 1049 175 q 1050 64 1044 90 q 1042 17 1056 39 q 1002 -11 1028 -6 q 954 -3 976 -17 q 926 36 932 11 q 921 149 918 79 q 932 272 922 185 q 938 339 936 315 q 921 563 951 501 q 876 606 906 594 q 763 611 836 622 q 685 568 722 604 q 626 479 647 532 q 631 451 629 467 q 640 208 646 346 q 624 25 636 108 q 598 -15 619 0 q 551 -27 576 -31 q 510 -2 525 -24 q 499 44 494 19 q 514 214 510 121 q 507 435 519 340 q 454 589 490 544 q 419 614 438 608 q 363 610 397 621 q 206 446 263 579 q 200 436 204 440 q 203 381 201 408 q 211 28 211 174 q 193 -17 211 1 q 149 -36 175 -36 q 103 -17 122 -36 q 85 28 85 1 q 76 375 85 172 q 68 556 74 436 q 63 692 64 647 q 78 737 61 718 q 122 757 96 756 q 168 741 149 758 q 188 697 188 724 q 190 649 189 672 q 326 731 249 707 q 551 669 467 774 q 575 635 564 653 z "},"n":{"ha":831,"x_min":63,"x_max":692,"o":"m 194 411 q 194 385 194 399 q 225 42 197 167 q 217 -6 231 17 q 177 -33 203 -28 q 130 -25 151 -39 q 103 14 108 -11 q 68 383 72 151 q 68 475 68 414 q 63 688 67 619 q 79 733 61 714 q 123 754 97 753 q 168 738 149 756 q 189 694 188 721 q 190 669 190 682 q 200 678 196 674 q 438 742 299 760 q 653 576 592 722 q 692 314 692 483 q 690 210 693 276 q 692 54 688 94 q 678 8 694 28 q 635 -15 661 -12 q 590 -1 610 -18 q 567 42 569 15 q 565 213 561 90 q 567 313 567 279 q 536 528 565 457 q 421 617 504 607 q 281 581 338 628 q 226 515 247 553 q 204 447 204 478 q 194 411 206 428 z "},"o":{"ha":846,"x_min":42,"x_max":706,"o":"m 481 622 q 338 654 407 676 q 210 531 261 631 q 167 310 156 425 q 261 117 178 188 q 413 78 339 50 q 536 201 486 104 q 581 415 589 304 q 497 599 572 532 q 481 622 486 608 m 606 668 q 706 425 696 571 q 649 144 717 278 q 456 -42 575 3 q 179 21 314 -93 q 42 297 57 125 q 99 588 28 450 q 299 775 174 733 q 588 697 447 822 q 606 668 600 686 z "},"p":{"ha":860,"x_min":61,"x_max":718,"o":"m 190 276 q 210 244 204 264 q 263 159 221 200 q 360 97 304 118 q 464 86 415 76 q 547 135 514 94 q 593 293 582 179 q 589 485 601 392 q 517 593 579 557 q 368 624 454 631 q 233 572 285 617 q 193 465 186 529 q 186 428 196 446 q 189 344 188 389 q 190 276 190 313 m 71 -237 l 72 -233 q 75 -211 74 -225 q 75 -74 76 -160 q 68 194 74 -4 q 63 340 64 285 q 61 700 57 565 q 80 743 61 725 q 125 760 99 761 q 169 741 151 760 q 186 696 188 722 q 186 693 186 694 q 358 749 261 740 q 581 701 483 760 q 714 503 696 635 q 718 282 729 394 q 644 56 704 129 q 488 -39 582 -21 q 317 -21 404 -54 q 199 47 251 3 q 201 -71 200 -17 q 201 -168 201 -128 l 201 -169 q 203 -175 203 -174 q 204 -187 204 -182 q 204 -192 204 -190 q 204 -196 204 -193 q 203 -210 204 -201 q 197 -267 201 -228 q 176 -307 194 -290 q 135 -324 158 -324 q 129 -324 132 -324 q 90 -305 106 -321 q 72 -267 74 -289 q 71 -262 71 -265 q 71 -237 68 -250 z "},"q":{"ha":831,"x_min":14,"x_max":688,"o":"m 679 682 q 679 544 678 653 q 685 304 681 489 q 688 213 686 250 q 683 -267 697 -183 q 658 -307 679 -292 q 610 -317 636 -322 q 569 -292 585 -312 q 560 -244 554 -271 q 565 25 568 -190 q 472 -28 524 -8 q 276 -43 374 -67 q 93 81 168 -17 q 14 301 24 171 q 57 543 4 432 q 222 718 114 667 q 496 722 344 776 q 554 690 528 711 q 554 693 554 692 q 577 736 557 719 q 623 750 597 753 q 665 727 649 747 q 679 682 682 707 m 557 365 q 544 447 549 422 q 453 603 519 579 q 275 604 351 640 q 171 490 208 572 q 139 314 133 408 q 192 158 144 219 q 307 79 240 96 q 426 89 365 65 q 522 158 485 111 q 557 251 558 204 q 560 274 556 263 q 560 300 560 286 q 558 358 558 339 q 557 365 557 363 z "},"r":{"ha":592,"x_min":75,"x_max":453,"o":"m 75 47 l 75 49 q 75 64 75 53 q 75 79 75 75 q 75 83 75 82 q 75 87 75 86 q 75 88 75 88 q 75 90 75 89 q 76 94 75 92 q 76 107 76 100 q 77 139 76 115 q 78 185 78 163 q 78 210 78 208 q 81 443 81 350 q 75 693 82 596 q 91 739 74 719 q 134 760 108 758 q 179 745 160 763 q 201 701 199 728 q 204 653 203 678 q 383 718 274 706 q 429 705 408 721 q 453 663 450 689 q 439 616 456 636 q 397 593 422 596 q 281 553 324 585 q 208 451 238 521 q 207 449 208 450 q 207 446 207 447 q 207 443 207 444 q 204 207 207 349 q 203 183 204 206 q 203 137 203 161 q 201 104 203 113 q 201 32 201 56 q 183 -13 201 6 q 138 -32 164 -32 q 94 -13 113 -32 q 75 32 75 6 q 75 38 75 36 l 75 47 z "},"s":{"ha":774,"x_min":31,"x_max":635,"o":"m 501 549 q 474 608 504 585 q 369 638 433 638 q 251 607 301 639 q 188 513 199 572 l 188 511 l 189 511 q 199 504 192 508 q 306 465 225 488 q 365 449 351 453 q 457 418 421 433 q 543 374 508 399 q 635 188 643 303 q 536 8 625 69 q 351 -36 460 -43 q 167 19 253 -31 q 32 164 71 75 q 31 212 21 188 q 64 247 40 236 q 112 249 88 258 q 147 215 136 239 q 230 128 169 164 q 360 89 290 93 q 465 113 425 85 q 508 197 504 140 q 471 271 513 240 q 331 328 431 299 l 271 344 q 133 396 175 371 q 78 450 96 418 q 64 536 54 489 q 183 713 86 650 q 371 764 265 765 q 547 710 476 763 q 626 538 638 644 q 605 494 625 511 q 558 481 585 478 q 515 503 532 483 q 501 549 499 524 z "},"t":{"ha":544,"x_min":-43,"x_max":404,"o":"m 297 636 q 282 664 286 649 q 297 636 286 647 m 246 901 q 242 753 242 832 q 300 751 275 753 q 342 747 325 751 q 365 740 354 746 q 404 694 396 726 q 397 647 410 669 q 358 618 383 625 q 313 625 333 613 q 294 626 306 625 q 246 626 275 626 q 249 565 247 599 q 251 521 250 550 q 260 254 260 342 q 263 172 260 228 q 265 85 265 115 q 265 81 265 83 q 265 76 265 79 l 265 75 q 265 72 265 74 q 273 26 278 51 q 249 -12 268 1 q 217 -25 233 -24 q 172 -15 193 -28 q 150 8 158 -7 q 143 25 146 15 q 139 61 139 39 q 139 79 139 69 l 139 81 l 139 83 l 139 85 q 136 167 139 113 q 133 254 133 225 q 125 515 133 339 q 122 558 124 544 q 119 619 121 592 q 36 608 53 614 q -13 614 10 601 q -43 651 -36 626 q -37 699 -50 676 q 0 729 -25 722 q 117 746 31 738 q 119 908 115 833 q 140 952 121 935 q 186 968 160 969 q 230 947 213 967 q 246 901 247 928 z "},"u":{"ha":838,"x_min":78,"x_max":700,"o":"m 663 256 q 656 146 651 219 q 665 85 658 111 q 671 67 668 74 q 674 63 672 64 q 692 18 692 44 q 674 -26 692 -8 q 629 -44 656 -44 q 585 -26 603 -44 q 544 50 558 0 q 526 33 536 40 q 282 -24 422 -58 q 113 110 158 7 q 78 275 81 181 q 86 436 76 332 q 88 446 86 439 q 96 571 96 531 q 86 676 97 633 q 92 724 79 701 q 131 753 106 747 q 178 747 156 760 q 207 708 201 733 q 222 568 224 649 q 213 433 221 524 q 211 424 211 426 q 204 279 201 328 q 226 161 206 208 q 313 99 249 115 q 444 128 389 79 q 535 285 500 176 q 572 506 567 385 q 558 689 578 617 q 564 737 551 714 q 602 766 576 760 q 650 760 628 772 q 679 722 672 747 q 699 515 703 638 q 665 283 696 393 q 663 256 668 269 z "},"v":{"ha":792,"x_min":-4,"x_max":650,"o":"m 107 731 q 197 579 158 669 q 254 415 225 515 q 265 379 260 400 q 269 362 265 376 q 275 344 274 347 q 325 190 306 240 q 339 163 332 175 q 364 228 351 193 q 425 410 388 292 q 428 418 426 413 q 428 422 428 419 q 431 426 429 424 q 476 572 460 524 q 533 717 506 654 q 567 751 543 742 q 616 749 592 760 q 649 715 640 739 q 649 667 658 690 q 596 532 622 608 q 550 389 581 485 l 547 381 q 544 372 546 376 q 483 185 507 250 q 401 1 444 79 q 363 -29 388 -22 q 315 -24 338 -36 q 285 14 292 -11 q 210 143 243 63 q 154 310 186 199 q 149 327 153 313 q 144 344 144 342 q 135 379 139 365 q 82 529 107 472 q 11 649 50 601 q -4 694 -6 668 q 17 737 -3 719 q 63 752 38 754 q 107 731 89 750 z "},"w":{"ha":1108,"x_min":-1,"x_max":969,"o":"m 529 713 q 586 592 554 682 q 640 421 607 533 q 650 386 644 407 q 707 200 693 240 q 718 233 715 219 q 775 440 735 301 q 846 710 826 619 q 874 749 851 735 q 921 757 896 763 q 960 730 946 751 q 969 682 975 708 q 896 407 949 589 q 840 203 857 269 q 813 129 833 172 q 806 113 811 124 q 776 35 781 57 q 753 -7 774 8 q 706 -19 732 -22 q 664 6 681 -15 q 660 8 663 7 q 644 25 651 15 q 626 57 636 38 q 596 136 613 85 q 529 351 578 189 q 519 385 524 371 q 471 538 490 485 q 415 317 442 449 q 394 208 406 272 q 386 160 394 206 q 375 101 378 114 q 363 35 368 64 q 335 -6 357 8 q 288 -15 314 -19 q 281 -12 285 -14 q 238 13 254 -10 q 186 135 225 31 q 110 346 153 222 q 36 558 67 467 q -1 685 1 663 q 11 731 -4 710 q 53 755 26 751 q 100 742 79 758 q 124 701 121 726 q 125 694 124 699 q 132 672 128 686 q 156 599 140 644 q 228 388 186 507 q 275 257 253 318 q 292 342 283 304 q 406 708 340 578 q 442 740 417 732 q 490 738 467 749 q 493 735 492 736 q 529 713 515 731 z "},"x":{"ha":785,"x_min":36,"x_max":647,"o":"m 135 742 q 203 672 171 717 q 249 597 222 646 q 253 589 250 596 q 258 581 257 582 q 296 518 282 538 q 321 485 308 503 q 517 742 400 594 q 560 765 533 761 q 606 751 586 768 q 629 709 626 735 q 615 663 632 683 q 397 376 483 497 q 429 331 422 340 q 628 79 549 160 q 647 35 647 61 q 628 -10 647 8 q 584 -28 610 -28 q 539 -10 558 -28 q 325 258 451 78 q 321 265 324 261 q 153 -18 218 113 q 116 -50 140 -42 q 68 -47 92 -58 q 36 -10 44 -35 q 40 39 28 15 q 243 376 117 193 q 194 443 217 414 q 147 519 176 469 q 143 528 147 521 q 139 536 139 535 q 63 638 93 617 q 37 678 42 653 q 47 726 32 704 q 87 752 61 747 q 135 742 113 757 z "},"y":{"ha":807,"x_min":14,"x_max":664,"o":"m 131 721 q 288 339 194 586 q 361 144 324 244 q 401 263 381 197 q 442 392 418 315 q 451 421 443 394 q 468 475 460 447 q 479 514 476 503 q 547 708 522 651 q 581 742 557 733 q 630 742 606 751 q 664 708 654 732 q 663 660 674 683 q 600 476 640 608 q 588 438 597 465 q 572 384 579 410 q 563 354 564 358 q 521 224 539 278 q 400 -90 457 26 q 233 -303 321 -254 q 157 -328 199 -322 q 106 -326 129 -332 q 47 -286 68 -318 q 40 -238 35 -264 q 68 -200 46 -212 q 140 -203 106 -176 q 171 -193 158 -201 q 288 -35 224 -164 q 290 -28 289 -32 q 283 -15 286 -22 q 171 294 235 126 q 17 667 78 536 q 14 715 6 690 q 46 751 22 740 q 94 753 69 763 q 131 721 119 744 z "},"z":{"ha":801,"x_min":24,"x_max":664,"o":"m 75 721 q 389 740 197 743 q 461 739 414 740 q 578 738 539 738 q 622 719 603 738 q 640 675 640 700 q 633 647 640 660 q 625 626 632 636 q 507 472 585 567 l 365 303 q 294 218 325 254 q 217 118 250 164 q 221 118 218 118 q 340 114 260 118 q 471 108 429 110 q 592 117 540 108 q 639 104 618 119 q 663 63 660 89 q 651 16 667 38 q 610 -8 636 -6 q 471 -17 549 -17 q 335 -12 425 -17 l 333 -12 q 218 -8 256 -8 q 111 -11 157 -7 q 85 -8 97 -12 q 60 1 71 -7 q 33 41 39 15 q 42 88 28 67 q 197 297 99 175 q 268 383 228 335 q 410 553 379 517 q 458 613 438 586 q 388 614 411 614 q 99 596 207 617 q 51 606 72 592 q 24 647 29 621 q 35 694 19 672 q 75 721 50 715 z "},"{":{"ha":618,"x_min":-43,"x_max":476,"o":"m 403 906 q 367 899 381 907 q 340 869 354 892 q 290 706 318 828 q 286 691 289 703 q 283 676 283 679 q 276 647 279 660 q 207 446 246 515 q 167 386 189 413 q 207 329 190 364 q 243 222 228 288 q 265 107 253 185 q 267 103 265 104 q 289 -11 279 25 q 317 -93 301 -65 q 343 -121 331 -115 q 394 -114 361 -126 q 443 -115 419 -104 q 476 -149 467 -125 q 474 -198 485 -174 q 440 -231 464 -222 q 303 -240 363 -260 q 207 -154 244 -219 q 165 -42 183 -111 q 142 81 156 -1 q 142 86 142 82 q 121 193 129 160 q 94 272 110 244 q 71 303 83 296 q 38 303 60 308 q 21 300 29 300 q -17 313 0 300 q -40 346 -35 325 q -43 363 -43 354 q -30 401 -43 383 q 3 424 -17 418 q 97 506 61 440 q 154 676 126 561 q 160 704 157 688 q 164 719 161 707 q 167 733 167 731 q 193 836 182 800 q 232 932 210 893 q 415 1031 296 1043 q 458 1008 442 1028 q 472 962 475 988 q 449 919 469 936 q 403 906 428 903 z "},"|":{"ha":361,"x_min":71,"x_max":222,"o":"m 213 960 q 197 599 190 847 q 204 432 199 536 q 211 254 210 296 q 217 169 211 231 q 217 160 217 164 q 221 72 221 101 q 221 44 222 57 q 222 32 222 39 q 215 -4 222 21 q 193 -38 210 -25 q 154 -51 176 -51 q 139 -49 147 -51 q 105 -26 118 -43 q 92 13 92 -10 q 92 19 92 15 q 92 26 92 22 q 96 47 92 38 q 96 58 96 49 q 96 69 96 67 q 92 151 94 96 q 90 161 90 156 q 85 251 86 225 q 78 426 83 292 q 71 596 72 531 q 89 985 64 857 q 116 1024 94 1010 q 163 1034 138 1039 q 203 1007 189 1029 q 213 960 218 985 z "},"}":{"ha":636,"x_min":-14,"x_max":497,"o":"m 79 1036 q 271 860 217 976 q 303 753 292 814 q 315 646 308 717 q 333 506 325 551 q 407 438 344 454 q 432 429 411 436 q 447 425 442 426 q 451 424 450 424 q 454 422 454 424 q 457 422 456 422 q 463 419 458 421 q 471 414 465 418 q 476 410 474 413 q 485 401 479 407 q 490 393 488 397 q 496 378 493 386 q 497 358 497 369 q 490 335 496 346 q 463 301 482 317 q 438 286 453 294 l 413 272 q 388 257 397 264 q 339 214 349 233 q 317 106 319 174 q 315 53 315 89 q 313 -42 315 -10 q 283 -144 306 -100 q 64 -299 228 -251 q 17 -293 39 -306 q -13 -256 -6 -281 q -8 -208 -21 -231 q 31 -178 4 -185 q 129 -133 93 -160 q 171 -87 157 -114 q 188 -28 183 -64 q 190 53 190 -3 q 190 111 189 92 q 226 269 194 206 q 271 328 242 300 q 297 349 283 339 q 210 481 226 397 q 190 633 200 532 q 178 731 185 699 q 156 807 171 776 q 29 921 122 879 q -5 956 4 932 q -3 1004 -14 981 q 31 1038 7 1028 q 79 1036 56 1047 z "},"~":{"ha":975,"x_min":-19,"x_max":833,"o":"m -19 233 q 161 433 15 410 q 285 429 214 442 q 406 401 322 422 q 444 392 431 394 q 615 372 558 364 q 717 453 682 383 q 753 485 729 476 q 801 481 778 493 q 833 444 825 469 q 829 397 842 419 q 635 249 765 269 q 522 247 585 240 q 415 269 478 253 q 374 279 400 272 q 264 304 296 299 q 182 308 213 314 q 138 286 153 304 q 104 208 114 263 q 77 167 99 182 q 30 158 56 153 q -10 185 4 164 q -19 233 -25 207 z "},"":{"ha":457,"x_min":122,"x_max":313,"o":"m 122 640 q 122 678 119 660 q 154 738 129 713 q 228 767 185 768 q 313 708 292 763 q 310 631 326 672 q 274 576 297 599 q 239 556 257 561 q 179 560 207 546 q 129 608 142 578 q 122 640 122 624 m 288 453 q 268 65 274 307 q 267 -240 265 -74 q 248 -285 267 -267 q 203 -304 229 -304 q 161 -287 179 -304 q 140 -247 143 -271 q 140 -243 140 -246 q 139 -228 139 -235 q 139 -225 139 -226 l 139 -225 q 139 -210 139 -217 q 140 -193 139 -197 q 140 -187 140 -189 q 140 -183 140 -185 l 140 -183 q 140 -181 140 -182 q 143 68 140 -50 q 163 464 147 315 q 184 507 164 490 q 231 521 204 524 q 274 498 257 518 q 288 453 290 478 z "},"":{"ha":881,"x_min":68,"x_max":740,"o":"m 231 161 q 311 406 263 264 q 335 476 322 440 q 392 635 360 547 q 365 626 378 632 q 242 511 289 594 q 193 285 186 414 q 231 161 197 215 m 168 -128 q 190 17 167 -81 q 167 39 178 28 q 68 278 76 136 q 132 574 58 444 q 317 742 201 694 q 438 765 376 767 q 483 896 471 858 q 515 933 492 921 q 563 936 539 944 q 599 905 588 928 q 603 857 611 882 q 560 731 590 818 q 699 529 661 671 q 692 482 706 504 q 653 453 679 460 q 606 459 628 446 q 576 497 583 472 q 515 608 557 571 q 454 436 479 508 q 431 365 442 399 q 336 71 369 188 q 393 54 364 58 q 529 78 469 40 q 618 207 596 118 q 647 247 625 233 q 694 253 669 260 q 733 225 719 247 q 740 176 747 203 q 594 -31 706 36 q 371 -71 494 -92 q 304 -53 338 -64 q 294 -125 294 -103 q 277 -170 294 -151 q 233 -190 260 -189 q 188 -172 207 -190 q 168 -128 169 -154 z "},"":{"ha":867,"x_min":33,"x_max":729,"o":"m 249 626 q 251 621 250 624 q 254 617 253 618 q 260 607 257 611 q 278 571 269 586 q 310 572 293 572 q 556 550 493 576 q 591 517 581 540 q 592 469 601 493 q 558 434 582 444 q 510 433 533 424 q 503 436 507 435 q 486 439 496 438 q 439 443 467 442 q 321 446 388 447 q 325 422 324 435 q 319 317 331 374 q 294 225 313 283 q 282 186 286 197 q 279 176 281 182 q 386 132 328 167 q 593 158 501 67 q 638 176 611 176 q 682 158 664 176 q 700 114 700 140 q 682 69 700 88 q 511 -20 604 -8 q 324 24 418 -32 q 242 56 274 51 q 235 56 239 56 q 229 43 232 49 q 190 -10 211 8 q 153 -32 174 -26 q 97 -25 124 -39 q 61 22 67 -11 q 64 58 57 40 q 79 89 68 74 q 86 99 82 94 q 97 111 90 104 q 99 114 97 113 l 100 115 q 139 153 118 138 q 161 222 150 183 q 175 264 165 233 q 196 342 190 315 q 200 408 203 379 q 194 439 197 424 q 185 439 189 439 q 139 432 158 436 q 124 428 129 431 q 117 426 118 426 q 69 425 93 415 q 34 459 44 435 q 33 508 24 483 q 67 542 43 532 q 142 560 92 553 l 140 561 q 138 567 139 564 q 128 586 132 578 q 107 628 115 610 q 81 765 75 701 q 151 922 88 843 q 378 1028 239 1028 q 620 938 521 1028 q 729 710 719 849 q 713 664 731 683 q 669 643 696 644 q 624 659 643 642 q 603 701 604 676 q 535 847 597 790 q 378 903 472 903 q 250 842 299 903 q 206 753 210 793 q 222 678 203 722 q 239 644 229 664 q 249 626 243 638 z "},"":{"ha":874,"x_min":32,"x_max":735,"o":"m 144 789 q 147 786 146 788 q 200 735 165 761 l 201 733 q 217 746 208 740 q 454 774 331 821 q 506 753 485 776 q 522 740 510 750 q 543 726 535 732 q 638 828 582 792 q 684 838 658 843 q 724 810 710 832 q 734 763 739 789 q 707 724 729 738 q 639 639 668 697 q 686 551 672 599 q 649 331 719 444 q 640 318 644 325 q 701 246 675 285 q 711 198 717 224 q 684 158 706 172 q 637 149 663 143 q 597 175 611 154 q 553 228 578 204 q 368 188 476 179 q 201 235 271 196 q 163 175 178 208 q 126 143 151 151 q 78 146 101 135 q 46 181 54 157 q 49 229 38 206 q 108 321 72 281 q 81 554 43 424 q 118 639 93 599 q 47 708 75 674 q 44 713 46 710 q 33 759 29 733 q 57 801 36 785 q 103 813 78 817 q 144 789 129 810 m 415 654 q 288 640 349 682 q 261 619 274 632 q 254 610 258 614 q 242 599 249 603 q 201 519 214 563 q 215 389 179 443 q 379 314 258 324 q 473 327 436 308 q 542 397 510 346 q 565 515 582 463 q 547 553 560 533 q 542 554 544 553 q 499 603 506 565 q 451 636 483 615 q 432 650 438 646 q 415 654 424 651 z "},"":{"ha":881,"x_min":4,"x_max":743,"o":"m 53 649 q 68 651 60 650 q 149 656 96 656 q 22 885 38 846 q 23 933 13 908 q 58 966 33 957 q 106 965 82 975 q 140 931 131 954 q 275 689 153 897 q 369 535 331 596 q 379 519 374 526 q 565 839 440 632 l 593 885 q 619 931 610 911 q 659 959 633 953 q 707 951 685 965 q 735 913 729 938 q 728 865 742 888 q 700 819 717 847 q 674 774 679 785 q 610 667 636 713 q 614 667 611 667 q 664 669 649 668 q 672 671 668 669 q 718 658 697 674 q 742 616 739 642 q 730 569 746 590 q 688 546 714 549 q 676 544 682 544 q 618 540 657 542 q 558 538 578 539 q 535 539 546 536 q 475 432 503 482 q 669 433 597 433 q 715 415 696 433 q 733 371 733 397 q 715 326 733 344 q 669 308 696 308 q 443 304 594 308 q 431 304 435 304 q 415 24 415 164 q 397 -22 415 -3 q 353 -40 379 -40 q 308 -22 326 -40 q 289 24 289 -3 q 303 301 289 163 q 106 303 192 300 q 61 322 79 303 q 44 367 43 340 q 64 411 44 393 q 108 428 83 429 q 289 428 189 426 q 263 467 278 443 q 222 533 244 496 q 150 531 197 529 q 88 526 107 531 q 79 525 83 526 q 31 534 53 519 q 4 574 10 549 q 13 622 -1 600 q 53 649 26 643 z "},"":{"ha":371,"x_min":82,"x_max":232,"o":"m 210 981 q 217 793 203 917 q 218 779 217 789 q 229 619 229 674 q 211 574 229 593 q 167 556 193 556 q 122 574 140 556 q 104 619 104 593 q 93 765 104 667 q 92 779 92 775 q 82 885 85 844 q 85 994 79 944 q 108 1037 88 1021 q 155 1050 129 1053 q 197 1027 181 1047 q 210 981 213 1007 m 213 358 q 214 275 211 322 q 222 185 215 246 q 224 169 224 175 q 232 35 232 85 q 214 -10 232 8 q 169 -29 196 -29 q 125 -10 143 -29 q 107 35 107 8 q 99 156 107 78 q 97 171 97 161 q 88 267 90 235 q 88 367 85 322 q 109 410 89 393 q 155 426 129 428 q 198 404 181 424 q 213 358 215 385 z "},"":{"ha":874,"x_min":61,"x_max":735,"o":"m 510 740 q 429 838 481 807 q 338 857 386 863 q 269 826 294 853 q 251 772 247 804 q 315 678 257 733 q 467 557 358 635 q 586 468 554 493 q 686 372 651 415 q 735 250 736 311 q 668 119 735 178 q 599 71 640 93 q 626 -92 631 3 q 536 -265 622 -203 q 364 -312 465 -317 q 190 -254 267 -308 q 86 -92 104 -193 q 96 -45 81 -67 q 137 -19 111 -24 q 183 -29 163 -14 q 210 -69 204 -44 q 264 -152 218 -119 q 369 -186 310 -185 q 463 -162 426 -189 q 500 -86 499 -137 q 457 56 504 8 q 403 94 438 75 q 326 129 378 107 q 320 131 325 129 q 315 133 315 132 q 304 138 308 136 q 215 179 249 161 q 128 243 164 208 q 62 377 72 299 q 85 527 51 456 q 183 635 118 599 q 126 757 135 696 q 173 908 115 844 q 324 982 231 972 q 493 946 414 993 q 625 789 581 894 q 626 741 636 765 q 592 706 617 717 q 544 706 568 696 q 510 740 519 715 m 274 536 q 209 492 233 529 q 186 408 185 454 q 217 332 188 363 q 351 254 256 294 q 363 250 357 253 q 368 247 364 249 q 374 244 372 246 q 461 206 432 221 q 517 169 493 189 l 518 171 q 585 214 561 193 q 610 250 610 235 q 588 294 610 267 q 508 369 563 326 q 393 454 478 393 q 282 539 319 508 q 274 536 278 538 z "},"":{"ha":565,"x_min":14,"x_max":425,"o":"m 26 853 q 18 875 21 863 q 14 915 13 893 q 56 990 18 961 q 108 1008 79 1007 q 161 990 136 1008 q 200 938 190 968 q 199 876 210 907 q 143 811 185 835 q 97 797 119 797 q 56 810 74 797 q 26 853 33 826 m 238 890 q 260 961 235 932 q 328 993 286 990 q 406 961 375 996 q 425 876 436 926 q 394 824 419 849 q 356 796 376 807 q 294 783 324 779 q 244 817 263 789 q 233 867 229 839 q 238 890 235 879 z "},"":{"ha":1175,"x_min":-28,"x_max":1036,"o":"m 682 857 q 547 896 624 890 q 390 878 471 901 q 238 804 306 854 q 136 690 171 754 q 99 476 94 610 q 147 258 103 347 q 321 125 194 163 q 592 121 446 88 q 826 239 738 153 q 911 447 918 328 q 867 624 904 536 q 769 769 829 711 q 750 786 764 776 q 743 792 749 786 l 742 792 q 707 821 719 808 q 682 857 692 838 m 789 925 q 793 917 790 921 q 818 893 796 910 l 818 892 q 826 886 824 888 q 858 858 846 871 q 981 675 933 783 q 1036 456 1029 567 q 915 149 1049 279 q 619 -3 800 38 q 285 4 442 -42 q 35 201 107 57 q -28 474 -24 315 q 25 750 -33 639 q 159 903 71 838 q 357 999 247 968 q 574 1019 465 1031 q 765 953 683 1007 q 789 925 781 943 m 640 600 q 572 676 628 654 q 468 665 515 699 q 390 549 411 624 q 393 408 371 476 q 458 325 413 346 q 589 335 510 300 q 636 367 617 349 q 660 401 656 385 q 689 440 667 426 q 736 447 711 454 q 775 418 761 440 q 782 371 789 396 q 724 275 769 319 q 640 221 688 243 q 404 211 508 160 q 274 369 310 257 q 269 581 240 472 q 394 767 301 700 q 503 809 443 803 q 618 793 563 815 q 711 727 672 771 q 763 628 750 683 q 756 580 769 601 q 716 552 742 558 q 668 560 690 546 q 640 600 646 574 z "},"":{"ha":665,"x_min":28,"x_max":525,"o":"m 157 663 q 161 663 158 663 q 246 690 188 664 q 264 699 258 696 q 304 714 286 708 q 303 728 303 721 q 231 707 279 728 q 221 701 228 706 q 182 685 194 690 q 157 663 165 679 m 54 900 q 168 1047 75 1006 q 290 1065 236 1078 q 376 999 344 1053 q 410 906 399 963 q 422 810 417 869 q 425 774 422 800 q 436 675 431 700 q 481 678 458 685 q 517 651 504 672 q 525 603 531 629 q 497 564 519 578 q 399 542 444 531 q 351 569 371 549 q 335 592 342 579 q 315 583 326 589 q 299 575 310 581 q 239 551 261 558 q 164 536 200 538 q 60 571 99 535 q 28 667 21 610 q 63 748 33 710 q 136 803 93 786 q 169 817 147 807 q 181 822 176 819 q 258 849 228 842 q 290 853 275 853 q 269 933 283 911 q 260 943 264 942 q 250 943 257 944 q 221 933 238 940 q 191 912 200 924 q 178 875 182 900 q 151 835 172 850 q 103 826 129 821 q 63 853 78 831 q 54 900 49 875 z "},"":{"ha":781,"x_min":93,"x_max":643,"o":"m 225 379 q 228 375 226 376 q 269 335 239 361 q 311 296 300 308 q 350 246 339 269 q 354 197 363 222 q 322 161 346 172 q 274 158 299 150 q 238 189 249 165 q 236 192 238 190 q 233 194 235 193 q 222 207 229 200 q 186 240 213 217 q 133 292 150 272 q 108 328 117 310 q 93 378 94 353 q 149 481 90 439 q 325 571 249 549 q 373 566 350 578 q 403 528 396 554 q 397 480 410 503 q 360 450 385 457 q 225 379 304 433 m 626 489 q 576 435 604 464 l 572 431 q 565 423 569 428 q 556 413 561 418 q 546 402 550 407 q 539 396 542 397 q 518 371 525 379 l 518 369 q 525 361 521 365 q 615 275 544 336 q 637 233 635 258 q 622 187 639 207 q 579 165 606 167 q 533 181 553 163 q 428 281 454 247 q 397 331 406 307 q 393 393 386 361 q 415 443 397 418 q 447 481 426 458 q 486 521 454 489 q 532 572 511 549 q 575 593 549 592 q 621 578 601 594 q 642 535 640 561 q 626 489 644 508 z "},"":{"ha":946,"x_min":18,"x_max":799,"o":"m 774 496 q 789 404 776 472 q 799 349 796 371 q 797 174 815 240 q 767 136 790 149 q 719 131 744 124 q 681 160 694 138 q 676 208 668 183 q 675 329 688 247 q 665 382 671 349 q 658 421 661 407 q 550 408 610 411 q 375 417 488 407 q 358 418 369 417 q 214 426 258 425 q 96 415 142 426 q 48 423 71 410 q 19 461 25 436 q 26 509 13 486 q 65 538 40 532 q 215 553 126 553 q 368 543 264 551 q 385 542 379 542 q 546 535 492 533 q 672 556 625 538 q 732 550 704 568 q 774 496 771 536 z "},"":{"ha":1167,"x_min":22,"x_max":1024,"o":"m 419 678 q 418 654 419 667 q 414 539 415 608 q 425 542 418 540 q 518 561 483 553 q 585 583 560 572 q 607 596 599 590 q 610 597 608 597 q 601 608 607 603 q 567 638 589 621 q 475 675 528 665 q 419 678 444 681 m 286 253 q 288 511 282 300 q 293 660 289 601 q 296 711 294 693 q 299 729 297 722 q 308 760 303 753 q 332 779 313 768 q 497 799 400 817 q 639 740 579 783 q 728 643 707 692 q 717 528 756 581 q 661 481 696 501 q 749 363 711 431 q 792 243 786 296 q 785 208 793 225 q 899 431 881 296 q 844 696 919 574 q 606 876 764 829 q 590 872 599 874 q 347 789 449 844 q 194 656 244 733 q 228 251 86 490 q 443 103 313 108 q 744 176 625 94 q 735 175 739 175 q 688 188 708 172 q 665 231 668 204 q 615 340 661 272 q 532 424 568 407 q 519 432 525 426 q 447 418 493 426 q 417 411 424 413 q 411 410 414 410 q 411 264 410 289 q 397 217 414 238 q 355 195 381 197 q 309 210 329 193 q 286 253 289 226 m 642 997 q 953 761 847 936 q 1024 413 1050 600 q 850 99 997 218 q 438 -24 689 -35 q 247 42 332 -19 q 119 186 174 94 q 23 475 31 338 q 89 725 15 613 q 278 895 154 826 q 568 996 401 964 q 599 993 583 999 q 642 997 619 1003 z "},"":{"ha":624,"x_min":-51,"x_max":485,"o":"m -1 960 q 244 974 93 979 q 299 971 263 972 q 422 967 382 967 q 467 948 449 967 q 485 903 485 929 q 467 859 485 878 q 422 840 449 840 q 292 844 379 840 q 239 847 257 847 q 24 836 103 853 q -24 846 -1 832 q -51 885 -46 860 q -42 933 -56 911 q -1 960 -28 954 z "},"":{"ha":635,"x_min":53,"x_max":482,"o":"m 278 999 q 317 996 297 1004 q 474 858 429 951 q 482 681 515 771 q 361 551 449 590 q 156 550 268 510 q 53 669 78 578 q 54 822 33 740 q 128 956 75 907 q 278 999 193 1017 m 254 874 q 214 864 232 881 q 176 792 188 839 q 175 703 164 742 q 199 668 182 674 q 310 667 263 646 q 364 724 349 683 q 360 804 379 765 q 285 874 339 847 q 254 874 269 871 z "},"":{"ha":933,"x_min":29,"x_max":794,"o":"m 103 124 q 260 135 172 133 q 357 136 301 136 q 343 168 346 150 q 336 375 329 251 q 338 406 336 390 q 101 385 196 397 q 54 397 75 381 q 30 438 33 413 q 42 485 26 464 q 83 510 58 506 q 346 532 190 524 q 347 571 346 551 q 339 689 347 638 q 350 736 335 715 q 391 761 365 757 q 438 751 417 765 q 463 710 458 736 q 472 568 474 647 q 472 536 472 551 q 739 525 649 540 q 781 499 765 521 q 792 452 796 478 q 766 411 788 426 q 719 401 744 396 q 464 411 636 414 q 461 368 463 386 q 467 188 456 258 q 451 135 472 157 q 572 136 525 135 q 722 147 657 138 q 769 135 749 151 q 794 94 790 119 q 782 47 797 68 q 740 22 767 26 q 575 10 667 13 q 414 10 521 8 l 411 10 q 263 10 311 11 q 119 -1 182 7 q 72 12 93 -4 q 48 53 51 28 q 60 100 44 79 q 103 124 76 121 z "},"":{"ha":631,"x_min":-32,"x_max":492,"o":"m 17 794 q 101 938 25 886 q 247 975 167 981 q 382 911 335 969 q 403 740 438 840 q 324 608 381 674 q 250 535 294 574 q 354 521 293 532 l 401 513 q 438 507 425 508 q 478 483 463 504 q 492 437 494 463 q 468 395 489 411 q 421 382 447 379 q 381 389 407 383 q 332 397 344 394 q 231 410 272 407 q 82 382 110 419 q 32 356 64 356 q -6 368 11 356 q -32 419 -32 388 q -19 457 -32 440 q 25 507 -1 481 q 81 557 47 528 q 110 581 86 561 q 138 604 133 601 q 229 692 197 656 q 285 781 269 738 q 290 817 292 803 q 283 832 289 826 q 239 850 271 847 q 172 832 201 851 q 142 782 144 814 q 119 740 139 757 q 73 726 99 724 q 31 748 47 728 q 17 794 14 768 z "},"":{"ha":564,"x_min":-18,"x_max":415,"o":"m -10 800 q 110 975 15 925 q 285 988 193 1021 q 361 941 329 972 q 406 869 393 910 q 349 682 436 772 q 339 674 343 678 q 396 613 374 647 q 415 465 443 539 q 278 338 386 386 q 144 310 214 310 q 14 342 75 311 q -17 378 -10 354 q -14 426 -25 403 q 22 458 -3 450 q 71 454 47 467 q 226 453 144 418 q 281 486 261 468 q 297 508 293 497 q 290 544 303 524 q 243 585 274 571 q 228 590 235 589 q 199 583 214 583 q 146 611 165 583 q 136 646 136 626 q 164 699 136 679 q 236 750 224 739 q 243 754 240 751 q 258 771 249 760 q 285 811 279 792 q 286 832 289 822 q 243 869 278 857 q 169 864 204 883 q 114 775 128 842 q 87 735 108 750 q 40 726 65 721 q -1 752 14 731 q -10 800 -15 774 z "},"":{"ha":479,"x_min":89,"x_max":339,"o":"m 94 858 q 164 958 107 885 q 208 1015 190 994 q 232 1038 222 1029 q 258 1050 244 1047 q 294 1050 276 1056 q 332 1021 318 1043 q 339 974 346 999 q 310 935 332 949 q 303 931 307 932 l 301 931 q 264 883 288 914 q 206 800 214 817 q 169 769 193 776 q 121 773 144 761 q 90 810 97 785 q 94 858 82 835 z "},"":{"ha":889,"x_min":-8,"x_max":750,"o":"m 279 829 q 196 793 235 814 q 128 717 150 769 q 115 607 106 665 q 167 514 126 550 q 275 471 208 478 q 279 829 279 724 m 686 871 q 667 871 679 871 l 656 872 q 643 872 646 872 q 638 872 640 872 q 633 689 635 789 q 631 442 632 606 q 628 117 629 226 q 614 -212 624 -64 q 593 -255 613 -237 q 547 -271 574 -272 q 503 -250 521 -269 q 489 -204 486 -231 q 501 119 497 -60 q 506 442 504 228 q 507 690 506 607 q 511 872 508 789 q 493 871 503 871 q 403 860 446 868 q 406 843 406 853 q 398 307 406 704 q 386 -226 390 -90 q 366 -270 385 -253 q 321 -287 347 -287 q 277 -267 294 -286 q 260 -222 260 -247 q 272 344 265 -75 q 83 419 158 353 q -8 585 11 485 q 13 771 -26 682 q 136 904 53 860 q 264 957 196 936 q 485 996 365 988 q 649 997 557 1001 q 661 997 651 997 q 672 997 671 997 q 688 996 683 996 q 732 977 714 996 q 750 932 750 958 q 731 888 750 906 q 686 871 713 869 z "},"":{"ha":413,"x_min":46,"x_max":275,"o":"m 213 892 q 210 889 211 890 q 204 879 207 885 q 189 815 193 857 q 221 800 207 810 q 260 746 253 779 q 250 686 267 714 q 242 665 247 675 q 196 622 226 639 q 139 608 168 608 q 67 650 90 610 q 46 718 47 686 q 63 779 43 753 q 64 829 61 811 q 90 933 71 892 q 133 989 107 968 q 211 1017 167 1017 q 256 999 238 1017 q 275 954 275 981 q 256 910 275 928 q 213 892 238 892 z "},"":{"ha":424,"x_min":79,"x_max":283,"o":"m 107 844 q 79 897 83 867 q 93 961 74 932 q 113 992 100 978 q 150 1013 129 1006 q 163 1019 156 1017 q 217 1026 190 1031 q 268 993 249 1019 q 283 913 292 960 q 267 864 279 886 q 271 807 271 844 q 247 706 271 763 q 210 649 232 669 q 163 626 189 629 q 108 636 136 622 q 79 674 86 649 q 85 722 72 700 q 131 753 100 749 l 131 754 q 142 788 138 768 q 143 801 143 796 q 144 807 144 804 q 144 818 144 814 q 122 829 132 822 q 107 844 114 836 z "},"":{"ha":624,"x_min":26,"x_max":482,"o":"m 151 813 q 165 808 158 811 q 199 786 185 801 q 211 740 214 767 q 208 726 211 733 q 199 689 208 708 q 149 635 181 651 q 88 626 119 618 q 36 664 56 633 q 26 715 21 688 q 26 719 26 717 q 29 735 28 726 q 26 744 28 739 q 44 883 13 813 q 125 989 72 946 q 172 1001 146 1004 q 214 978 197 999 q 228 932 231 958 q 204 890 225 906 q 151 813 164 858 m 397 813 q 404 808 401 810 q 444 738 443 785 q 422 671 446 700 q 358 636 397 642 q 310 642 332 632 q 274 656 289 644 q 246 692 253 669 q 247 739 239 715 q 256 757 250 749 q 264 811 257 783 q 308 911 278 865 q 397 990 346 967 q 445 991 421 1000 q 480 958 469 982 q 481 909 490 933 q 449 875 472 885 q 397 813 419 861 z "},"":{"ha":588,"x_min":6,"x_max":449,"o":"m 260 742 q 317 814 301 774 q 321 833 319 824 q 304 838 313 833 q 256 875 272 847 q 226 776 254 832 q 132 636 186 693 q 88 617 114 618 q 42 635 61 617 q 24 678 24 653 q 42 724 24 704 q 72 764 53 736 q 111 828 97 797 q 96 826 104 826 q 75 829 86 828 l 72 829 q 69 829 71 829 q 58 832 63 831 q 35 843 46 836 q 8 881 17 857 q 6 889 7 885 q 19 956 -6 925 q 49 978 31 968 q 111 1017 74 1008 q 165 1018 142 1022 q 224 972 208 1010 q 229 956 228 964 q 247 926 240 942 q 251 944 249 936 q 274 979 258 963 q 332 1018 300 1010 q 426 992 388 1032 q 449 929 450 965 q 449 919 449 925 q 444 904 447 913 q 446 894 446 900 q 435 769 457 832 q 338 643 407 697 q 292 630 318 626 q 249 653 265 633 q 237 700 233 674 q 260 742 240 726 z "},"":{"ha":1111,"x_min":40,"x_max":974,"o":"m 828 717 q 717 850 775 806 q 624 892 669 888 q 457 803 536 900 q 393 699 419 758 q 438 696 414 697 q 600 683 493 693 q 714 675 678 676 q 756 653 739 672 q 772 607 774 633 q 750 564 769 581 q 704 549 731 547 q 589 558 668 551 q 429 569 485 567 q 353 574 389 572 q 349 546 350 560 q 343 497 344 521 q 396 496 368 497 q 517 492 435 496 q 674 486 618 486 q 719 468 700 486 q 738 424 738 450 q 719 378 738 397 q 674 360 700 360 q 510 365 615 360 q 393 371 431 369 q 351 371 371 371 q 389 258 363 310 q 500 154 426 189 q 653 132 572 121 q 785 190 732 142 q 847 322 840 240 q 870 365 850 349 q 916 380 890 382 q 958 358 942 378 q 974 311 975 338 q 869 97 961 181 q 668 7 788 22 q 449 40 553 -8 q 278 200 335 92 q 225 363 239 275 q 118 342 171 356 q 70 347 93 335 q 40 385 47 360 q 47 433 33 410 q 85 463 60 456 q 217 489 150 481 q 224 564 218 526 q 225 572 225 568 q 121 560 171 568 q 74 571 94 556 q 49 612 53 586 q 60 659 44 638 q 100 685 75 681 q 257 699 174 696 q 358 883 294 806 q 488 990 417 954 q 635 1017 560 1025 q 936 781 804 1001 q 944 733 950 758 q 915 695 938 708 q 867 688 893 682 q 828 717 842 694 z "},"":{"ha":1389,"x_min":0,"x_max":0,"o":""},"":{"ha":1197,"x_min":199,"x_max":1050,"o":"m 450 351 q 386 288 414 322 q 332 204 349 240 q 324 140 315 164 q 342 110 331 118 q 375 104 354 103 q 481 143 422 107 l 481 144 q 450 351 453 329 m 719 435 q 574 417 646 440 q 597 246 581 353 q 719 435 667 326 m 781 601 q 810 640 786 626 q 859 648 833 654 q 899 618 885 642 q 906 568 913 594 q 893 521 900 544 q 1035 377 993 471 q 1050 183 1076 283 q 936 14 1024 83 q 764 -65 874 -36 q 715 -59 738 -72 q 685 -19 692 -46 q 691 30 678 7 q 731 60 704 53 q 856 117 813 82 q 929 265 933 179 q 846 399 925 351 q 561 40 736 158 q 382 -26 469 -21 q 272 1 321 -29 q 199 99 222 31 q 214 257 175 171 q 283 368 236 308 q 436 499 346 447 q 436 642 433 575 q 292 640 369 640 q 246 660 265 640 q 226 706 226 679 q 246 751 226 732 q 292 771 265 771 q 454 772 379 771 q 496 906 469 843 q 532 940 507 931 q 582 939 557 950 q 617 903 607 928 q 615 853 626 878 q 589 776 599 817 q 976 814 797 786 q 1024 802 1003 818 q 1050 760 1046 786 q 1038 712 1054 733 q 996 686 1022 690 q 567 646 800 656 q 565 550 564 600 q 768 561 668 576 q 781 601 775 581 z "},"":{"ha":1294,"x_min":96,"x_max":1156,"o":"m 401 450 q 242 200 242 328 q 250 149 242 157 q 336 151 272 129 q 426 201 383 169 q 417 258 421 229 q 401 450 404 343 m 742 582 q 532 532 636 581 q 540 313 529 410 q 742 582 669 450 m 821 775 q 851 813 828 800 q 901 819 875 826 q 940 789 926 813 q 946 739 953 765 q 929 685 939 711 q 1068 617 1022 660 q 1156 415 1147 543 q 1140 244 1161 326 q 1072 92 1118 161 q 949 -22 1026 24 q 775 -78 872 -67 q 726 -63 747 -81 q 703 -19 706 -46 q 717 29 700 8 q 761 53 735 50 q 964 165 893 65 q 1025 407 1035 265 q 979 522 1021 483 q 878 563 958 542 q 574 160 781 365 q 599 114 586 131 q 614 66 617 93 q 590 22 611 39 q 542 7 569 4 q 499 31 515 10 q 471 74 483 50 q 381 29 425 46 q 164 51 244 -19 q 126 107 139 74 q 113 156 114 140 q 111 200 111 172 q 133 324 111 265 q 195 431 156 383 q 273 513 235 479 q 361 582 311 547 q 404 611 382 597 q 419 797 408 706 q 343 800 392 797 q 165 801 221 804 q 117 818 138 800 q 96 863 97 836 q 113 910 94 890 q 157 932 131 931 q 347 929 219 935 q 439 926 407 928 q 478 1078 457 1021 q 512 1114 488 1103 q 562 1115 536 1125 q 599 1081 588 1106 q 600 1031 610 1057 q 574 933 586 994 q 1003 1010 728 947 q 1051 1001 1029 1015 q 1080 960 1074 986 q 1072 911 1086 933 q 1031 882 1057 889 q 551 800 726 814 q 539 675 543 739 q 800 710 669 722 q 821 775 811 742 z "},"":{"ha":1257,"x_min":221,"x_max":1118,"o":"m 221 744 q 242 789 222 771 q 290 806 263 807 q 335 784 317 804 q 351 736 353 764 q 428 206 332 421 q 482 114 454 146 q 496 99 489 104 q 518 201 511 131 q 542 245 521 228 q 590 260 563 263 q 634 236 617 257 q 649 188 651 215 q 607 31 638 86 q 489 -37 564 -46 q 382 29 432 -31 q 308 153 342 76 q 221 744 200 396 m 813 607 q 807 656 800 629 q 837 695 814 682 q 886 701 860 708 q 926 671 913 694 q 1118 136 1083 399 q 1106 88 1122 110 q 1063 63 1090 67 q 1015 76 1036 60 q 990 119 993 92 q 813 607 957 356 z "},"":{"ha":1376,"x_min":118,"x_max":1238,"o":"m 176 956 q 217 985 190 979 q 266 978 243 992 q 295 938 289 964 q 288 889 301 911 q 249 654 232 799 q 303 433 257 567 q 403 222 349 300 q 449 174 428 185 q 454 171 453 171 q 474 190 463 175 q 504 255 485 206 q 540 376 524 304 q 570 417 547 403 q 619 426 593 432 q 659 397 644 419 q 668 349 674 374 q 508 51 611 99 q 381 63 446 22 q 296 147 338 89 q 181 390 232 240 q 118 640 129 539 q 176 956 99 828 m 850 819 q 837 867 833 840 q 861 911 840 894 q 909 924 882 928 q 953 900 936 921 q 1126 602 1061 763 q 1238 242 1190 442 q 1229 192 1243 215 q 1189 163 1215 169 q 1140 171 1163 157 q 1110 211 1117 185 q 1007 549 1067 401 q 850 819 947 697 z "},"":{"ha":1139,"x_min":238,"x_max":992,"o":"m 415 761 q 376 792 389 768 q 371 842 364 815 q 401 881 378 868 q 451 886 425 893 q 854 829 635 833 q 899 808 881 828 q 917 763 918 789 q 897 717 917 736 q 851 699 878 699 q 415 761 615 704 m 322 407 q 272 408 297 397 q 238 444 247 419 q 239 494 228 469 q 275 529 250 519 q 321 547 286 533 q 376 569 356 561 q 430 586 397 576 q 490 600 463 596 q 636 607 540 611 q 807 579 732 603 q 957 488 907 549 q 992 297 1021 408 q 811 96 965 197 q 597 -18 731 44 q 547 -22 572 -31 q 510 13 522 -12 q 508 63 499 38 q 542 99 517 88 q 739 206 667 158 q 867 331 853 279 q 856 406 879 378 q 769 456 831 436 q 631 477 710 474 q 510 472 551 481 q 464 461 489 468 q 422 447 439 454 q 372 427 404 440 q 322 407 339 414 z "},"":{"ha":1240,"x_min":160,"x_max":1103,"o":"m 342 943 q 301 973 315 950 q 294 1022 288 996 q 323 1063 300 1049 q 372 1071 346 1076 q 900 999 679 999 q 946 979 926 999 q 965 933 965 960 q 946 888 965 907 q 900 868 926 868 q 342 943 664 868 m 244 538 q 195 539 219 528 q 160 575 171 550 q 161 624 150 600 q 197 660 172 649 q 375 699 251 681 q 626 722 499 717 q 876 711 775 726 q 1058 622 1015 689 q 1103 450 1099 561 q 903 107 1108 264 q 565 -71 767 3 q 516 -69 540 -81 q 482 -32 492 -57 q 484 17 472 -7 q 521 51 496 42 q 824 210 703 118 q 972 447 976 326 q 950 550 969 519 q 856 582 938 569 q 632 592 767 596 q 399 571 511 588 q 244 538 286 554 z "},"":{"ha":1272,"x_min":189,"x_max":1133,"o":"m 404 776 q 369 813 379 788 q 371 863 360 838 q 407 897 382 888 q 457 896 432 907 q 515 874 485 883 q 567 860 546 865 q 628 850 589 854 q 683 844 667 846 q 750 840 700 843 q 817 835 800 836 q 860 812 843 832 q 876 765 878 792 q 853 720 874 738 q 806 704 833 703 q 742 709 793 706 q 673 714 692 713 q 610 721 654 715 q 540 733 567 726 q 476 750 513 739 q 404 776 439 761 m 346 497 q 303 522 319 500 q 291 570 288 543 q 316 613 294 597 q 365 625 338 629 q 451 622 429 621 q 538 630 474 622 q 639 640 601 638 q 690 642 678 643 q 693 642 692 642 q 739 647 711 644 q 740 649 739 649 q 758 654 757 654 q 799 660 781 661 q 843 638 825 657 q 861 589 861 617 q 854 560 861 574 q 850 553 853 557 q 847 549 849 551 q 844 545 846 547 q 840 540 843 543 q 829 529 836 536 q 790 489 815 514 q 672 365 739 435 q 661 354 667 360 q 733 342 703 358 q 797 189 806 303 q 795 159 797 179 q 792 132 793 139 l 792 108 q 807 99 793 103 q 879 90 832 89 q 1054 117 953 92 q 1103 110 1079 124 q 1133 70 1126 96 q 1125 21 1139 44 q 1085 -8 1111 -3 q 882 -40 969 -37 q 761 -24 810 -42 q 667 72 686 4 q 663 142 658 99 q 665 168 663 149 q 668 199 667 188 q 668 222 668 213 q 647 217 658 221 q 547 169 607 203 q 376 58 450 115 q 344 25 368 53 q 285 -26 313 -10 q 256 -35 271 -33 q 212 -19 231 -35 q 189 21 193 -4 q 192 51 186 36 q 195 60 193 56 q 200 69 197 65 q 206 76 203 72 q 222 96 213 85 q 271 150 247 126 q 385 258 329 210 q 579 456 408 279 q 631 508 604 482 q 567 502 611 507 q 494 494 522 497 q 424 492 465 492 q 346 497 382 492 z "},"":{"ha":1408,"x_min":119,"x_max":1269,"o":"m 799 768 q 800 769 800 768 l 799 768 m 385 979 q 348 1012 360 988 q 345 1062 336 1036 q 378 1099 354 1088 q 429 1101 403 1111 q 936 993 717 999 q 982 972 964 992 q 999 926 1000 953 q 979 881 999 899 q 933 863 960 863 q 385 979 693 869 m 256 626 q 210 646 229 626 q 190 692 190 665 q 210 738 190 718 q 256 757 229 757 q 342 758 299 757 q 437 764 385 760 q 519 771 489 768 q 614 781 549 774 q 699 790 679 788 q 713 792 701 790 q 743 795 724 793 q 776 800 763 797 q 826 806 810 804 q 844 808 839 807 q 853 808 849 808 l 860 808 q 869 807 865 808 q 883 803 878 806 q 915 774 904 793 q 910 699 933 736 q 889 674 901 688 q 843 633 872 657 q 797 597 824 618 l 771 578 q 603 431 688 510 q 744 390 689 443 q 804 243 792 344 q 824 153 814 168 q 974 86 858 94 q 1194 103 1056 81 q 1244 92 1222 107 q 1269 49 1265 76 q 1258 1 1274 22 q 1217 -25 1243 -21 q 964 -43 1061 -50 q 713 86 782 -31 q 700 111 706 97 q 691 135 694 125 q 685 162 688 146 q 681 185 682 178 q 678 208 679 192 q 675 226 676 224 q 653 296 668 282 q 606 297 642 308 q 483 232 556 283 q 267 44 400 172 q 258 31 268 44 q 196 -14 233 -7 q 159 -10 181 -17 q 125 21 138 -4 q 119 65 114 42 q 126 82 122 74 q 131 88 128 85 q 133 93 132 90 q 140 101 136 96 q 161 128 149 111 q 176 145 168 136 q 186 158 183 154 l 190 164 q 214 197 199 175 q 235 226 229 218 q 288 292 264 265 q 660 656 469 494 q 256 626 383 626 z "},"":{"ha":1254,"x_min":193,"x_max":1117,"o":"m 425 35 q 428 85 429 51 q 421 153 426 110 q 415 214 415 200 q 415 244 415 229 q 389 226 401 236 q 321 139 328 182 q 361 58 314 96 q 425 35 394 31 m 429 833 q 447 879 429 860 q 492 899 465 899 q 539 882 519 900 q 560 836 558 864 q 560 675 561 767 q 683 710 615 688 q 733 708 708 719 q 766 670 757 696 q 763 620 775 644 q 725 588 751 596 q 554 542 632 556 q 553 522 553 533 q 549 442 550 463 q 758 470 646 471 q 939 428 871 469 q 1056 290 1017 379 q 1085 113 1094 200 q 1008 -44 1075 11 q 815 -85 933 -108 q 696 -10 738 -69 q 647 122 661 39 q 639 182 644 140 q 631 233 633 217 q 640 282 625 260 q 682 310 656 304 q 731 300 708 315 q 758 258 753 285 q 768 199 763 238 q 775 144 772 160 q 801 65 785 90 q 840 43 814 49 q 925 56 897 32 q 956 125 951 76 q 937 235 961 181 q 869 317 913 290 q 744 340 835 342 q 553 307 653 339 q 544 304 549 306 q 546 217 544 258 q 550 168 546 210 q 557 89 556 119 q 551 4 560 39 q 489 -82 538 -60 q 413 -96 453 -99 q 340 -79 372 -93 q 278 -42 307 -65 q 208 47 233 -6 q 193 158 183 100 q 310 331 208 254 q 417 394 357 365 q 422 528 418 440 q 424 531 422 529 q 351 533 404 531 q 271 532 300 536 q 224 546 244 529 q 199 590 203 563 q 213 638 196 617 q 257 663 229 658 q 358 664 296 667 q 429 661 415 661 q 429 833 432 757 m 833 669 q 810 713 813 686 q 825 761 808 740 q 869 784 842 782 q 917 769 896 786 q 1101 582 1022 682 q 1117 535 1119 561 q 1092 491 1114 508 q 1044 476 1071 474 q 1001 501 1018 479 q 833 669 929 590 z "},"":{"ha":1396,"x_min":79,"x_max":1256,"o":"m 407 392 q 229 269 278 333 q 235 150 182 206 q 305 106 263 121 q 386 99 347 92 q 411 110 404 101 q 419 140 418 118 q 420 182 421 168 q 416 228 419 196 q 411 285 413 261 q 407 392 410 332 m 374 1078 q 393 1124 374 1104 q 439 1143 413 1143 q 485 1124 465 1143 q 504 1078 504 1104 q 514 894 504 1011 l 518 863 q 736 915 638 881 q 787 913 763 925 q 820 876 811 901 q 817 826 829 850 q 781 793 806 801 q 528 732 665 751 q 529 703 528 717 q 533 572 531 650 q 547 576 540 574 q 719 607 635 599 q 887 604 803 615 q 1029 561 971 593 q 1124 481 1081 532 q 1189 375 1167 431 q 1171 129 1243 238 q 972 0 1108 36 q 962 -3 971 0 q 949 -6 953 -6 q 935 -10 946 -7 q 919 -12 925 -12 q 903 -14 913 -12 q 885 -14 893 -15 q 866 -11 876 -12 q 846 -6 856 -10 q 826 3 836 -1 q 694 168 735 50 q 667 354 665 254 q 688 399 668 381 q 733 417 707 418 q 778 397 760 417 q 797 351 797 378 q 818 211 796 275 q 885 119 842 142 q 939 125 896 114 q 1063 201 1028 150 q 1067 328 1097 253 q 1025 396 1053 363 q 965 447 997 429 q 803 480 908 479 q 579 450 699 481 q 536 439 557 444 q 542 290 539 353 q 545 245 542 282 q 550 185 549 208 q 549 126 551 163 q 513 29 543 68 q 408 -29 476 -18 q 263 -17 336 -42 q 142 60 190 8 q 89 142 106 97 q 80 242 72 188 q 126 347 88 297 q 404 531 206 454 q 399 697 401 639 q 397 719 399 708 q 176 719 285 711 q 133 742 150 722 q 117 790 115 763 q 140 834 119 817 q 188 850 160 851 q 388 849 285 842 q 385 883 386 876 q 374 1078 374 1006 m 926 919 q 907 966 907 939 q 926 1013 907 993 q 972 1032 944 1032 q 1018 1014 999 1032 q 1069 965 1036 994 q 1123 915 1101 936 q 1161 874 1144 893 q 1256 671 1221 801 q 1249 622 1263 646 q 1210 592 1236 599 q 1161 598 1185 585 q 1131 638 1138 611 q 1061 790 1101 740 q 1030 824 1047 807 q 983 867 1013 840 q 926 919 953 894 z "},"":{"ha":1436,"x_min":67,"x_max":1296,"o":"m 435 1076 q 458 1122 438 1104 q 505 1137 478 1139 q 549 1115 532 1135 q 565 1068 567 1094 q 564 994 564 1046 q 561 911 564 940 q 550 833 557 872 q 783 749 710 829 q 833 672 810 719 q 863 585 857 624 q 867 456 871 540 q 850 289 864 372 q 807 126 833 193 q 715 6 772 36 q 557 -18 654 -28 q 425 4 513 -15 q 384 33 399 10 q 375 82 369 56 q 403 123 381 108 q 453 132 426 138 q 568 111 533 114 q 654 119 628 106 q 686 175 668 128 q 721 311 707 228 q 737 461 733 385 q 735 565 740 538 q 717 615 732 585 q 689 660 701 646 q 521 703 646 706 q 488 603 506 653 q 447 496 471 553 q 408 406 424 439 q 362 304 393 372 q 322 217 331 236 q 256 99 308 188 q 210 3 219 42 q 181 -36 204 -22 q 131 -44 157 -50 q 92 -14 106 -37 q 85 36 78 10 q 144 167 99 93 q 203 269 193 247 q 240 351 214 294 q 281 440 267 408 q 315 518 294 471 q 351 606 336 565 q 379 688 367 647 q 144 636 346 682 q 96 645 118 631 q 67 686 74 660 q 76 735 61 713 q 117 764 90 757 q 173 777 128 767 q 249 794 218 788 q 328 810 281 801 q 417 825 376 819 q 431 922 426 875 q 433 994 433 947 q 435 1076 433 1050 m 957 774 q 928 814 935 788 q 936 863 922 840 q 976 892 950 886 q 1026 885 1003 899 q 1118 810 1076 853 q 1185 726 1160 767 q 1234 628 1211 685 q 1269 530 1257 571 q 1296 429 1282 489 q 1289 381 1303 404 q 1249 351 1275 357 q 1200 358 1224 344 q 1171 399 1176 372 q 1089 632 1133 543 q 957 774 1044 721 z "},"":{"ha":1446,"x_min":51,"x_max":1306,"o":"m 422 1099 q 450 1140 428 1125 q 499 1150 472 1156 q 540 1122 525 1144 q 550 1074 556 1100 q 489 835 529 965 q 626 825 567 838 q 788 733 736 803 q 843 558 829 675 q 843 340 856 456 q 794 131 831 218 q 664 -14 746 15 q 580 -28 628 -26 q 494 -23 532 -29 q 421 -7 456 -17 q 383 25 396 1 q 378 74 371 49 q 410 113 386 100 q 460 118 433 125 q 545 102 500 106 q 619 108 590 99 q 674 181 647 118 q 714 354 703 250 q 714 543 725 454 q 682 656 704 626 q 600 697 661 685 q 446 701 539 710 q 418 619 439 681 q 385 522 397 557 q 353 422 378 500 q 316 308 329 344 q 278 210 303 272 q 228 97 254 147 q 169 0 201 47 q 128 -28 154 -22 q 79 -18 101 -33 q 51 24 57 -3 q 61 72 46 50 q 113 158 89 114 q 158 259 136 201 q 192 350 181 317 q 228 460 204 383 q 263 564 253 538 q 301 681 274 601 q 133 638 215 663 q 83 643 107 631 q 52 681 60 656 q 57 731 44 707 q 94 763 69 754 q 349 821 224 801 q 422 1099 399 979 m 908 776 q 883 819 886 792 q 895 867 879 846 q 938 892 911 889 q 986 879 965 896 q 1010 863 992 876 q 1047 837 1029 850 q 1078 811 1065 824 q 1199 626 1146 749 q 1279 399 1253 504 q 1271 349 1285 372 q 1231 320 1257 326 q 1181 328 1204 314 q 1151 368 1158 342 q 1083 567 1129 463 q 989 717 1038 671 q 967 734 979 726 q 939 753 956 742 q 908 776 922 765 m 994 1010 q 983 1058 978 1032 q 1010 1100 988 1085 q 1053 1112 1029 1114 q 1093 1093 1076 1110 q 1113 1136 1094 1118 q 1158 1156 1132 1156 q 1204 1136 1185 1156 q 1301 997 1260 1082 q 1305 948 1314 974 q 1272 910 1296 922 q 1233 903 1253 900 q 1197 922 1213 907 q 1201 874 1208 899 q 1172 838 1194 850 q 1122 831 1149 824 q 1083 860 1096 838 q 1058 904 1074 875 q 1038 939 1042 933 q 994 1010 1014 982 z "},"":{"ha":1267,"x_min":122,"x_max":1128,"o":"m 192 506 q 144 522 165 504 q 122 567 124 540 q 139 614 121 593 q 183 636 157 635 q 642 694 381 649 q 603 792 621 743 q 206 758 436 771 q 159 775 179 757 q 138 820 139 793 q 154 867 136 847 q 200 889 172 888 q 560 918 407 899 q 521 1071 535 1001 q 531 1119 515 1097 q 572 1147 546 1142 q 621 1138 599 1153 q 649 1096 643 1122 q 690 938 663 1024 q 985 1006 847 964 q 1035 1000 1011 1013 q 1066 962 1058 988 q 1061 913 1074 936 q 1024 881 1049 889 q 735 813 888 839 q 774 719 753 764 q 923 749 826 729 q 1051 774 1019 768 q 1100 764 1078 779 q 1128 722 1122 749 q 1118 674 1133 696 q 1076 646 1103 651 q 960 623 1040 639 q 835 599 879 607 q 839 592 838 594 q 946 425 894 497 q 953 419 949 424 q 960 414 957 415 q 985 385 976 400 q 989 333 996 360 q 957 293 981 307 q 858 307 907 264 q 849 315 850 314 q 781 336 803 332 q 646 350 713 349 q 513 339 579 351 q 404 297 446 326 q 336 176 324 240 q 369 122 342 147 q 449 81 397 96 q 565 60 507 64 q 690 68 622 57 q 804 91 757 79 q 936 128 851 103 q 985 122 961 135 q 1016 84 1008 110 q 1011 35 1024 58 q 972 3 999 11 q 836 -35 883 -24 q 709 -61 789 -47 q 557 -70 629 -75 q 413 -44 485 -65 q 278 30 332 -21 q 208 149 224 81 q 226 287 194 219 q 329 403 258 354 q 760 471 479 508 q 728 525 743 499 q 701 574 714 549 q 192 506 407 519 z "},"":{"ha":1471,"x_min":113,"x_max":1332,"o":"m 174 515 q 129 537 147 517 q 113 584 111 557 q 134 629 114 611 q 182 646 154 647 q 286 647 229 643 q 383 656 343 650 q 494 673 424 661 q 601 689 564 685 q 647 696 622 693 q 611 778 629 733 q 399 764 535 771 q 208 751 264 757 q 161 767 182 750 q 138 811 140 785 q 153 858 136 838 q 197 882 171 879 q 385 894 263 888 q 561 904 507 900 q 540 963 557 915 q 513 1035 522 1011 q 514 1085 503 1061 q 551 1119 525 1110 q 601 1118 576 1129 q 635 1082 625 1107 q 666 998 646 1053 q 696 918 686 943 q 963 988 849 939 q 1013 988 988 999 q 1048 953 1038 978 q 1048 903 1058 928 q 1013 868 1038 878 q 744 794 897 819 q 783 713 764 750 q 826 718 807 715 q 1043 756 957 735 q 1092 747 1069 761 q 1122 707 1115 733 q 1114 658 1128 681 q 1074 628 1100 635 q 858 590 985 607 q 881 563 869 576 q 947 474 900 538 q 986 419 972 440 q 1000 396 996 406 q 1007 383 1004 389 q 1011 371 1010 378 q 1010 336 1015 353 q 917 276 992 278 q 843 285 889 276 q 776 301 824 289 q 744 308 747 308 q 710 311 738 310 q 674 313 683 313 q 640 315 665 314 q 603 317 615 317 q 571 317 592 317 q 535 316 550 317 q 504 313 521 315 q 472 307 488 311 q 380 265 413 296 q 339 176 347 235 q 339 139 338 163 q 340 126 339 132 q 340 118 340 121 l 340 115 q 361 104 346 110 q 421 86 372 99 q 474 76 449 81 q 530 69 500 71 q 580 67 560 68 q 636 69 600 65 q 687 72 672 72 q 744 78 701 72 q 797 86 788 85 q 858 96 807 88 q 917 106 908 104 q 965 94 943 110 q 990 52 986 79 q 979 3 994 25 q 936 -22 964 -18 q 874 -33 931 -24 q 804 -44 817 -43 q 741 -53 792 -46 q 669 -60 690 -60 q 604 -62 649 -61 q 531 -61 560 -64 q 464 -53 503 -58 q 390 -39 425 -49 q 313 -17 332 -25 q 224 58 249 8 q 208 133 211 85 q 211 193 207 168 q 288 358 225 300 q 446 435 351 415 q 490 442 467 439 q 539 447 513 446 q 583 447 565 447 q 631 446 601 447 q 673 444 661 444 q 717 441 685 443 q 753 439 749 439 q 808 428 768 438 q 816 425 811 426 q 822 424 821 424 q 781 479 792 467 q 714 572 746 522 q 618 561 657 565 q 517 545 589 557 q 401 527 444 533 q 292 517 357 521 q 174 515 228 513 m 1003 1047 q 986 1095 985 1068 q 1008 1140 988 1122 q 1055 1157 1028 1158 q 1100 1136 1082 1156 q 1121 1113 1114 1119 q 1139 1146 1125 1132 q 1185 1165 1158 1165 q 1231 1146 1211 1165 q 1300 1053 1276 1100 q 1332 943 1324 1006 q 1320 894 1336 915 q 1278 869 1304 872 q 1213 899 1235 863 q 1174 868 1200 876 q 1125 874 1149 861 q 1093 913 1101 886 q 1063 976 1082 949 q 1003 1047 1044 1003 z "},"":{"ha":1090,"x_min":263,"x_max":953,"o":"m 796 1089 q 841 1110 814 1108 q 888 1092 868 1111 q 908 1047 907 1074 q 890 1000 910 1019 q 482 619 707 803 q 464 606 476 615 q 446 592 451 596 q 411 561 424 574 q 393 539 399 549 q 403 526 397 533 q 456 467 421 503 q 626 304 517 404 q 803 147 693 244 q 932 31 913 50 q 952 -14 951 13 q 934 -60 953 -40 q 889 -80 915 -79 q 843 -62 863 -81 q 715 52 824 -44 q 539 208 606 149 q 363 376 426 311 q 301 444 324 417 q 263 513 268 485 q 319 654 249 583 q 365 693 338 672 q 383 707 371 699 q 399 719 394 715 q 796 1089 618 899 z "},"":{"ha":1288,"x_min":253,"x_max":1150,"o":"m 774 1110 q 818 1133 792 1131 q 865 1117 844 1135 q 888 1074 886 1100 q 874 1026 890 1047 q 808 960 854 1004 q 689 850 761 915 q 575 746 617 785 q 422 590 472 649 q 383 536 396 557 l 383 535 q 390 528 386 532 q 446 471 410 506 q 621 313 511 408 q 924 57 832 128 q 949 15 946 42 q 937 -34 953 -12 q 894 -59 921 -56 q 846 -46 867 -62 q 535 215 749 26 q 356 378 422 313 q 293 442 315 415 q 253 503 260 479 q 269 597 240 544 q 322 674 288 631 q 486 840 378 739 q 603 949 533 886 q 716 1051 674 1013 q 774 1110 758 1090 m 817 740 q 799 786 799 760 q 819 831 800 813 q 865 849 839 850 q 911 829 892 849 q 1043 675 1007 729 q 1053 626 1058 653 q 1025 585 1047 600 q 976 575 1003 569 q 935 603 950 581 q 817 740 904 649 m 931 838 q 913 884 913 857 q 932 930 913 911 q 978 949 951 949 q 1025 929 1006 949 q 1139 789 1085 867 q 1149 739 1154 765 q 1122 697 1144 713 q 1072 687 1099 682 q 1031 714 1046 692 q 931 838 983 783 z "},"":{"ha":1361,"x_min":172,"x_max":1221,"o":"m 219 1069 q 249 1110 226 1096 q 299 1117 272 1124 q 339 1088 325 1111 q 347 1039 353 1065 q 311 807 321 935 q 302 583 301 679 q 310 340 303 488 q 340 424 325 381 q 374 460 350 449 q 424 463 399 472 q 460 428 449 453 q 463 379 472 404 q 356 63 397 201 q 357 50 356 61 q 353 13 358 29 q 299 -36 339 -26 q 236 -18 263 -46 q 225 -3 229 -11 q 221 8 222 3 q 217 19 219 14 q 213 44 215 29 q 201 117 207 74 q 183 263 186 222 q 174 469 176 404 q 173 655 172 533 q 185 876 174 776 q 219 1069 197 975 m 501 671 q 458 695 475 674 q 445 743 442 717 q 470 786 449 769 q 518 799 492 803 q 843 783 689 778 q 836 1067 844 932 q 853 1114 835 1093 q 897 1136 871 1135 q 944 1119 924 1138 q 967 1075 965 1101 q 972 794 975 940 q 1131 838 1068 808 q 1180 841 1154 850 q 1217 808 1206 832 q 1220 758 1229 783 q 1186 721 1211 732 q 969 663 1100 679 q 965 575 968 621 q 962 508 964 556 q 958 440 960 461 q 953 374 957 418 q 945 306 950 331 q 932 242 940 282 q 913 177 924 203 q 887 115 903 151 q 851 52 871 79 q 806 -6 832 25 q 747 -65 779 -37 q 701 -82 728 -83 q 656 -60 674 -81 q 639 -13 638 -40 q 661 32 640 14 q 706 78 686 54 q 742 122 726 101 q 769 172 757 142 q 790 219 782 201 q 806 273 799 238 q 816 325 813 308 q 823 385 819 342 q 828 445 826 429 q 832 513 829 461 q 835 583 835 565 q 839 653 838 618 q 501 671 679 647 z "},"":{"ha":1463,"x_min":136,"x_max":1325,"o":"m 210 1074 q 245 1110 221 1099 q 294 1110 269 1121 q 331 1076 319 1100 q 332 1026 342 1051 q 275 726 294 931 q 267 394 256 521 q 275 325 269 363 q 342 461 300 388 q 381 492 356 485 q 431 485 407 499 q 461 447 454 472 q 456 397 468 421 q 382 242 407 311 q 363 136 378 231 q 350 67 356 92 q 324 3 339 22 q 265 -28 301 -28 q 203 11 224 -28 q 190 60 194 28 q 188 86 189 72 q 185 108 186 100 q 185 121 185 115 q 136 383 146 274 q 145 741 125 521 q 210 1074 165 961 m 1014 1024 q 1008 1072 1001 1046 q 1038 1112 1015 1099 q 1088 1118 1061 1125 q 1128 1088 1114 1111 q 1190 904 1182 993 q 1176 859 1192 879 q 1136 835 1161 839 q 1175 820 1158 833 q 1197 786 1192 807 q 1190 736 1204 760 q 1151 707 1176 713 q 994 678 1076 688 q 996 592 996 632 q 924 133 996 281 q 899 91 914 113 q 872 55 883 69 q 837 17 860 40 q 806 -12 814 -6 q 772 -43 799 -19 q 743 -68 744 -67 q 697 -85 724 -86 q 651 -63 669 -83 q 635 -16 633 -43 q 657 29 636 11 q 680 50 663 35 q 703 71 697 65 q 724 90 710 76 q 746 110 739 103 q 764 130 753 118 q 781 150 775 142 q 794 169 788 158 q 807 192 801 181 q 865 592 867 311 q 865 669 865 628 q 819 668 844 668 q 760 666 806 667 q 696 665 715 665 q 641 663 676 664 q 576 658 606 661 q 515 651 546 656 q 467 663 489 647 q 441 706 444 679 q 453 754 438 732 q 496 779 469 776 q 563 788 529 785 q 633 793 596 792 q 692 795 671 794 q 759 797 714 796 q 817 797 804 797 q 860 799 840 799 q 850 1040 850 1007 q 869 1088 850 1068 q 915 1107 888 1107 q 961 1088 942 1107 q 981 1043 981 1069 q 990 808 981 1004 q 1118 832 1057 817 q 1124 833 1121 833 q 1081 851 1099 835 q 1060 893 1063 868 q 1014 1024 1056 953 m 1158 1043 q 1160 1094 1149 1069 q 1198 1127 1172 1118 q 1248 1124 1224 1136 q 1281 1088 1272 1113 q 1325 928 1318 981 q 1311 881 1328 901 q 1267 856 1294 860 q 1219 869 1240 853 q 1194 914 1199 886 q 1158 1043 1190 951 z "},"":{"ha":1268,"x_min":179,"x_max":1131,"o":"m 881 944 l 882 947 q 881 944 881 946 m 303 842 q 257 861 276 842 q 238 907 238 881 q 257 953 238 933 q 303 972 276 972 q 778 983 649 972 q 876 992 808 986 q 919 996 918 996 q 932 996 928 996 q 935 997 933 997 q 937 997 936 997 q 939 997 938 997 l 940 997 l 946 997 q 954 996 950 997 q 968 992 961 994 q 1004 950 996 979 q 993 879 1014 914 q 961 842 982 861 q 883 782 933 817 q 801 733 851 763 q 747 700 751 703 q 697 690 724 685 q 656 719 671 696 q 647 768 642 742 q 675 808 653 794 q 692 818 682 813 q 717 833 701 824 q 744 850 733 843 q 303 842 625 842 m 353 558 q 402 563 376 571 q 440 532 428 556 q 445 483 453 508 q 414 444 438 457 q 365 398 390 432 q 324 321 339 364 q 322 194 290 233 q 382 165 331 185 q 1057 158 565 96 q 1105 146 1083 163 q 1130 103 1126 129 q 1117 55 1133 76 q 1074 31 1100 33 q 900 10 975 17 q 714 -2 825 3 q 506 4 603 -7 q 335 43 408 15 q 326 47 333 44 q 313 51 318 50 q 299 57 308 53 q 283 65 290 61 q 267 74 276 68 q 251 85 258 79 q 235 97 243 90 q 222 111 228 104 q 183 194 193 147 q 180 283 174 242 q 201 367 186 325 q 264 481 224 428 q 353 558 304 533 z "},"":{"ha":1375,"x_min":183,"x_max":1236,"o":"m 304 867 q 260 890 278 869 q 245 937 243 910 q 267 981 247 964 q 315 997 288 999 q 747 983 522 981 q 881 992 797 983 q 933 996 904 993 q 949 997 947 997 q 954 999 953 999 q 958 999 956 999 l 961 999 l 963 999 q 972 997 967 999 q 988 993 981 996 q 1026 933 1026 975 q 1007 885 1026 907 q 992 869 1001 878 q 954 842 978 858 q 853 778 921 819 q 688 674 699 683 q 640 658 667 656 q 596 680 614 660 q 580 726 578 700 q 601 771 582 753 q 726 853 622 790 q 304 867 506 851 m 307 543 q 353 560 326 561 q 398 540 379 560 q 416 494 417 521 q 396 449 415 468 q 311 264 299 354 q 371 201 317 229 q 539 154 431 169 q 896 144 704 129 q 968 154 922 146 q 1050 168 1028 165 q 1098 156 1076 172 q 1123 113 1119 139 q 1110 65 1126 86 q 1067 40 1093 43 q 992 26 1047 38 q 907 14 939 17 q 519 25 700 -1 q 311 86 390 44 q 183 244 197 144 q 307 543 160 403 m 906 690 q 888 737 888 710 q 908 782 889 764 q 955 799 928 800 q 1000 779 982 799 q 1024 755 1004 775 q 1049 727 1043 735 q 1072 700 1056 719 q 1096 666 1088 681 q 1113 630 1104 651 q 1128 585 1122 608 q 1121 536 1135 560 q 1081 506 1107 513 q 1032 514 1056 500 q 1003 554 1008 528 q 996 575 999 565 q 987 594 993 585 q 976 610 981 604 q 962 628 972 617 q 947 646 951 640 q 927 667 942 651 q 906 690 913 683 m 1017 769 q 994 813 996 786 q 1008 861 992 840 q 1052 884 1025 882 q 1100 869 1079 886 q 1113 858 1103 867 q 1127 847 1124 850 q 1140 836 1131 844 q 1154 824 1150 828 q 1167 812 1158 819 q 1179 799 1175 804 q 1191 785 1183 793 q 1204 770 1199 778 q 1216 753 1210 763 q 1228 736 1222 744 q 1235 686 1242 713 q 1206 646 1229 660 q 1157 638 1183 632 q 1117 667 1131 644 q 1088 705 1104 688 q 1061 732 1072 722 q 1017 769 1050 742 z "},"":{"ha":1267,"x_min":118,"x_max":1125,"o":"m 603 1057 q 612 1106 597 1083 q 653 1135 626 1129 q 702 1126 679 1140 q 731 1085 725 1111 q 801 911 746 1010 q 810 896 804 904 q 1038 957 969 928 q 1088 958 1063 968 q 1124 923 1113 947 q 1124 874 1135 899 q 1090 838 1114 849 q 876 776 1019 807 q 903 724 892 749 q 931 656 911 706 q 957 596 946 617 q 992 522 963 585 q 1024 458 1011 481 q 1029 453 1025 457 q 1035 447 1033 449 q 1057 415 1050 432 q 1059 372 1065 396 q 1032 333 1053 349 q 1010 322 1022 325 q 990 319 997 318 l 983 321 q 972 322 978 321 q 961 326 967 325 q 942 336 954 329 q 916 348 935 339 q 888 361 897 357 q 782 404 808 399 q 584 420 689 429 q 411 363 479 411 q 349 294 371 333 q 328 218 328 256 q 417 100 328 138 q 668 76 500 65 q 940 119 817 85 q 990 113 967 126 q 1021 74 1014 100 q 1015 25 1028 49 q 976 -6 1001 1 q 676 -54 839 -44 q 367 -19 478 -67 q 241 78 285 14 q 197 218 197 142 q 235 356 199 290 q 336 468 272 422 q 490 535 401 515 q 656 553 578 556 q 813 532 735 550 q 849 519 828 528 q 840 538 844 529 q 810 607 828 564 q 783 671 790 656 q 742 753 767 707 q 636 736 690 743 q 176 706 321 692 q 133 729 150 708 q 118 777 115 750 q 142 822 121 804 q 190 836 163 839 q 618 865 318 824 q 674 874 646 869 q 603 1057 621 972 z "},"":{"ha":1376,"x_min":142,"x_max":1236,"o":"m 894 1040 q 869 1083 872 1056 q 881 1131 865 1110 q 924 1156 897 1153 q 972 1143 951 1160 q 1000 1124 978 1139 q 1017 1110 1011 1115 q 1046 1082 1019 1107 q 1064 1139 1040 1115 q 1110 1157 1083 1157 q 1157 1138 1138 1157 q 1174 1119 1164 1129 q 1192 1102 1185 1108 q 1201 1090 1199 1096 q 1232 1038 1207 1083 q 1236 987 1244 1013 q 1203 949 1228 961 q 1153 944 1179 936 q 1115 976 1128 953 q 1099 1011 1101 1004 q 1096 1014 1097 1013 q 1090 1020 1094 1015 q 1076 1032 1085 1025 q 1058 976 1082 1000 q 1013 957 1039 957 q 967 976 986 957 q 948 996 956 988 q 937 1007 940 1004 q 931 1013 933 1010 q 922 1018 929 1014 q 894 1040 900 1035 m 207 692 q 161 711 181 692 q 142 757 142 731 q 161 803 142 783 q 207 822 181 822 q 291 820 235 822 q 385 819 347 818 q 458 825 422 821 q 561 844 486 829 q 656 861 619 857 q 604 1076 604 1011 q 624 1122 604 1103 q 669 1142 643 1142 q 715 1122 696 1142 q 735 1076 735 1103 q 789 874 735 1028 q 875 886 839 878 q 953 908 904 892 q 1043 938 1018 931 q 1092 931 1069 944 q 1122 892 1115 918 q 1116 842 1129 865 q 1076 813 1103 819 q 996 786 1056 807 q 903 758 939 767 q 836 747 872 753 q 892 600 886 615 q 957 469 915 535 q 996 421 975 439 q 1003 414 999 417 l 1007 410 q 1015 400 1011 406 q 1025 383 1021 393 q 1022 331 1035 357 q 981 299 1008 306 q 963 296 972 296 q 950 297 956 296 q 874 340 911 304 q 846 364 850 363 q 608 408 761 414 q 424 356 497 404 q 353 224 347 306 q 374 158 356 183 q 438 108 393 133 q 694 69 550 46 q 833 100 736 75 q 992 133 933 125 q 1040 122 1018 138 q 1066 79 1063 106 q 1053 31 1069 53 q 1011 6 1038 8 q 865 -26 958 -3 q 714 -60 763 -51 q 374 -6 526 -90 q 267 84 306 32 q 222 215 228 136 q 351 465 213 374 q 603 539 457 533 q 781 526 704 542 q 769 556 775 542 q 752 603 763 575 q 726 669 742 631 q 701 735 711 708 q 688 733 693 735 q 588 717 650 731 q 478 697 508 701 q 390 690 436 690 q 285 690 344 689 q 207 692 225 692 z "},"":{"ha":1297,"x_min":253,"x_max":1158,"o":"m 283 1032 q 307 1076 286 1060 q 355 1091 328 1093 q 399 1068 382 1089 q 414 1021 415 1047 q 383 567 385 706 q 447 181 381 269 q 688 103 531 67 q 829 164 760 119 q 944 265 899 208 q 1031 467 1011 349 q 1056 508 1035 493 q 1105 519 1078 524 q 1147 494 1132 515 q 1158 444 1163 472 q 1047 185 1135 293 q 899 53 988 110 q 717 -24 811 -3 q 510 -19 610 -49 q 342 103 411 10 q 253 567 251 226 q 283 1032 254 711 z "},"":{"ha":1304,"x_min":250,"x_max":1167,"o":"m 288 1031 q 309 1076 289 1058 q 356 1093 329 1094 q 401 1072 383 1092 q 418 1025 419 1051 q 399 806 415 975 q 379 560 382 651 q 458 169 371 278 q 707 88 546 60 q 800 131 744 94 q 910 225 856 168 q 998 338 964 282 q 1036 431 1032 394 q 1061 475 1040 458 q 1109 488 1082 492 q 1153 464 1136 485 q 1167 417 1169 443 q 1113 277 1158 351 q 1004 135 1068 203 q 867 19 940 68 q 729 -40 794 -29 q 522 -28 619 -60 q 356 89 425 3 q 250 564 240 235 q 268 818 253 660 q 288 1031 286 985 m 711 931 q 691 976 692 949 q 708 1022 690 1003 q 753 1042 726 1042 q 800 1025 781 1043 q 847 985 808 1018 q 913 923 885 951 q 961 865 940 894 q 972 817 976 843 q 944 774 967 790 q 896 763 922 758 q 853 790 869 768 q 817 834 838 814 q 763 883 797 854 q 711 931 729 913 m 869 1025 q 866 1074 857 1049 q 899 1112 875 1100 q 949 1115 924 1124 q 986 1081 975 1106 q 1025 1014 999 1057 q 1071 936 1057 963 q 1075 887 1083 913 q 1042 849 1067 861 q 992 844 1018 836 q 954 878 967 853 q 914 946 943 899 q 869 1025 883 994 z "},"":{"ha":1319,"x_min":83,"x_max":1182,"o":"m 713 517 q 601 604 678 596 q 517 585 553 610 q 467 522 481 560 q 467 442 454 485 q 518 376 479 400 q 615 382 558 350 q 667 422 644 397 q 699 472 689 447 q 713 517 706 494 m 710 1057 q 721 1105 706 1083 q 763 1131 736 1126 q 812 1119 790 1135 q 838 1076 833 1104 q 857 940 850 1000 q 968 940 871 940 q 1117 939 1065 939 q 1163 919 1143 939 q 1182 874 1182 900 q 1163 828 1182 847 q 1117 808 1143 808 q 868 811 1115 808 q 849 524 875 651 q 860 471 856 499 q 858 287 875 382 q 797 126 840 192 q 738 55 771 86 q 662 -1 704 24 q 592 -38 619 -25 q 515 -71 565 -51 q 500 -78 506 -76 q 450 -78 475 -89 q 415 -43 425 -68 q 415 7 404 -18 q 450 42 425 32 q 528 75 504 64 q 588 106 551 86 q 647 148 624 126 q 689 199 669 169 q 728 300 715 238 q 678 267 704 281 q 606 240 643 249 q 528 238 569 232 q 449 265 486 243 q 366 350 396 299 q 332 455 336 401 q 345 563 328 508 q 398 657 363 617 q 490 719 433 697 q 615 735 547 742 q 738 689 685 726 q 738 811 740 746 q 618 808 674 810 q 508 802 578 807 q 385 793 438 797 q 265 790 333 789 q 139 800 196 792 q 97 825 113 803 q 84 874 81 847 q 110 916 88 900 q 158 928 132 932 q 270 920 210 921 q 377 923 331 919 q 494 932 424 926 q 615 939 564 938 q 726 940 667 940 q 710 1057 719 992 z "},"":{"ha":1447,"x_min":43,"x_max":1306,"o":"m 694 493 q 650 558 679 528 q 581 603 610 603 q 506 578 540 603 q 456 515 472 553 q 489 388 421 436 q 582 376 518 368 q 678 449 646 383 q 694 493 688 468 m 997 1054 q 988 1104 982 1078 q 1016 1145 993 1131 q 1065 1154 1039 1160 q 1106 1126 1092 1149 q 1126 1093 1117 1110 q 1149 1131 1131 1115 q 1197 1145 1169 1147 q 1240 1122 1224 1143 q 1278 1075 1276 1079 q 1304 1021 1281 1071 q 1306 972 1315 997 q 1272 935 1296 946 q 1222 933 1247 924 q 1185 968 1196 943 q 1175 918 1190 942 q 1215 897 1199 915 q 1231 853 1231 878 q 1210 807 1229 825 q 1164 789 1190 789 q 847 793 1022 793 q 847 635 850 699 q 831 501 843 560 q 801 221 869 368 q 679 45 757 126 q 513 -86 601 -36 q 463 -92 489 -99 q 424 -61 438 -85 q 418 -12 411 -37 q 449 28 425 14 q 583 132 519 67 q 681 271 646 197 q 599 247 643 253 q 414 282 485 232 q 338 367 363 317 q 314 469 313 418 q 336 567 315 519 q 432 685 367 638 q 578 733 497 732 q 718 675 654 735 q 718 792 719 725 q 461 788 693 792 q 108 783 229 783 q 63 803 82 783 q 43 849 43 822 q 63 894 43 875 q 108 914 82 914 q 299 915 197 914 q 522 919 400 917 q 713 922 644 921 q 718 1092 710 1039 q 744 1134 722 1118 q 792 1146 765 1150 q 834 1120 818 1142 q 846 1072 850 1099 q 843 922 840 1031 q 1065 922 964 924 q 1061 931 1063 926 q 997 1054 1031 1003 z "},"":{"ha":1369,"x_min":8,"x_max":1232,"o":"m 851 1031 q 876 1074 854 1057 q 924 1087 897 1090 q 967 1062 950 1083 q 979 1014 983 1040 q 976 801 976 981 q 1163 808 1082 803 q 1210 792 1190 810 q 1232 747 1231 774 q 1215 699 1233 719 q 1171 678 1197 679 q 976 671 1089 674 q 964 481 975 553 q 901 325 947 368 q 725 294 832 257 q 608 357 690 307 q 578 397 585 371 q 586 447 572 424 q 626 476 600 469 q 675 468 653 482 q 768 418 746 425 q 812 419 799 407 q 835 500 825 432 q 846 669 844 563 q 532 660 639 667 q 424 650 485 657 q 424 529 422 586 q 456 283 429 381 q 531 150 483 183 q 615 126 553 135 q 765 118 674 118 q 930 122 828 118 q 1056 126 1032 126 q 1101 107 1082 126 q 1121 61 1121 88 q 1101 15 1121 35 q 1056 -4 1082 -4 q 930 -8 1032 -4 q 765 -12 828 -12 q 597 -3 665 -12 q 458 42 506 10 q 329 250 369 103 q 294 525 299 361 q 293 633 293 576 q 74 617 160 617 q 28 636 47 617 q 8 682 8 656 q 28 728 8 708 q 74 747 47 747 q 293 764 154 747 q 299 765 296 765 q 319 1017 303 835 q 343 1061 322 1044 q 391 1076 364 1078 q 435 1053 418 1074 q 450 1006 451 1032 q 431 782 433 838 q 524 790 482 788 q 846 800 633 797 l 847 800 q 851 1031 846 988 z "},"":{"ha":1471,"x_min":18,"x_max":1329,"o":"m 851 1054 q 874 1099 854 1082 q 922 1115 894 1117 q 966 1092 949 1113 q 982 1046 983 1072 q 979 997 981 1029 q 976 908 978 964 q 972 814 974 851 q 1124 815 1038 815 q 1169 796 1150 815 q 1189 750 1189 776 q 1169 704 1189 724 q 1124 685 1150 685 q 965 685 1031 685 q 949 481 958 556 q 936 403 943 432 q 900 333 924 354 q 729 301 840 281 q 599 349 661 315 q 567 387 575 361 q 572 436 560 413 q 610 467 585 460 q 660 463 636 475 q 754 429 706 439 q 808 428 789 422 q 810 433 808 431 q 819 497 815 456 q 836 682 829 565 q 517 667 660 679 q 425 657 475 664 q 424 464 424 531 q 422 396 424 440 q 422 321 421 351 q 425 263 422 290 q 471 154 435 189 q 565 119 494 132 q 740 110 636 108 q 1067 146 921 114 q 1116 137 1093 151 q 1144 96 1139 122 q 1135 47 1150 69 q 1094 18 1121 24 q 743 -19 936 -17 q 543 -8 626 -22 q 382 60 433 11 q 297 246 313 126 q 291 317 292 279 q 292 402 290 354 q 293 464 293 450 q 294 638 293 529 q 86 615 165 618 q 39 633 58 614 q 18 678 19 651 q 35 725 17 706 q 81 746 54 744 q 288 768 156 749 q 296 769 292 769 q 294 1025 297 921 q 313 1071 294 1051 q 358 1091 331 1090 q 404 1074 385 1092 q 425 1028 424 1056 q 426 789 428 928 q 506 797 469 794 q 842 813 654 808 q 845 910 843 853 q 849 1003 847 968 q 851 1054 850 1038 m 1021 971 q 1015 1020 1008 994 q 1046 1059 1022 1046 q 1095 1065 1069 1072 q 1135 1035 1121 1058 q 1188 943 1158 994 q 1195 894 1201 919 q 1165 854 1189 868 q 1116 847 1142 840 q 1076 876 1090 853 q 1021 971 1044 928 m 1140 1050 q 1140 1100 1129 1075 q 1174 1136 1150 1125 q 1224 1137 1199 1147 q 1260 1103 1249 1126 q 1294 1028 1265 1090 q 1329 946 1317 979 q 1327 897 1339 921 q 1290 863 1315 872 q 1241 865 1265 853 q 1207 901 1217 876 q 1176 972 1197 929 q 1140 1050 1146 1038 z "},"":{"ha":1368,"x_min":75,"x_max":1231,"o":"m 350 904 q 303 918 324 901 q 278 962 282 935 q 292 1010 275 989 q 336 1035 308 1031 q 772 1064 500 1053 q 857 1072 804 1065 q 864 1075 858 1072 q 872 1079 869 1078 q 910 1089 892 1088 q 978 1043 958 1089 q 974 978 992 1013 q 956 949 968 964 q 908 896 939 926 q 829 821 885 872 q 532 597 697 699 q 725 629 572 603 q 968 667 878 656 q 1074 672 974 667 q 1092 674 1085 674 q 1126 681 1113 679 q 1160 683 1146 683 q 1188 678 1175 683 q 1217 656 1203 672 q 1231 615 1231 640 q 1203 563 1231 582 q 1188 554 1196 557 q 1176 551 1182 551 q 1165 549 1172 550 q 1143 547 1158 549 q 1110 544 1131 546 q 1085 538 1100 542 q 949 497 1004 517 q 675 364 757 429 q 603 278 618 321 q 621 178 589 232 q 750 99 657 118 q 940 88 803 88 q 986 68 967 88 q 1006 22 1006 49 q 986 -24 1006 -4 q 940 -43 967 -43 q 722 -29 789 -43 q 510 111 575 3 q 479 318 446 217 q 594 467 507 399 q 608 478 601 472 q 278 446 410 446 q 242 457 258 446 q 153 432 196 442 q 103 441 126 426 q 75 482 81 456 q 84 531 69 508 q 125 560 99 554 q 440 693 268 590 q 740 915 611 796 q 748 922 742 917 q 760 933 754 928 q 350 904 507 924 z "},"":{"ha":1404,"x_min":57,"x_max":1264,"o":"m 925 801 q 906 848 906 821 q 924 894 906 875 q 970 914 943 914 q 1017 896 997 914 q 1133 768 1088 826 q 1147 720 1150 747 q 1122 676 1143 693 q 1097 664 1111 668 q 1147 668 1128 667 q 1169 667 1161 668 q 1183 665 1176 667 q 1208 654 1196 663 q 1235 599 1236 633 q 1207 549 1233 567 q 1146 526 1183 531 q 1135 526 1140 526 q 1128 525 1131 525 q 1125 525 1126 525 q 1122 525 1124 525 q 1043 504 1101 519 q 958 482 985 489 q 883 460 932 475 q 805 431 835 444 q 740 399 775 418 q 679 357 706 379 q 619 196 588 279 q 676 126 635 158 q 779 81 718 93 q 971 79 850 65 q 1019 67 997 83 q 1044 24 1040 50 q 1031 -24 1047 -3 q 988 -49 1014 -46 q 751 -47 843 -67 q 595 24 663 -28 q 499 149 528 76 q 492 308 467 226 q 596 457 518 390 q 636 488 614 472 q 421 467 504 479 q 333 452 376 460 q 251 438 289 444 q 199 428 214 431 q 132 421 154 421 q 86 436 106 422 q 57 507 50 463 q 126 575 65 563 q 138 576 133 576 q 142 576 142 576 l 143 576 q 218 614 169 589 q 289 649 267 639 q 729 918 617 803 l 733 922 q 743 932 739 928 q 549 928 599 931 q 333 913 375 919 q 285 924 307 908 q 258 965 263 939 q 269 1014 254 992 q 311 1040 285 1036 q 373 1049 339 1046 q 428 1053 407 1051 q 490 1056 450 1054 q 543 1058 531 1057 q 690 1062 594 1061 q 811 1064 785 1063 l 825 1068 q 917 1036 886 1085 q 915 943 943 996 q 881 892 904 921 q 821 826 860 867 q 497 607 718 722 q 665 619 561 613 q 921 640 843 631 q 990 651 939 643 q 1069 663 1042 660 q 1078 663 1074 663 q 1031 688 1049 664 q 925 801 990 739 m 1049 907 q 1041 957 1035 931 q 1070 997 1047 983 q 1119 1005 1093 1011 q 1160 976 1146 999 q 1258 813 1244 839 q 1263 763 1271 789 q 1232 725 1256 738 q 1183 720 1208 713 q 1144 751 1157 728 q 1049 907 1132 774 z "},"":{"ha":1351,"x_min":53,"x_max":1213,"o":"m 396 1075 q 425 1116 403 1101 q 474 1124 447 1131 q 515 1096 500 1118 q 524 1047 529 1074 q 499 886 511 990 q 497 874 499 882 q 496 864 496 867 q 654 889 582 871 q 703 882 679 896 q 733 842 726 868 q 725 793 739 817 q 685 764 711 769 q 478 732 593 740 q 475 713 476 722 q 382 339 443 546 q 308 132 344 215 q 219 -18 264 24 q 174 -35 200 -36 q 128 -15 147 -35 q 110 31 110 4 q 131 76 111 57 q 189 182 154 99 q 257 378 221 260 q 344 725 313 563 q 231 725 307 725 q 119 724 156 725 q 74 742 93 724 q 53 788 54 761 q 72 833 53 814 q 117 854 90 853 q 241 855 158 854 q 364 857 324 856 q 367 879 365 864 q 369 900 368 894 q 396 1075 382 1013 m 714 531 q 665 532 689 521 q 631 569 640 543 q 632 619 621 594 q 669 653 643 643 q 808 688 731 676 q 936 701 886 699 q 1071 703 986 703 q 1117 683 1097 703 q 1136 638 1136 664 q 1117 592 1136 611 q 1071 572 1097 572 q 942 571 990 572 q 829 560 893 569 q 714 531 765 550 m 644 400 q 690 417 664 418 q 735 397 717 417 q 753 351 754 378 q 733 306 753 325 q 671 206 686 260 q 685 150 660 168 q 814 115 722 124 q 985 117 893 108 q 1135 140 1078 126 q 1183 131 1160 146 q 1212 91 1206 117 q 1203 42 1218 65 q 1163 13 1189 19 q 997 -12 1099 -1 q 803 -14 894 -22 q 610 43 676 -4 q 545 128 563 78 q 546 242 528 179 q 644 400 571 329 z "},"":{"ha":1378,"x_min":92,"x_max":1236,"o":"m 368 1086 q 400 1124 376 1111 q 449 1128 424 1136 q 488 1097 475 1121 q 493 1047 500 1074 q 467 907 476 996 q 463 871 465 896 q 629 907 560 885 q 678 903 654 915 q 711 865 703 890 q 707 815 719 839 q 668 782 694 790 q 444 738 574 753 q 371 361 388 432 q 226 -15 310 103 q 185 -42 211 -37 q 136 -31 158 -46 q 110 11 114 -15 q 121 60 106 38 q 244 392 189 157 q 310 726 267 485 q 146 736 213 724 q 103 763 119 740 q 92 811 88 785 q 119 853 97 838 q 168 864 142 869 q 331 857 232 853 q 334 888 332 867 q 338 922 336 910 q 368 1086 349 1022 m 671 546 q 622 560 643 543 q 599 605 601 578 q 613 653 596 632 q 657 676 631 674 q 830 690 689 679 q 1047 713 971 701 q 1095 701 1074 717 q 1121 658 1117 685 q 1109 610 1125 632 q 1067 585 1093 589 q 845 561 990 572 q 671 546 700 550 m 639 410 q 686 424 660 426 q 730 401 713 422 q 745 354 747 381 q 722 310 743 328 q 664 211 678 272 q 683 146 653 167 q 821 111 725 117 q 1006 122 908 107 q 1150 157 1103 138 q 1199 158 1174 168 q 1235 123 1224 147 q 1235 74 1246 99 q 1200 38 1225 49 q 1028 -7 1140 11 q 814 -19 915 -25 q 610 38 682 -11 q 536 242 506 110 q 639 410 561 344 m 861 1001 q 848 1049 844 1022 q 872 1092 851 1075 q 919 1106 893 1110 q 964 1082 946 1103 q 1069 928 1028 1001 q 1075 878 1082 904 q 1044 840 1068 853 q 995 833 1021 826 q 956 864 969 840 q 861 1001 919 929 m 1003 1047 q 986 1094 985 1068 q 1008 1140 988 1121 q 1054 1157 1028 1158 q 1100 1136 1081 1156 q 1210 992 1171 1057 q 1217 942 1224 968 q 1188 903 1211 917 q 1138 895 1164 889 q 1099 925 1113 901 q 1003 1047 1067 979 z "},"":{"ha":1283,"x_min":100,"x_max":1135,"o":"m 456 1085 q 481 1128 460 1111 q 528 1142 501 1146 q 572 1118 554 1139 q 586 1071 589 1097 q 551 878 575 978 q 781 874 658 869 q 999 901 903 878 q 1049 894 1025 908 q 1078 855 1072 881 q 1071 806 1085 829 q 1032 776 1057 782 q 965 762 1000 768 q 902 751 929 756 q 833 746 875 747 q 772 743 792 744 q 704 742 753 742 q 644 744 656 743 q 577 747 632 744 q 517 749 522 749 q 428 507 481 631 q 425 499 426 504 q 499 529 460 514 q 657 566 567 554 q 833 568 747 578 q 952 542 897 561 q 1057 481 1007 524 q 1131 375 1107 438 q 1134 226 1158 297 q 1058 103 1110 156 q 944 26 1007 50 q 727 -19 871 -1 q 503 -29 583 -37 q 353 8 443 -22 q 315 40 328 17 q 312 90 303 64 q 344 128 321 115 q 394 131 368 140 q 517 101 471 106 q 711 110 582 94 q 899 149 840 126 q 992 227 958 171 q 1008 331 1025 283 q 819 439 975 422 q 674 438 749 447 q 546 407 599 428 q 376 325 444 369 l 372 319 q 365 314 368 315 q 335 292 351 297 q 254 308 289 271 q 240 330 244 318 q 236 349 236 342 l 236 354 q 238 365 236 360 q 239 372 238 368 q 242 381 240 376 q 249 401 244 389 q 271 460 257 424 q 308 557 300 539 q 381 751 350 656 q 154 769 239 754 q 112 796 128 774 q 101 844 96 818 q 128 887 106 871 q 176 897 150 903 q 418 881 256 883 q 456 1085 446 988 z "},"":{"ha":1383,"x_min":103,"x_max":1243,"o":"m 163 771 q 119 794 136 774 q 103 841 101 814 q 126 885 106 868 q 174 901 146 903 q 308 889 221 897 q 424 879 396 881 q 453 1058 442 965 q 478 1101 457 1085 q 526 1115 499 1118 q 569 1090 553 1111 q 583 1042 586 1069 q 554 869 572 953 q 951 897 789 857 q 1000 890 976 904 q 1030 851 1024 876 q 1022 801 1036 825 q 982 772 1008 778 q 524 740 796 725 q 460 551 497 646 q 438 496 451 533 q 457 503 447 500 q 825 540 647 568 q 1013 465 932 524 q 1126 299 1094 407 q 1089 93 1161 181 q 924 -12 1035 25 q 738 -50 839 -42 q 563 -51 638 -58 q 497 -40 533 -47 q 422 -22 461 -32 q 368 -8 383 -11 q 327 20 342 -3 q 318 69 313 43 q 347 110 324 96 q 396 119 369 125 q 458 104 422 114 q 522 88 494 94 q 576 79 550 82 q 725 80 639 72 q 882 111 811 88 q 989 175 958 138 q 1001 263 1017 210 q 804 411 965 386 q 499 381 660 435 q 410 329 475 372 q 363 299 372 304 q 340 286 350 290 q 322 281 331 282 q 267 293 290 274 q 239 364 233 321 q 253 399 242 381 q 264 414 256 401 q 338 599 276 444 q 390 750 368 675 q 288 760 369 753 q 163 771 206 768 m 886 1029 q 876 1079 871 1053 q 905 1120 882 1106 q 954 1129 928 1135 q 994 1101 981 1124 q 1003 1088 999 1094 q 1010 1077 1007 1082 q 1014 1071 1014 1072 q 1029 1107 1017 1092 q 1074 1130 1047 1128 q 1121 1115 1100 1132 q 1238 975 1199 1050 q 1242 926 1250 951 q 1211 888 1235 900 q 1162 883 1188 875 q 1124 914 1136 890 q 1081 975 1104 950 q 1058 915 1086 939 q 1011 901 1038 899 q 967 924 985 903 q 951 942 958 933 q 940 956 943 951 q 931 965 936 960 q 925 973 926 971 q 920 979 924 975 q 916 985 917 983 q 911 992 915 986 q 905 1000 907 997 q 897 1013 903 1003 q 886 1029 890 1022 z "},"":{"ha":1211,"x_min":171,"x_max":1068,"o":"m 267 451 q 217 444 243 438 q 177 474 190 451 q 171 524 164 497 q 200 563 178 550 q 388 640 271 604 q 619 689 504 676 q 739 693 675 697 q 859 676 803 689 q 965 628 915 664 q 1043 540 1015 593 q 1068 351 1085 461 q 1047 269 1063 308 q 1013 200 1032 231 q 965 141 994 169 q 910 92 935 113 q 847 50 885 71 q 783 17 808 29 q 715 -12 757 4 q 651 -35 672 -28 q 589 -56 629 -43 q 578 -60 582 -58 q 528 -56 553 -68 q 496 -17 504 -43 q 500 33 488 8 q 539 65 513 57 q 635 97 597 83 q 723 133 674 111 q 804 176 772 154 q 867 227 836 199 q 915 292 897 256 q 940 371 933 328 q 929 479 950 439 q 825 551 901 529 q 633 560 749 572 q 427 517 531 549 q 267 451 324 485 z "},"":{"ha":1311,"x_min":68,"x_max":1171,"o":"m 160 676 q 110 672 136 664 q 72 705 85 681 q 68 755 60 729 q 101 793 76 781 q 321 872 189 838 q 589 917 453 906 q 1089 806 936 943 q 1171 575 1163 740 q 1150 392 1176 454 q 875 142 1090 253 q 540 21 708 53 q 492 31 514 15 q 464 72 469 46 q 474 121 458 99 q 515 149 489 143 q 815 257 664 178 q 1031 444 989 347 q 1040 569 1046 478 q 1003 708 1035 679 q 841 778 947 758 q 599 786 735 797 q 355 746 475 776 q 160 676 235 715 z "},"":{"ha":1461,"x_min":65,"x_max":1319,"o":"m 146 672 q 97 678 121 665 q 66 716 74 690 q 71 765 58 742 q 110 797 83 789 q 471 883 347 867 q 768 886 600 901 q 1067 799 979 867 q 1178 568 1174 715 q 1076 267 1183 378 q 1001 203 1046 233 q 919 156 956 174 q 824 108 883 138 q 493 -1 650 29 q 444 8 467 -7 q 417 50 422 24 q 426 99 411 76 q 468 126 442 121 q 768 228 610 154 q 903 294 854 267 q 983 356 951 322 q 1047 565 1051 428 q 986 696 1044 650 q 756 757 929 742 q 488 756 603 771 q 146 672 374 739 m 986 1008 q 968 1055 967 1028 q 989 1101 969 1082 q 1035 1118 1008 1119 q 1081 1097 1063 1117 q 1089 1089 1085 1093 q 1107 1160 1074 1131 q 1155 1176 1128 1178 q 1199 1154 1182 1174 q 1318 960 1264 1078 q 1319 910 1329 936 q 1285 874 1310 885 q 1235 872 1261 863 q 1199 907 1210 882 q 1168 971 1183 942 q 1194 899 1183 938 q 1189 850 1201 874 q 1151 819 1176 826 q 1101 824 1125 811 q 1069 863 1078 836 q 986 1008 1046 944 z "},"":{"ha":1325,"x_min":79,"x_max":1182,"o":"m 150 772 q 103 788 124 771 q 80 832 82 806 q 95 879 78 858 q 139 903 113 900 q 445 921 229 910 q 776 944 661 932 q 896 955 814 947 q 1021 968 978 963 l 1028 969 q 1044 972 1033 969 q 1067 975 1056 974 q 1101 979 1089 978 q 1115 981 1110 981 q 1129 981 1122 981 q 1153 974 1142 979 q 1182 942 1174 963 q 1179 883 1194 911 q 1170 871 1175 876 q 1161 864 1165 865 l 1158 861 l 1154 858 l 1153 858 q 1150 857 1151 857 q 1147 855 1149 856 q 1144 854 1146 854 q 1136 851 1142 853 q 1110 840 1133 850 q 1029 808 1063 821 q 901 753 914 761 q 728 609 800 686 q 629 457 656 532 q 769 165 571 294 q 960 89 853 111 q 1001 61 986 83 q 1011 13 1017 39 q 983 -29 1006 -14 q 935 -39 961 -44 q 697 57 803 -11 q 509 263 556 149 q 506 500 463 378 q 760 811 563 661 q 447 791 651 801 q 150 772 243 781 z "},"":{"ha":1401,"x_min":71,"x_max":1263,"o":"m 142 785 q 94 801 115 783 q 72 844 74 818 q 87 892 69 871 q 131 915 104 913 q 503 954 332 933 q 658 961 561 961 q 803 967 764 963 q 831 969 807 967 q 900 976 856 972 q 975 985 944 981 q 1086 996 1047 992 q 1124 999 1110 999 q 1135 1000 1131 1000 q 1139 1000 1136 1000 l 1142 1000 q 1151 999 1147 1000 q 1168 994 1160 997 q 1207 935 1207 978 q 1193 892 1207 910 q 1158 867 1179 874 q 1119 863 1142 861 q 1113 863 1118 863 q 1106 864 1107 863 q 1091 859 1099 861 q 1074 853 1083 857 q 1060 847 1065 850 q 869 767 924 804 q 700 585 782 706 q 656 300 585 418 q 935 125 724 188 q 974 93 961 117 q 978 44 986 69 q 947 6 971 18 q 899 0 924 -7 q 544 233 638 76 q 592 660 429 422 q 743 833 665 767 q 660 832 722 832 q 519 824 569 831 q 142 785 346 803 m 928 658 q 907 703 908 676 q 924 749 906 729 q 969 771 943 769 q 1017 753 996 772 q 1132 625 1097 679 q 1140 576 1146 603 q 1111 535 1133 550 q 1063 527 1089 521 q 1021 556 1036 533 q 928 658 997 594 m 1057 743 q 1047 792 1042 765 q 1075 833 1053 818 q 1124 843 1097 849 q 1165 815 1150 838 q 1253 683 1238 708 q 1263 635 1268 661 q 1234 594 1257 608 q 1185 585 1211 579 q 1144 614 1158 590 q 1057 743 1129 638 z "},"":{"ha":1264,"x_min":215,"x_max":1126,"o":"m 989 808 q 1037 794 1015 811 q 1061 750 1058 776 q 1047 702 1064 724 q 1003 678 1029 681 q 676 581 829 660 q 408 371 522 501 q 338 263 356 310 q 344 193 319 217 q 456 153 368 171 q 668 129 539 136 q 1061 124 761 124 q 1107 104 1088 124 q 1126 58 1126 85 q 1107 13 1126 32 q 1061 -7 1088 -7 q 660 -1 757 -7 q 431 25 522 7 q 256 99 307 50 q 215 308 168 182 q 311 457 242 378 q 482 614 388 544 q 451 751 465 678 q 419 916 436 824 q 392 1054 401 1008 q 401 1103 386 1081 q 443 1131 417 1125 q 492 1121 469 1136 q 519 1079 514 1106 q 552 909 524 1056 q 599 688 581 763 q 989 808 781 786 z "},"":{"ha":1358,"x_min":233,"x_max":1221,"o":"m 963 800 q 1011 794 988 807 q 1042 756 1035 782 q 1038 707 1050 731 q 999 675 1025 683 q 825 619 888 642 q 688 563 763 597 q 553 483 614 528 q 425 371 493 438 q 350 271 375 321 q 343 199 326 222 q 435 158 358 178 q 636 132 513 140 q 1013 133 810 121 q 1060 117 1040 135 q 1082 72 1081 99 q 1065 24 1083 44 q 1021 3 1047 4 q 628 3 810 -8 q 404 32 493 11 q 238 124 281 63 q 233 328 175 210 q 333 463 267 399 q 511 611 424 551 l 511 613 q 400 1064 408 856 q 417 1110 399 1090 q 463 1132 436 1131 q 509 1115 489 1133 q 531 1069 529 1096 q 625 678 538 892 q 963 800 733 731 m 839 986 q 824 1033 822 1007 q 847 1077 826 1060 q 894 1092 868 1094 q 939 1069 921 1090 q 1044 921 1003 993 q 1050 872 1057 897 q 1019 833 1043 846 q 970 826 996 819 q 931 857 944 833 q 839 986 896 918 m 1008 1044 q 1003 1094 996 1068 q 1033 1133 1010 1119 q 1083 1139 1057 1146 q 1122 1108 1108 1132 q 1147 1069 1131 1093 q 1176 1026 1169 1036 q 1221 906 1213 967 q 1207 858 1224 879 q 1163 834 1190 838 q 1115 847 1136 831 q 1090 892 1094 864 q 1065 957 1088 922 q 1039 996 1061 965 q 1008 1044 1021 1024 z "},"":{"ha":1392,"x_min":67,"x_max":1254,"o":"m 833 240 q 679 243 757 256 q 553 188 601 231 q 524 147 525 163 q 551 90 521 117 q 643 51 581 63 q 758 56 706 40 q 831 104 811 72 q 835 240 851 138 l 833 240 m 404 1075 q 430 1117 408 1101 q 478 1129 451 1133 q 520 1103 504 1125 q 532 1056 536 1082 q 486 861 521 978 q 650 899 578 871 q 700 897 675 908 q 735 861 725 886 q 733 811 744 836 q 697 776 722 786 q 444 726 589 735 q 319 405 388 561 q 193 161 250 249 q 153 133 179 139 q 103 142 126 128 q 75 183 81 157 q 85 233 69 210 q 306 725 188 390 q 126 736 243 728 q 83 759 100 739 q 67 806 65 779 q 90 851 69 833 q 138 867 110 868 q 349 854 274 856 q 404 1075 392 992 m 835 783 q 794 813 808 790 q 787 863 781 836 q 816 903 793 889 q 865 911 839 917 q 1186 778 1067 864 q 1213 736 1208 763 q 1201 688 1217 710 q 1160 661 1186 665 q 1111 672 1133 657 q 835 783 1011 743 m 810 619 q 834 663 813 647 q 883 676 856 679 q 926 651 910 672 q 938 603 942 629 q 929 446 925 507 q 946 347 931 418 q 1046 307 1000 331 q 1105 268 1074 293 q 1153 227 1136 243 q 1200 178 1169 211 q 1236 140 1231 144 q 1254 94 1254 121 q 1235 48 1254 67 q 1188 29 1215 29 q 1142 49 1161 29 q 1103 91 1131 61 q 1062 134 1075 121 q 1028 164 1049 147 q 988 190 1007 181 q 971 199 979 194 q 942 35 979 96 q 804 -67 896 -40 q 621 -76 713 -93 q 539 -52 579 -69 q 463 -7 499 -35 q 408 64 428 21 q 393 158 389 107 q 467 285 399 225 q 807 375 593 397 q 799 438 800 414 q 810 619 794 511 z "},"":{"ha":1310,"x_min":100,"x_max":1171,"o":"m 254 1104 q 299 1125 272 1124 q 346 1108 326 1126 q 367 1062 365 1089 q 349 1015 368 1035 q 258 728 292 954 q 231 376 232 556 q 244 235 229 314 q 264 315 253 269 l 274 361 q 303 401 281 388 q 353 409 326 415 q 393 380 379 403 q 401 331 407 357 q 392 294 400 326 q 376 225 385 263 q 358 153 367 188 q 328 46 340 86 q 313 4 319 21 q 278 -40 297 -28 q 210 -43 244 -62 q 192 -29 200 -37 q 183 -17 188 -24 q 178 -4 181 -12 q 167 24 172 7 q 139 114 151 64 q 100 379 99 261 q 129 746 103 567 q 254 1104 169 1013 m 544 782 q 501 805 518 785 q 485 852 483 825 q 508 897 488 879 q 556 913 528 914 q 827 899 719 896 q 1094 933 935 901 q 1143 924 1121 939 q 1171 882 1165 908 q 1161 833 1176 856 q 1119 806 1146 811 q 830 768 949 771 q 544 782 711 765 m 625 544 q 674 552 649 558 q 714 522 700 546 q 722 473 728 499 q 692 433 715 447 q 672 422 681 426 q 659 415 663 417 q 653 410 656 413 q 647 407 650 408 q 624 376 640 401 q 590 269 597 336 q 601 200 585 213 q 822 163 660 158 q 1074 199 965 167 q 1124 193 1100 206 q 1154 154 1147 181 q 1149 104 1161 128 q 1110 74 1136 81 q 825 33 985 38 q 526 94 619 28 q 461 283 449 150 q 515 449 471 381 q 568 510 543 492 q 625 544 571 513 z "},"":{"ha":1453,"x_min":88,"x_max":1314,"o":"m 283 561 q 228 390 239 490 q 217 261 217 296 q 240 175 219 199 q 271 158 256 158 q 317 176 290 158 q 422 285 369 210 q 426 292 424 289 q 283 561 338 418 m 1035 193 q 1026 197 1031 194 q 861 267 919 271 q 764 235 793 263 q 751 161 739 211 q 789 104 763 122 q 849 94 807 89 q 942 125 892 99 q 1035 193 994 153 m 628 739 q 604 736 615 738 q 386 660 479 717 q 500 417 428 532 q 628 739 563 538 m 732 1065 q 765 1102 740 1090 q 815 1105 789 1114 q 852 1072 840 1096 q 854 1021 864 1047 q 804 867 833 963 q 958 815 892 853 q 1122 665 1051 763 q 1217 454 1192 568 q 1207 226 1242 340 q 1289 163 1278 169 q 1314 119 1310 146 q 1302 72 1318 93 q 1260 46 1286 50 q 1211 57 1233 42 q 1139 114 1194 69 q 1003 10 1082 51 q 913 -27 958 -14 q 813 -36 868 -40 q 717 -4 758 -32 q 626 128 650 40 q 674 329 592 251 q 853 397 738 390 q 1093 310 953 403 q 1051 532 1110 418 q 894 701 993 646 q 765 740 842 732 q 659 447 713 574 q 528 210 606 319 q 386 67 461 114 q 272 29 328 29 q 146 86 200 28 q 88 257 90 144 q 97 404 86 301 q 238 708 119 596 q 207 967 207 838 q 226 1013 207 993 q 272 1032 246 1032 q 318 1013 299 1032 q 338 967 338 993 q 353 790 338 879 q 583 865 457 844 q 669 874 626 871 q 732 1065 707 993 z "},"":{"ha":1418,"x_min":53,"x_max":1281,"o":"m 990 185 q 974 196 982 190 q 774 249 856 276 q 742 225 747 239 q 746 189 738 213 q 785 137 758 160 q 836 110 813 114 q 943 125 904 100 q 990 185 972 143 m 175 229 q 140 193 164 204 q 90 192 115 182 q 54 227 65 203 q 53 276 43 251 q 68 314 57 285 q 81 344 75 333 q 126 411 93 368 q 278 563 179 476 q 276 599 276 588 q 275 642 276 619 q 272 695 274 665 q 269 742 271 725 q 136 724 231 736 q 88 735 110 719 q 63 778 67 751 q 76 827 60 806 q 119 851 92 849 q 267 874 222 867 q 286 1074 267 989 q 315 1115 293 1100 q 364 1123 338 1129 q 405 1094 390 1117 q 414 1046 419 1072 q 397 899 399 981 q 435 908 415 904 q 483 902 460 915 q 514 863 507 889 q 508 814 521 838 q 468 783 494 790 q 399 765 435 774 q 402 713 400 747 q 404 663 404 678 q 511 735 458 703 q 767 854 651 822 q 1015 835 917 894 q 1129 656 1104 781 q 1138 597 1135 629 q 1142 528 1140 564 q 1146 482 1144 493 q 1139 232 1158 336 q 1263 111 1185 190 q 1280 65 1281 92 q 1260 19 1279 38 q 1215 1 1242 0 q 1168 19 1188 1 q 1092 99 1118 72 q 1014 15 1061 46 q 817 -18 933 -37 q 702 37 754 -8 q 626 139 650 82 q 619 271 597 210 q 732 371 646 342 q 1019 322 864 417 q 1015 471 1024 389 q 1013 524 1014 492 q 1009 582 1011 557 q 1001 631 1007 607 q 949 724 988 700 q 800 728 897 754 q 579 625 704 703 q 410 503 494 572 q 458 54 419 221 q 449 6 464 29 q 409 -23 435 -17 q 360 -15 383 -29 q 331 26 338 0 q 285 392 296 181 q 229 331 250 357 q 197 286 203 299 q 189 268 194 281 q 175 229 178 238 z "},"":{"ha":1375,"x_min":103,"x_max":1231,"o":"m 757 899 q 756 892 757 896 q 740 806 750 853 q 721 727 729 760 q 698 642 713 694 q 676 567 683 590 q 610 356 643 440 q 537 227 583 290 q 435 128 490 164 q 282 99 357 78 q 144 221 200 121 q 103 442 103 296 q 103 468 103 444 q 103 499 103 492 q 103 528 103 507 q 106 562 104 550 q 110 592 107 574 q 117 627 113 611 q 126 658 121 643 q 237 831 160 754 q 403 952 314 908 q 588 1014 492 996 q 940 979 811 1057 q 1185 739 1117 875 q 1231 583 1218 671 q 1231 410 1243 496 q 1178 238 1218 317 q 1071 110 1139 158 q 725 -3 944 19 q 676 12 697 -6 q 653 56 656 29 q 667 104 650 83 q 711 128 685 125 q 996 215 897 146 q 1101 426 1082 276 q 1102 564 1111 496 q 1068 681 1093 632 q 874 868 1017 782 q 757 899 828 896 m 624 888 q 613 886 618 888 q 387 790 489 863 q 249 617 285 718 q 244 600 246 608 q 240 581 242 592 q 238 565 239 571 q 235 546 236 558 q 234 528 235 533 q 233 507 233 522 q 233 487 233 492 q 233 464 233 482 q 233 442 233 446 q 258 285 233 329 q 315 225 288 232 q 364 238 335 219 q 434 307 400 260 q 488 403 468 354 q 551 600 519 481 q 576 691 557 624 q 606 802 596 758 q 624 888 617 846 z "},"":{"ha":1390,"x_min":93,"x_max":1253,"o":"m 883 225 q 635 253 710 297 q 601 224 608 238 q 593 188 593 211 q 623 121 593 146 q 706 90 653 96 q 809 106 761 86 q 875 160 857 125 q 883 225 882 171 m 229 1082 q 272 1106 246 1103 q 320 1093 299 1110 q 345 1050 342 1076 q 332 1001 349 1024 q 244 678 279 932 q 224 313 213 447 q 232 257 225 288 q 245 294 236 268 q 258 332 254 319 q 288 410 279 394 q 324 443 299 433 q 373 441 349 453 q 407 404 397 429 q 404 354 417 379 q 381 289 400 344 q 363 240 378 282 q 340 172 349 197 q 299 61 314 100 q 279 19 288 35 q 268 0 274 8 q 228 -28 251 -22 q 165 -12 192 -37 q 150 8 156 -4 q 143 29 146 17 q 138 58 142 39 q 128 126 131 115 q 117 175 125 140 q 102 242 108 210 q 93 301 96 275 q 115 696 81 450 q 229 1082 154 985 m 861 1065 q 889 1107 867 1092 q 938 1117 911 1122 q 979 1089 964 1111 q 989 1040 994 1067 q 968 835 968 936 q 1075 864 986 839 q 1125 858 1101 871 q 1156 819 1149 844 q 1149 769 1163 793 q 1111 739 1136 746 q 978 703 1006 710 q 982 658 979 688 q 1003 456 997 515 q 1013 308 1010 372 q 1233 156 1153 238 q 1253 110 1253 136 q 1233 64 1253 83 q 1188 44 1214 44 q 1142 64 1161 44 q 1008 163 1094 111 q 989 96 1003 121 q 865 -12 949 22 q 694 -39 781 -47 q 613 -20 651 -35 q 540 21 574 -6 q 485 90 506 47 q 463 185 464 132 q 568 364 461 300 q 879 367 683 433 q 874 443 878 400 q 853 644 868 503 q 849 681 850 665 q 836 679 843 681 q 650 679 793 676 q 482 669 544 681 q 433 680 456 664 q 406 722 411 696 q 417 771 401 749 q 460 797 433 793 q 651 808 533 811 q 828 810 789 807 q 839 810 833 810 q 861 1065 836 936 z "},"":{"ha":1457,"x_min":78,"x_max":1315,"o":"m 849 231 q 715 253 778 256 q 637 236 672 251 q 586 200 601 221 q 608 107 557 163 l 608 106 q 611 105 610 106 q 614 103 613 104 q 619 102 615 103 q 626 100 622 101 q 634 97 629 99 q 644 96 639 96 q 733 94 685 89 q 815 118 782 101 q 832 127 825 122 q 840 135 839 132 l 842 136 q 849 231 851 164 m 215 1076 q 258 1102 231 1099 q 306 1090 285 1106 q 331 1047 328 1074 q 318 999 335 1019 q 225 668 251 910 q 208 282 208 518 q 213 239 208 274 q 288 414 253 350 q 326 444 300 438 q 376 439 353 451 q 407 400 400 426 q 401 350 414 374 q 335 194 372 297 q 265 21 290 71 l 265 18 q 260 -1 261 4 q 239 -36 251 -22 q 167 -58 208 -68 q 126 -28 140 -51 q 119 -15 122 -22 q 114 1 117 -8 q 108 33 111 14 q 94 124 101 69 q 78 282 78 249 q 96 682 78 525 q 215 1076 126 960 m 1011 1058 q 1020 1108 1006 1085 q 1061 1136 1035 1131 q 1122 1117 1097 1144 q 1172 1161 1135 1154 q 1222 1151 1200 1167 q 1249 1110 1244 1136 q 1264 1053 1254 1081 q 1290 989 1274 1026 q 1315 924 1306 951 q 1313 874 1325 899 q 1276 840 1301 850 q 1235 840 1256 833 q 1201 864 1214 846 q 1188 851 1194 857 q 1229 814 1218 843 q 1230 764 1240 789 q 1194 729 1219 739 q 940 664 1081 682 q 947 524 942 585 q 958 429 949 500 q 972 319 968 358 l 972 318 q 1200 164 1076 265 q 1223 120 1221 147 q 1208 72 1225 93 q 1165 49 1192 51 q 1117 64 1138 47 q 978 167 1042 125 q 964 94 975 124 q 874 1 944 36 q 750 -35 821 -25 q 624 -33 683 -43 q 514 18 550 -21 q 445 153 453 83 q 483 281 438 224 q 581 354 519 328 q 710 383 643 381 q 835 369 771 386 q 817 513 818 506 q 811 653 811 574 q 490 671 656 647 q 448 695 464 674 q 435 744 432 717 q 460 787 439 771 q 510 799 482 803 q 811 783 665 776 q 806 1021 813 940 q 822 1068 804 1047 q 865 1091 839 1089 q 913 1076 892 1093 q 936 1032 933 1058 q 942 796 943 947 q 1133 844 1047 811 q 1093 881 1106 854 q 1053 957 1088 893 q 1011 1058 1022 1013 z "},"":{"ha":1472,"x_min":104,"x_max":1322,"o":"m 878 240 q 733 260 803 260 q 576 192 596 261 q 588 118 563 146 q 675 76 617 86 q 794 88 740 67 q 865 149 849 110 q 878 240 879 182 m 1203 1007 q 1167 1021 1193 1015 q 1154 1025 1160 1022 q 1142 1015 1147 1021 q 1138 994 1129 1001 q 1174 986 1157 982 q 1201 1004 1192 990 q 1203 1007 1203 1006 m 208 1061 q 240 1099 217 1086 q 290 1103 264 1111 q 328 1072 315 1096 q 333 1022 340 1049 q 231 281 199 585 q 290 407 257 344 q 328 438 303 431 q 378 433 354 446 q 409 395 401 421 q 404 346 417 369 q 310 117 347 236 q 289 51 292 60 q 289 49 289 50 q 289 46 289 47 q 288 39 289 44 q 288 25 288 33 q 250 -51 283 -25 q 183 -60 219 -75 q 153 -35 164 -51 q 143 -12 147 -25 q 138 15 140 -3 q 133 45 136 24 q 128 79 129 67 q 104 243 114 164 q 208 1061 61 582 m 857 1072 q 888 1111 864 1099 q 938 1117 911 1124 q 976 1086 964 1110 q 982 1036 989 1063 q 958 831 958 954 q 1133 858 1044 840 q 1063 889 1096 865 q 1010 958 1022 917 q 1008 1037 997 1000 q 1044 1101 1019 1074 q 1104 1145 1069 1129 q 1183 1158 1139 1161 q 1268 1129 1228 1156 q 1293 1101 1285 1119 q 1322 1064 1311 1085 q 1310 931 1354 997 q 1251 878 1288 899 q 1172 856 1214 857 q 1213 807 1206 842 q 1203 758 1218 781 q 1161 731 1188 736 q 964 700 1060 711 q 978 542 968 644 q 992 414 989 440 q 1000 336 992 403 q 1035 319 1019 328 q 1085 287 1058 307 q 1126 252 1111 267 q 1168 211 1142 238 q 1200 181 1194 185 q 1219 134 1218 161 q 1201 88 1219 107 q 1155 69 1182 69 q 1108 86 1128 68 q 1075 120 1099 97 q 1036 158 1051 143 q 1006 183 1021 172 q 985 99 1001 136 q 900 -3 958 36 q 779 -52 842 -42 q 656 -53 717 -62 q 490 31 550 -35 q 451 228 418 113 q 497 309 465 275 q 569 360 528 343 q 650 383 610 376 q 733 390 690 390 q 864 376 796 390 q 861 403 863 392 q 849 524 860 419 q 833 689 839 628 q 500 694 667 679 q 456 718 472 697 q 441 766 439 739 q 464 810 443 793 q 511 825 485 826 q 829 819 671 810 q 857 1072 828 971 z "},"":{"ha":1463,"x_min":97,"x_max":1325,"o":"m 157 868 q 113 891 131 871 q 98 938 96 911 q 120 983 100 965 q 168 999 140 1000 q 421 1011 321 986 q 489 1032 424 1013 q 533 1044 518 1040 q 547 1047 542 1046 q 554 1050 551 1049 q 558 1050 557 1050 q 567 1051 563 1051 q 582 1050 575 1051 q 629 1011 615 1046 q 632 967 639 989 q 626 954 629 960 q 622 947 624 950 q 617 942 619 944 q 613 936 615 939 q 596 918 607 931 q 547 867 560 881 q 449 754 472 788 q 340 554 385 664 q 288 344 294 444 q 476 50 271 119 q 674 68 578 17 q 753 128 719 93 q 806 206 786 164 q 838 299 825 249 q 853 403 850 349 q 859 516 857 457 q 858 633 861 575 q 856 688 858 661 q 846 759 853 714 q 838 819 839 804 q 835 847 836 829 q 832 865 833 851 q 829 874 832 867 q 826 883 826 881 q 819 922 818 904 q 842 968 822 950 q 890 988 861 988 q 931 975 913 988 q 946 961 939 969 q 964 939 954 953 q 997 888 978 921 q 1016 854 1006 872 q 1034 823 1026 836 q 1042 808 1042 810 q 1076 760 1057 783 q 1110 719 1094 736 q 1154 678 1125 703 q 1197 641 1183 653 q 1249 600 1211 629 q 1300 561 1288 571 q 1324 517 1321 544 q 1311 469 1328 490 q 1267 445 1294 449 q 1219 458 1240 442 q 1175 493 1207 468 q 1125 533 1143 518 q 1080 569 1107 547 q 1031 615 1053 592 q 988 661 1008 638 q 989 636 989 647 q 990 521 992 583 q 985 396 988 458 q 965 269 982 333 q 922 148 947 204 q 848 40 896 92 q 735 -46 800 -11 q 435 -72 589 -125 q 296 -1 354 -46 q 207 102 238 44 q 164 222 176 160 q 157 354 151 285 q 218 601 165 475 q 343 829 271 728 q 376 871 356 847 q 157 868 283 860 z "},"":{"ha":1446,"x_min":88,"x_max":1306,"o":"m 158 860 q 111 876 132 858 q 88 919 90 893 q 103 967 86 946 q 147 990 121 988 q 285 990 190 993 q 403 992 363 988 q 475 1008 422 994 q 494 1014 482 1011 q 510 1018 506 1017 q 523 1021 518 1019 q 531 1022 528 1022 q 540 1024 535 1024 q 554 1022 547 1024 q 597 993 582 1017 q 604 935 614 967 q 594 913 601 924 q 572 882 586 900 q 513 817 553 858 q 414 711 417 715 q 308 517 343 615 q 285 321 272 419 q 374 153 299 222 q 472 88 432 99 q 615 110 532 71 q 808 272 763 181 q 851 539 847 351 q 836 786 854 663 q 819 901 824 864 q 817 928 817 918 q 817 940 817 935 q 821 960 817 950 q 844 990 828 979 q 915 993 879 1015 q 928 984 922 989 q 935 976 933 979 l 936 974 q 939 969 938 971 q 941 966 940 968 q 943 961 942 964 q 947 950 944 957 q 963 918 951 942 q 985 869 983 872 q 1089 704 1026 793 q 1168 619 1113 668 q 1269 526 1251 544 q 1287 481 1288 507 q 1267 435 1286 454 q 1221 417 1247 417 q 1175 438 1194 418 q 1082 522 1161 451 q 981 629 1015 581 q 982 536 983 583 q 967 353 979 429 q 925 215 956 278 q 671 -7 858 82 q 436 -37 543 -68 q 285 58 367 -17 q 183 200 217 121 q 150 356 150 279 q 172 513 150 432 q 229 661 194 594 q 308 789 264 728 q 374 860 321 806 q 279 860 339 858 q 158 860 193 863 m 979 957 q 960 1003 960 976 q 979 1049 960 1029 q 1025 1068 999 1068 q 1071 1049 1051 1068 q 1083 1115 1057 1086 q 1128 1138 1101 1136 q 1175 1121 1156 1139 q 1300 964 1253 1053 q 1305 915 1313 940 q 1274 876 1297 889 q 1224 872 1250 864 q 1186 903 1199 879 q 1119 994 1157 956 q 1175 886 1153 951 q 1173 835 1185 860 q 1135 802 1161 811 q 1085 805 1110 793 q 1053 842 1061 817 q 1024 903 1039 881 q 979 957 1010 926 z "},"":{"ha":1460,"x_min":97,"x_max":1313,"o":"m 1119 1022 q 1108 997 1111 1014 q 1114 949 1103 968 q 1139 926 1125 929 q 1169 934 1153 924 q 1190 960 1185 944 q 1188 981 1193 971 q 1128 1019 1174 1003 q 1119 1022 1124 1021 m 160 872 q 114 894 132 874 q 97 941 96 914 q 119 986 99 968 q 165 1003 139 1004 q 414 1022 285 996 q 426 1025 415 1022 q 453 1031 438 1028 q 483 1038 469 1035 q 528 1047 513 1043 q 547 1050 539 1049 q 558 1050 553 1050 q 574 1049 567 1050 q 621 1008 606 1043 q 586 913 643 951 l 572 904 q 444 754 501 828 q 358 593 399 693 q 304 396 317 493 q 410 124 274 176 q 558 101 483 92 q 692 146 632 111 q 792 243 751 181 q 839 382 832 306 q 835 775 860 594 q 808 910 822 861 l 800 924 q 789 961 790 943 q 807 1014 786 992 q 858 1035 828 1035 q 921 1000 900 1035 q 935 965 931 985 q 936 951 936 953 q 1007 819 968 881 q 1247 557 1085 694 q 1270 513 1268 539 q 1255 465 1272 486 q 1211 442 1238 444 q 1164 457 1185 440 q 976 642 1056 549 q 969 371 982 510 q 922 208 961 283 q 822 81 883 132 q 688 -1 761 29 q 528 -31 614 -31 q 363 1 443 -31 q 253 74 297 28 q 192 176 210 121 q 169 293 175 231 q 175 413 164 356 q 238 642 190 526 q 342 832 285 758 q 382 885 361 858 q 160 872 265 867 m 1233 1143 q 1264 1117 1253 1135 q 1275 1079 1275 1100 q 1299 1050 1289 1065 q 1313 918 1336 988 q 1237 824 1293 860 q 1117 799 1181 788 q 1026 848 1061 808 q 982 933 992 888 q 981 1022 972 979 q 1063 1140 997 1104 q 1233 1143 1135 1181 z "},"":{"ha":1393,"x_min":69,"x_max":1254,"o":"m 389 946 q 351 978 363 954 q 348 1028 339 1003 q 381 1066 357 1054 q 431 1068 406 1078 q 503 1042 458 1058 q 575 1015 549 1025 q 639 995 601 1006 q 708 979 676 985 q 819 969 747 974 q 865 967 840 968 q 873 967 868 967 q 879 967 878 967 q 883 967 882 967 q 886 967 885 967 q 890 967 888 967 q 896 965 893 965 q 907 961 901 964 q 924 951 917 957 q 947 897 949 931 q 933 861 946 878 q 925 853 929 857 q 919 847 922 850 q 915 846 917 846 q 913 844 914 844 q 911 843 913 843 q 908 842 910 843 q 900 838 906 840 q 872 824 879 828 q 817 796 832 803 q 715 722 757 763 q 664 643 669 678 q 699 531 660 604 q 753 442 717 500 q 797 372 790 383 q 872 193 864 265 q 788 3 888 76 q 672 -49 739 -32 q 547 -54 606 -65 q 511 -44 529 -51 q 476 -27 493 -37 q 447 -9 458 -17 q 419 10 435 -1 q 401 22 404 21 q 374 64 379 38 q 383 113 368 90 q 425 140 399 135 q 474 131 451 146 q 504 110 485 124 q 531 91 524 96 q 549 81 538 86 q 569 74 560 75 q 642 78 601 68 q 710 108 683 88 q 743 176 749 136 q 686 304 738 221 q 641 376 681 314 q 585 469 601 438 q 535 660 525 579 q 625 817 546 740 q 669 854 646 836 q 578 877 624 863 q 468 916 532 892 q 389 946 404 940 m 250 507 q 287 542 261 532 q 337 540 313 551 q 371 503 361 529 q 369 453 381 478 q 340 372 358 429 q 304 274 321 308 q 270 210 290 243 q 224 135 250 176 q 189 81 197 94 q 149 51 175 57 q 99 58 122 44 q 70 99 76 72 q 78 147 64 125 q 115 208 90 169 q 157 274 140 246 q 188 329 174 301 q 215 410 200 356 q 250 507 236 475 m 953 457 q 938 503 936 476 q 960 548 940 531 q 1008 563 981 565 q 1053 540 1035 561 q 1254 124 1199 368 q 1245 75 1260 97 q 1204 47 1231 53 q 1156 55 1178 40 q 1126 96 1133 69 q 953 457 1079 308 z "},"":{"ha":1449,"x_min":57,"x_max":1308,"o":"m 357 953 q 322 989 332 964 q 322 1038 311 1014 q 358 1073 333 1063 q 407 1072 383 1083 q 576 1007 508 1029 q 715 981 643 985 q 806 979 744 978 q 824 979 811 979 q 843 979 838 979 q 858 979 853 979 q 865 979 863 979 q 876 976 871 978 q 890 971 883 975 q 924 924 919 956 q 893 849 931 881 q 853 822 879 836 q 817 804 850 821 q 765 776 785 788 q 650 633 657 714 q 686 533 646 596 q 735 467 703 508 q 792 396 783 406 q 876 225 864 299 q 797 25 893 114 q 683 -40 749 -18 q 554 -53 618 -62 q 396 10 483 -43 q 366 50 372 24 q 374 99 360 76 q 414 128 388 122 q 463 121 440 135 q 571 75 528 82 q 643 83 606 71 q 708 122 681 96 q 747 204 754 163 q 688 317 740 246 q 633 386 681 326 q 578 463 597 432 q 519 647 511 563 q 650 857 532 769 q 357 953 540 874 m 232 511 q 263 549 239 536 q 312 556 286 563 q 351 525 338 549 q 357 475 364 501 q 354 465 356 469 l 354 464 q 342 382 354 447 q 322 313 335 349 q 285 237 308 278 q 251 176 263 196 q 208 110 239 156 q 175 60 178 64 q 135 31 161 36 q 85 40 108 25 q 57 81 63 54 q 67 129 51 107 q 101 184 71 138 q 141 246 132 231 q 170 297 150 261 q 199 357 190 332 q 214 407 208 382 q 217 422 215 415 q 214 429 215 426 l 215 425 q 214 429 214 428 q 214 442 214 436 q 214 450 214 446 q 215 453 215 451 q 217 456 215 454 l 217 456 q 218 460 217 458 q 218 463 218 461 q 232 511 222 478 m 968 792 q 958 841 953 814 q 986 883 964 868 q 1035 892 1008 897 q 1076 864 1063 886 q 1118 807 1089 844 q 1167 742 1151 765 q 1176 692 1182 718 q 1148 651 1171 665 q 1099 642 1125 636 q 1058 669 1072 647 q 1017 726 1046 689 q 968 792 983 768 m 1107 871 q 1096 919 1092 893 q 1122 961 1100 946 q 1171 972 1144 976 q 1213 946 1197 968 q 1239 910 1218 938 q 1276 860 1260 883 q 1303 815 1292 838 q 1308 766 1315 792 q 1276 728 1300 740 q 1227 723 1253 715 q 1189 754 1201 731 q 1167 789 1179 772 q 1137 830 1156 806 q 1107 871 1118 854 m 956 458 q 942 506 939 479 q 967 549 946 533 q 1016 562 989 565 q 1058 536 1043 558 q 1107 463 1085 501 q 1150 380 1129 425 q 1182 306 1171 335 q 1214 222 1193 276 q 1242 149 1235 167 q 1240 99 1251 124 q 1204 64 1229 74 q 1154 65 1179 54 q 1119 101 1129 76 q 1091 178 1111 124 q 1060 258 1071 232 q 1032 325 1050 285 q 995 397 1014 365 q 956 458 976 429 z "},"":{"ha":1414,"x_min":79,"x_max":1265,"o":"m 761 942 q 771 949 767 946 q 761 942 765 947 m 1108 868 q 1050 856 1069 882 q 1064 790 1025 824 q 1107 776 1086 774 q 1140 797 1128 779 q 1143 829 1150 813 q 1108 868 1136 849 m 1171 983 q 1194 971 1182 978 q 1219 944 1211 961 q 1265 875 1251 913 q 1249 726 1294 796 q 1131 649 1207 663 q 981 690 1054 635 q 912 813 919 742 q 946 933 904 883 q 1072 1001 993 996 q 1135 1004 1103 1019 q 1171 983 1154 994 m 389 942 q 351 974 364 950 q 346 1023 338 997 q 378 1062 354 1049 q 428 1067 401 1075 q 498 1044 453 1058 q 569 1021 543 1029 q 632 1003 594 1013 q 701 988 669 993 q 779 978 711 986 q 787 979 781 978 q 796 981 793 981 q 833 979 817 983 q 869 958 854 974 q 886 918 883 942 q 868 861 892 888 q 853 847 863 854 q 821 825 843 840 q 740 768 767 789 q 643 622 640 689 q 663 554 644 586 q 718 479 681 522 q 741 455 724 474 q 767 426 758 436 q 791 397 775 417 q 817 362 807 376 q 837 326 826 347 q 854 285 847 306 q 865 135 881 204 q 800 17 850 65 q 682 -49 751 -31 q 539 -54 613 -68 q 504 -47 521 -51 q 472 -33 488 -42 q 444 -19 456 -25 q 415 -1 432 -12 q 392 17 399 11 q 368 35 385 22 q 349 50 351 47 q 324 93 328 67 q 338 141 321 119 q 381 166 354 163 q 429 153 407 169 q 444 141 433 150 q 459 129 456 132 q 473 119 463 126 q 487 108 483 111 q 499 100 490 106 q 511 92 507 94 q 523 86 515 90 q 536 81 531 82 q 548 77 542 79 q 561 74 554 75 q 708 110 654 57 q 732 243 760 160 q 720 269 728 256 q 707 291 713 282 q 689 316 701 300 q 670 339 676 332 q 646 365 664 346 q 621 392 628 385 q 571 453 590 426 q 533 526 551 481 q 513 619 514 571 q 651 865 508 749 q 568 885 610 874 q 465 917 526 897 q 389 942 404 938 m 235 510 q 267 548 243 535 q 316 553 290 561 q 355 521 342 544 q 360 471 368 497 q 200 76 297 271 q 162 44 188 53 q 113 47 136 35 q 80 85 89 60 q 83 135 71 111 q 235 510 176 319 m 951 483 q 960 532 946 510 q 1001 560 975 554 q 1050 552 1028 567 q 1079 511 1072 538 q 1115 433 1086 479 q 1176 331 1164 360 q 1231 78 1221 229 q 1214 30 1232 50 q 1169 8 1196 10 q 1122 25 1142 7 q 1100 69 1101 43 q 1057 278 1093 197 q 1006 364 1049 297 q 951 483 964 428 z "},"":{"ha":1422,"x_min":50,"x_max":1285,"o":"m 169 381 q 131 349 157 357 q 82 354 106 342 q 51 392 58 367 q 56 442 43 418 q 132 558 79 485 q 243 699 185 632 q 375 825 315 781 q 532 875 464 890 q 707 753 607 858 q 825 608 758 697 q 1015 403 910 497 q 1257 215 1119 310 q 1284 172 1279 199 q 1273 124 1289 146 q 1231 97 1257 101 q 1182 107 1204 92 q 926 308 1039 207 q 722 531 814 408 q 611 664 658 614 q 504 747 540 740 q 499 746 503 747 q 489 742 494 744 q 474 733 483 739 q 453 719 464 728 q 340 613 404 683 q 238 484 286 551 q 169 381 189 417 z "},"":{"ha":1372,"x_min":56,"x_max":1235,"o":"m 174 385 q 135 356 161 363 q 85 362 108 349 q 56 401 63 375 q 63 451 49 428 q 222 671 113 538 q 329 789 282 743 q 436 864 392 850 q 506 869 460 871 q 572 860 550 868 q 779 682 668 828 q 830 612 800 654 q 881 541 860 569 q 922 492 903 513 q 1208 246 1017 393 q 1234 203 1231 231 q 1222 155 1238 176 q 1178 130 1206 133 q 1131 143 1151 126 q 828 403 929 296 q 781 460 807 425 q 722 538 754 494 q 675 603 690 582 q 531 738 589 717 q 501 739 522 739 l 475 739 q 419 694 460 735 q 324 589 378 654 q 174 385 219 464 m 867 829 q 852 876 850 849 q 874 920 854 903 q 922 935 894 938 q 967 913 949 933 q 1093 744 1054 810 q 1101 695 1107 721 q 1071 656 1094 669 q 1022 648 1047 642 q 982 678 996 654 q 867 829 949 733 m 992 888 q 968 931 971 904 q 983 979 965 958 q 1027 1003 1000 1000 q 1075 988 1054 1006 q 1225 807 1181 901 q 1228 758 1238 783 q 1195 720 1219 732 q 1145 717 1171 708 q 1108 751 1119 726 q 992 888 1075 818 z "},"":{"ha":1388,"x_min":46,"x_max":1249,"o":"m 975 815 q 989 814 982 814 q 1036 819 1024 810 q 1043 836 1042 825 q 1029 879 1044 860 q 1017 883 1024 881 q 992 886 999 890 q 978 865 983 882 q 974 824 971 844 q 975 815 975 818 m 933 1003 q 979 1019 953 1021 q 994 1019 985 1019 q 1006 1019 1003 1019 q 1057 1014 1035 1021 q 1146 940 1114 994 q 1174 826 1178 885 q 1115 717 1168 757 q 975 683 1061 675 q 900 706 925 689 q 844 804 856 738 q 854 910 836 857 q 929 1000 878 972 q 933 1003 931 1001 m 163 361 q 119 336 146 340 q 72 348 93 332 q 46 390 50 364 q 57 439 42 417 q 253 688 153 568 q 378 825 326 775 q 435 874 411 857 q 514 897 478 903 q 589 857 547 893 q 646 799 613 836 q 697 740 661 782 q 731 701 724 710 q 883 538 786 646 q 1060 352 981 429 q 1221 219 1139 275 q 1249 178 1243 204 q 1239 129 1254 151 q 1197 101 1224 107 q 1149 111 1171 96 q 972 256 1060 171 q 784 453 885 340 q 639 610 683 565 q 599 656 628 621 q 549 713 564 696 q 503 760 521 743 q 501 761 501 760 q 469 732 488 750 q 351 603 422 686 q 163 361 254 488 z "},"":{"ha":1381,"x_min":108,"x_max":1243,"o":"m 875 211 q 813 228 843 221 q 619 224 676 260 q 582 161 578 196 q 622 98 588 121 q 714 75 657 75 q 813 101 771 76 q 865 163 856 126 q 875 211 872 185 m 213 1093 q 251 1125 225 1117 q 300 1120 276 1133 q 332 1081 324 1107 q 326 1032 340 1056 q 298 969 311 1001 q 276 899 285 938 q 260 831 267 860 q 250 756 254 803 q 243 683 246 708 q 240 603 240 658 q 239 529 239 549 q 239 449 239 510 q 239 372 239 388 q 240 311 239 340 q 275 382 256 346 q 313 413 288 406 q 363 408 339 421 q 394 370 386 396 q 389 321 401 344 q 307 94 336 219 q 305 83 306 89 q 303 65 304 76 q 303 40 303 53 q 265 -56 299 -21 q 232 -75 251 -71 q 190 -69 213 -79 q 163 -46 172 -62 q 153 -26 157 -37 q 146 1 150 -17 q 128 115 139 38 q 108 372 108 242 q 108 455 108 386 q 108 547 108 524 q 110 635 108 571 q 116 733 113 700 q 127 823 119 765 q 146 919 135 881 q 174 1006 157 958 q 213 1093 190 1053 m 488 579 q 443 602 461 582 q 427 649 425 622 q 449 693 429 675 q 496 710 469 711 q 828 708 649 700 q 825 858 819 793 l 824 858 q 747 857 789 857 q 676 858 704 857 q 596 860 649 858 q 524 863 543 863 q 479 883 497 864 q 462 930 461 903 q 482 975 463 957 q 529 993 501 993 q 624 990 538 993 q 719 987 711 986 q 815 989 728 988 q 956 1007 869 992 q 1104 1033 1081 1031 q 1153 1022 1132 1038 q 1178 978 1175 1006 q 1166 930 1182 951 q 1124 906 1150 908 q 979 879 1101 901 q 958 876 968 878 q 957 717 947 813 q 1144 736 1044 724 q 1192 722 1171 739 q 1216 678 1213 706 q 1203 631 1219 651 q 1158 606 1186 610 q 976 588 1061 594 q 982 551 978 578 q 1011 297 1011 386 q 1096 251 1060 275 q 1140 219 1118 238 q 1190 174 1161 201 q 1222 144 1218 147 q 1243 99 1242 126 q 1226 52 1244 72 q 1181 31 1208 32 q 1133 47 1154 29 q 1098 82 1122 58 q 1058 119 1074 106 q 1026 143 1043 132 q 999 158 1014 150 q 990 126 994 143 q 886 -7 967 40 q 715 -56 806 -54 q 603 -37 657 -56 q 506 28 550 -19 q 454 144 463 75 q 474 253 446 204 q 550 332 501 303 q 842 356 653 399 q 879 346 860 351 q 854 529 875 410 q 850 552 853 535 q 846 579 847 569 q 488 579 653 568 z "},"":{"ha":1442,"x_min":97,"x_max":1303,"o":"m 853 235 q 671 254 771 265 q 572 214 608 249 q 554 143 542 185 q 601 92 564 113 q 694 75 638 72 q 793 101 751 76 q 847 160 835 125 q 853 235 856 183 m 190 1058 q 228 1090 203 1082 q 278 1086 254 1099 q 311 1048 303 1074 q 307 997 319 1022 q 232 649 250 889 q 226 296 222 500 q 275 443 253 385 q 309 481 285 469 q 359 482 333 492 q 396 448 385 472 q 397 399 407 424 q 339 218 374 335 q 281 29 301 86 l 278 21 q 271 1 275 10 q 262 -19 268 -8 q 235 -42 256 -29 q 189 -53 214 -56 q 138 -19 156 -49 q 128 1 132 -11 q 119 35 124 14 q 108 115 114 65 q 97 256 99 206 q 103 657 92 494 q 190 1058 122 925 m 1019 1050 q 1021 1101 1010 1076 q 1057 1135 1032 1125 q 1101 1135 1079 1143 q 1136 1108 1124 1128 q 1175 1149 1146 1139 q 1226 1147 1201 1158 q 1258 1110 1250 1135 q 1303 939 1288 1026 q 1292 890 1308 913 q 1250 864 1276 868 q 1203 874 1225 860 q 1153 828 1192 836 q 1104 838 1126 822 q 1076 879 1082 853 q 1067 919 1072 899 q 1046 889 1061 901 q 1011 874 1031 876 q 958 869 985 872 q 964 707 956 833 q 1040 716 990 710 q 1113 725 1090 722 q 1161 711 1140 728 q 1185 667 1182 694 q 1172 619 1189 640 q 1129 594 1156 599 q 1053 586 1107 593 q 971 576 1000 579 q 981 318 976 463 q 1019 295 999 308 q 1055 272 1040 282 q 1093 242 1069 261 q 1127 215 1117 224 q 1165 185 1138 207 q 1200 156 1192 163 q 1224 112 1221 139 q 1209 64 1226 85 q 1165 40 1192 43 q 1117 56 1138 38 q 981 164 1014 139 q 969 115 978 136 q 863 -9 940 35 q 699 -56 786 -53 q 591 -44 643 -58 q 493 9 539 -29 q 429 104 447 47 q 483 308 393 224 q 657 385 551 374 q 849 372 760 394 q 842 563 846 476 q 457 563 615 542 q 414 587 431 565 q 401 635 397 608 q 426 678 404 661 q 474 690 447 694 q 835 693 619 672 q 828 863 825 821 q 496 860 749 860 q 450 879 469 860 q 431 925 431 899 q 450 971 431 951 q 496 990 469 990 q 578 990 517 990 q 666 990 640 990 q 745 991 692 990 q 832 993 799 992 q 911 997 865 994 q 997 1004 957 1000 q 1042 992 1022 1006 q 1031 1021 1039 1001 q 1019 1050 1024 1040 z "},"":{"ha":1472,"x_min":101,"x_max":1331,"o":"m 868 221 q 707 263 779 264 q 642 246 672 263 q 594 204 611 229 q 597 97 558 153 q 651 63 615 72 q 732 62 686 53 q 811 94 778 71 q 854 146 844 118 q 868 221 865 178 m 1200 981 q 1194 983 1197 982 q 1192 979 1193 982 q 1200 981 1197 979 m 199 1099 q 239 1126 213 1121 q 288 1117 265 1132 q 317 1076 311 1103 q 307 1026 322 1050 q 235 668 257 950 q 231 267 215 424 q 300 407 269 365 q 343 432 317 428 q 391 420 369 436 q 417 378 413 404 q 406 329 421 351 q 324 144 379 294 q 285 44 297 71 q 263 4 272 19 q 240 -18 251 -10 q 179 -28 211 -37 q 142 0 156 -21 q 136 11 139 6 q 133 21 135 15 q 131 32 132 25 q 126 57 129 40 q 117 129 122 83 q 101 249 106 215 q 106 678 85 415 q 199 1099 129 993 m 1219 1132 q 1266 1117 1246 1133 q 1289 1075 1286 1101 q 1331 953 1349 1025 q 1272 873 1318 903 q 1171 851 1226 843 q 1083 900 1114 858 q 1051 883 1069 888 q 954 865 1004 874 q 953 703 944 803 q 1115 735 1069 718 q 1166 733 1142 744 q 1199 695 1190 721 q 1197 645 1208 669 q 1160 613 1185 621 q 968 574 1100 592 q 976 522 971 558 q 1000 299 997 372 q 1081 250 1018 288 q 1182 193 1144 211 q 1216 156 1207 182 q 1213 106 1225 131 q 1176 73 1201 82 q 1126 76 1150 64 q 1014 139 1083 97 q 990 153 1008 142 q 976 104 985 126 q 892 -8 953 36 q 757 -67 831 -51 q 609 -60 682 -81 q 492 22 536 -40 q 447 156 447 90 q 486 278 447 221 q 579 360 521 329 q 704 393 638 392 q 865 364 782 394 q 847 504 860 415 q 844 528 847 507 q 839 561 840 549 q 833 560 836 560 q 499 572 588 540 q 462 605 474 581 q 459 655 450 629 q 492 692 468 681 q 543 694 517 704 q 822 690 604 672 l 824 690 q 821 850 815 782 q 496 875 622 835 q 457 908 469 883 q 453 958 444 932 q 485 996 461 983 q 535 1000 510 1008 q 685 976 596 979 q 860 983 775 974 q 1024 1011 944 993 q 1064 1007 1044 1015 l 1065 1008 q 1119 1092 1078 1057 q 1219 1132 1161 1126 z "},"":{"ha":1331,"x_min":125,"x_max":1192,"o":"m 640 244 q 485 274 535 279 q 357 235 406 263 q 314 167 313 207 q 352 91 315 121 q 451 57 389 61 q 563 79 514 53 q 626 154 611 106 q 640 244 640 193 m 615 1092 q 642 1133 619 1118 q 690 1144 664 1149 q 732 1118 717 1140 q 743 1069 747 1096 q 731 921 732 1003 q 1114 963 943 926 q 1163 953 1140 968 q 1192 913 1186 939 q 1183 863 1197 886 q 1142 835 1168 840 q 735 790 958 796 q 744 663 738 739 q 1022 692 793 667 q 1070 677 1049 694 q 1094 633 1092 660 q 1080 585 1097 607 q 1036 561 1063 564 q 756 533 808 538 q 765 396 763 454 q 768 336 765 392 q 833 308 800 324 q 1017 213 931 265 q 1151 119 1104 161 q 1172 74 1171 101 q 1156 27 1174 47 q 1110 6 1138 7 q 1063 22 1083 4 q 948 103 1026 57 q 781 190 869 150 q 768 196 774 193 q 751 113 763 150 q 677 1 729 46 q 565 -60 625 -43 q 443 -72 506 -76 q 324 -44 381 -68 q 227 35 268 -19 q 183 161 186 89 q 290 346 179 279 q 468 401 363 389 q 635 382 533 410 q 635 390 635 386 q 625 524 633 442 q 238 543 361 508 q 198 574 211 550 q 192 623 185 597 q 222 662 199 649 q 271 668 246 675 q 614 653 374 640 q 604 789 607 732 q 188 803 540 789 q 142 824 161 804 q 125 870 124 843 q 146 916 126 897 q 193 933 165 935 q 601 919 539 919 q 615 1092 603 1015 z "},"":{"ha":1397,"x_min":82,"x_max":1260,"o":"m 440 486 q 406 481 424 483 q 264 402 319 465 q 213 261 208 339 q 238 167 215 193 q 251 157 246 157 q 278 167 261 156 q 347 244 322 193 q 440 486 394 346 m 950 810 q 974 853 953 836 q 1022 868 994 871 q 1066 844 1049 865 q 1081 796 1083 824 q 1076 657 1075 744 q 1076 507 1078 546 q 1072 454 1075 481 q 1235 344 1156 406 q 1259 301 1256 328 q 1246 253 1263 275 q 1203 228 1229 232 q 1154 242 1176 225 q 1040 321 1099 285 q 765 -54 972 128 q 718 -71 744 -72 q 674 -49 692 -69 q 657 -1 656 -28 q 679 43 658 25 q 925 386 871 213 q 578 488 746 474 q 464 189 522 310 q 415 115 447 153 q 346 56 383 78 q 244 26 296 24 q 138 83 182 31 q 82 256 88 142 q 165 486 75 388 q 383 608 254 585 q 482 619 432 617 q 542 825 539 813 q 581 929 554 865 q 532 926 558 928 q 402 918 486 924 q 293 911 318 913 q 245 928 265 910 q 224 973 225 946 q 240 1020 222 1000 q 285 1042 258 1040 q 395 1049 311 1043 q 524 1057 479 1054 q 631 1063 594 1061 q 667 1063 654 1063 q 681 1063 675 1064 q 690 1061 686 1063 q 704 1058 697 1060 q 738 1026 726 1049 q 729 938 758 983 q 722 927 725 931 q 719 922 719 924 l 718 922 q 667 786 678 824 q 615 615 656 753 q 946 519 778 597 q 946 656 947 551 q 950 810 944 751 z "},"":{"ha":1368,"x_min":61,"x_max":1231,"o":"m 360 579 q 268 535 311 583 q 233 463 238 501 q 256 386 229 425 q 317 379 274 360 q 361 413 343 392 q 382 451 379 433 q 375 518 386 475 q 369 542 375 519 q 360 579 363 565 m 110 790 q 69 820 83 797 q 62 869 56 843 q 91 910 68 896 q 140 918 114 924 q 347 889 239 893 q 364 1047 351 969 q 390 1090 368 1074 q 438 1101 411 1106 q 480 1076 464 1097 q 492 1028 496 1054 q 478 892 482 960 q 686 932 590 900 q 735 928 711 940 q 768 890 760 915 q 764 840 776 864 q 725 807 751 815 q 475 761 610 769 q 481 657 476 708 q 485 651 482 654 q 504 622 494 639 q 531 569 524 590 q 542 497 542 535 q 537 429 542 458 q 517 363 532 400 q 492 308 501 326 q 464 257 482 289 q 457 242 458 246 q 414 144 418 172 q 428 110 411 124 q 558 63 469 76 q 753 64 647 50 q 924 121 858 81 q 1003 214 990 161 q 989 292 1011 249 q 960 342 981 307 q 922 403 935 379 q 918 452 910 426 q 951 490 926 478 q 1001 494 975 503 q 1039 461 1026 486 q 1068 411 1047 444 q 1104 351 1093 372 q 1131 183 1150 265 q 1080 83 1117 128 q 992 10 1043 39 q 886 -37 940 -19 q 772 -64 832 -56 q 539 -65 663 -83 q 347 7 415 -47 q 286 165 269 69 q 311 243 292 200 q 150 308 208 228 q 105 422 111 363 q 117 531 99 482 q 171 621 135 581 q 251 683 204 658 q 346 710 297 708 q 344 758 344 735 q 110 790 222 764 m 864 849 q 840 892 843 865 q 855 940 838 919 q 899 964 872 961 q 947 949 926 967 q 1026 893 964 935 q 1117 821 1085 853 q 1152 782 1135 804 q 1190 731 1169 760 q 1217 696 1211 701 q 1230 647 1233 674 q 1205 604 1226 621 q 1157 591 1183 588 q 1114 615 1131 594 q 1084 656 1103 631 q 1052 699 1065 682 q 1025 729 1039 715 q 953 785 1001 751 q 864 849 886 831 z "},"":{"ha":1367,"x_min":118,"x_max":1229,"o":"m 349 618 q 263 479 299 561 q 240 242 201 343 q 285 189 258 192 q 371 221 317 185 q 479 319 424 257 q 349 618 404 467 m 694 776 q 668 774 683 776 q 456 708 544 761 q 465 678 460 693 q 564 442 506 564 q 656 650 632 576 q 694 776 676 715 m 758 1029 q 787 1070 764 1056 q 836 1079 810 1085 q 877 1051 863 1074 q 886 1001 892 1028 q 863 899 875 951 q 882 892 872 896 q 1078 765 993 854 q 1203 563 1164 675 q 1228 408 1226 485 q 1197 253 1231 332 q 1096 114 1164 175 q 1051 79 1075 96 q 1000 50 1028 63 q 951 29 972 38 q 896 12 929 21 q 847 -1 863 3 q 796 -12 832 -4 q 751 -22 760 -19 q 702 -13 725 -28 q 674 28 679 1 q 683 77 668 54 q 724 106 697 100 q 765 114 733 107 q 808 124 797 121 q 846 133 819 126 q 885 144 872 140 q 918 156 897 149 q 952 172 939 164 q 981 189 965 179 q 1010 211 996 199 q 1093 355 1076 271 q 1079 521 1110 439 q 985 673 1050 606 q 840 769 921 740 q 829 772 835 771 q 781 611 807 694 q 669 364 753 526 q 576 233 639 306 q 443 113 513 160 q 269 60 349 50 q 118 194 165 71 q 143 532 61 347 q 304 758 204 671 q 271 1013 261 915 q 296 1056 275 1039 q 343 1070 317 1074 q 387 1046 369 1067 q 401 999 404 1025 q 418 836 394 938 q 654 904 521 889 q 731 910 703 910 q 758 1029 746 971 z "},"":{"ha":1267,"x_min":133,"x_max":1129,"o":"m 467 1081 q 492 1123 471 1107 q 540 1135 514 1139 q 583 1109 567 1131 q 594 1061 599 1088 q 560 826 563 844 q 872 832 740 813 q 920 820 899 836 q 946 778 942 804 q 934 730 950 751 q 892 704 918 708 q 544 697 743 681 q 531 539 536 613 q 531 529 531 535 q 778 517 700 522 q 822 493 804 514 q 837 446 839 472 q 814 402 835 419 q 767 386 793 385 q 526 400 690 393 q 536 256 528 317 q 588 111 551 140 q 686 78 624 82 q 821 100 749 75 q 939 169 892 126 q 994 256 986 211 q 993 349 1006 307 q 943 469 981 390 q 940 519 931 493 q 973 556 949 544 q 1023 559 997 568 q 1060 525 1049 550 q 1065 515 1061 522 q 1089 465 1081 482 q 1108 415 1097 447 q 1124 357 1119 382 q 1128 298 1128 332 q 1122 231 1129 264 q 1032 77 1104 143 q 865 -22 960 11 q 744 -50 806 -43 q 617 -43 682 -57 q 507 8 553 -29 q 407 238 429 71 q 397 406 397 311 q 190 425 278 413 q 147 449 164 428 q 134 497 131 471 q 159 540 138 524 q 207 553 181 557 q 400 536 292 542 q 401 546 401 542 q 415 714 406 624 q 192 785 274 739 q 161 824 168 799 q 167 874 154 850 q 206 904 181 897 q 256 899 232 911 q 432 843 317 864 q 467 1081 436 875 z "},"":{"ha":1276,"x_min":185,"x_max":1132,"o":"m 690 863 q 709 909 690 890 q 755 928 728 928 q 801 910 782 929 q 821 865 819 892 q 818 725 821 840 q 953 717 901 732 q 1067 647 1019 697 q 1132 533 1115 597 q 1123 401 1149 465 q 1028 296 1097 336 q 988 276 1008 285 q 943 263 968 268 q 903 253 918 257 q 858 248 888 250 q 821 245 829 246 q 779 244 813 244 q 744 243 746 243 q 699 261 718 243 q 678 306 679 279 q 696 353 678 333 q 742 374 714 372 q 767 374 746 374 q 794 375 789 375 q 818 376 800 375 q 842 377 836 376 q 864 379 849 378 q 886 383 879 381 q 906 388 893 385 q 927 393 919 390 q 944 400 935 396 q 964 410 954 404 q 1006 501 1021 442 q 974 557 997 532 q 917 592 950 582 q 603 547 833 615 q 521 521 563 535 q 631 -36 622 247 q 613 -82 631 -62 q 567 -102 594 -101 q 521 -85 540 -103 q 500 -39 501 -67 q 399 475 493 222 q 282 419 322 443 q 233 412 258 406 q 193 442 207 418 q 185 491 179 465 q 215 531 192 517 q 350 596 265 560 q 283 747 325 657 q 282 797 272 771 q 316 833 292 822 q 366 835 340 844 q 403 800 392 825 q 472 642 446 706 q 565 672 519 658 q 688 704 631 690 q 689 754 688 722 q 690 813 690 786 q 690 863 690 839 z "},"":{"ha":1346,"x_min":47,"x_max":1208,"o":"m 710 1085 q 738 1126 715 1111 q 786 1136 760 1142 q 828 1108 813 1131 q 838 1060 843 1086 q 833 889 824 988 q 882 893 858 892 q 1118 854 1043 903 q 1208 660 1206 799 q 1053 399 1210 493 q 776 324 935 329 q 731 342 750 324 q 710 387 711 360 q 728 433 710 414 q 774 454 746 453 q 986 511 897 458 q 1078 657 1079 567 q 1049 746 1076 726 q 890 763 1008 771 q 843 758 868 761 q 794 722 828 728 q 735 743 760 715 q 613 717 676 732 q 499 686 557 703 q 524 572 513 633 q 547 438 535 510 q 567 329 560 367 q 604 161 576 278 q 642 -12 631 50 q 631 -61 647 -39 q 589 -88 615 -83 q 540 -77 563 -93 q 514 -35 518 -61 q 478 132 503 24 q 439 304 449 251 q 413 455 435 326 q 374 649 390 583 q 142 554 214 594 q 92 549 118 542 q 53 579 67 556 q 47 628 40 603 q 78 668 54 654 q 338 774 163 715 l 338 775 q 296 871 324 814 q 247 974 254 957 q 246 1024 236 999 q 281 1060 256 1049 q 331 1061 306 1071 q 367 1026 356 1051 q 414 928 374 1011 q 460 819 444 864 q 463 811 461 815 q 583 843 524 829 q 706 869 646 858 q 710 1085 692 990 z "},"":{"ha":1254,"x_min":190,"x_max":1094,"o":"m 811 608 q 771 221 826 428 q 769 214 771 217 q 861 231 821 210 q 964 346 928 267 q 975 485 1001 425 q 879 581 951 540 q 811 608 847 600 m 647 860 q 660 908 643 886 q 703 933 676 929 q 751 919 729 936 q 775 876 772 903 q 794 743 781 840 q 946 694 875 735 q 1094 538 1053 631 q 1082 292 1144 424 q 1015 190 1057 236 q 922 117 972 143 q 725 88 835 69 q 656 -17 697 29 q 543 -111 614 -62 q 494 -123 521 -128 q 452 -96 468 -118 q 441 -47 436 -74 q 468 -6 446 -21 q 551 61 521 31 q 600 129 581 92 q 447 246 510 175 q 431 293 429 267 q 453 338 433 319 q 500 353 474 356 q 544 332 526 351 q 644 253 585 286 l 646 254 q 682 445 675 363 q 681 603 689 528 q 626 583 654 596 q 504 503 561 554 q 410 392 447 451 q 344 225 367 324 l 346 207 q 338 168 344 183 q 304 133 326 144 q 256 129 281 122 q 232 140 242 132 q 218 153 222 147 l 214 160 q 208 171 211 165 q 207 179 207 175 q 206 188 206 183 q 203 206 204 194 q 199 253 201 222 q 195 286 197 268 q 192 315 193 304 q 190 326 192 325 q 288 796 158 599 q 328 824 301 818 q 377 815 354 829 q 406 774 400 800 q 396 724 411 747 q 317 488 328 619 q 572 701 419 632 q 664 733 618 722 q 647 860 651 817 z "},"":{"ha":1369,"x_min":121,"x_max":1204,"o":"m 851 806 q 781 278 860 517 q 871 290 826 279 q 1063 401 1001 319 q 1082 614 1128 488 q 1016 720 1063 667 q 924 793 969 774 q 851 806 897 804 m 686 1058 q 692 1108 679 1085 q 731 1139 706 1132 q 781 1133 757 1146 q 811 1094 804 1119 q 842 936 832 1022 q 974 913 921 935 q 1112 808 1047 882 q 1204 658 1176 733 q 1167 324 1274 467 q 900 163 1078 203 q 728 150 815 144 q 704 108 717 128 q 650 36 682 71 q 593 -18 618 1 q 528 -67 568 -37 q 480 -78 507 -82 q 438 -52 453 -74 q 426 -3 422 -31 q 453 39 431 24 q 538 108 507 78 q 593 175 569 138 q 364 396 413 236 q 369 446 357 422 q 408 477 382 469 q 457 472 433 485 q 489 435 481 460 q 546 349 504 385 q 649 294 588 313 q 721 793 728 514 q 517 722 589 769 q 379 589 460 685 q 275 306 293 486 l 275 306 q 276 300 275 304 q 278 290 276 296 q 236 200 288 226 q 154 219 190 176 q 146 235 150 226 q 143 244 144 239 q 140 256 142 249 q 135 288 138 268 q 124 393 128 336 q 121 699 108 564 q 163 967 135 836 q 191 1008 168 993 q 240 1017 214 1022 q 281 988 267 1011 q 290 939 296 965 q 251 685 264 815 q 247 629 249 658 q 279 672 263 651 q 444 831 372 783 q 699 922 539 892 q 713 924 706 924 q 686 1058 703 999 z "},"":{"ha":1218,"x_min":222,"x_max":1079,"o":"m 599 179 q 490 189 547 190 q 376 151 424 188 q 358 88 342 124 q 406 49 368 68 q 493 24 443 29 q 569 32 543 19 q 601 63 596 44 q 603 121 606 79 q 601 155 603 132 q 599 179 599 178 m 585 847 q 614 888 592 874 q 663 897 636 903 q 703 868 689 890 q 713 819 718 846 q 694 654 696 744 q 974 660 847 644 q 1021 645 1000 663 q 1045 601 1042 628 q 1031 554 1049 575 q 988 529 1014 533 q 700 524 856 515 q 712 408 703 492 q 724 275 721 324 q 833 220 779 253 q 951 142 888 188 q 1050 76 1015 97 q 1078 36 1072 63 q 1071 -13 1085 10 q 1031 -42 1057 -36 q 981 -35 1004 -49 q 856 49 938 -7 q 733 128 774 104 q 726 29 736 65 q 688 -43 715 -14 q 624 -86 660 -72 q 552 -104 588 -100 q 482 -106 517 -108 q 339 -63 407 -99 q 242 32 271 -28 q 222 121 218 78 q 245 197 226 164 q 296 254 264 229 q 388 301 336 285 q 488 319 440 318 q 590 313 540 319 q 581 395 588 329 q 573 489 575 461 q 567 576 571 517 q 565 672 564 635 q 572 757 567 708 q 585 847 576 806 z "},"":{"ha":1269,"x_min":149,"x_max":1131,"o":"m 597 249 q 443 268 519 271 q 279 165 283 264 q 281 135 278 153 q 285 114 283 117 q 338 76 297 93 q 436 58 379 58 q 532 76 493 58 q 581 115 571 93 q 596 196 593 142 q 597 249 596 211 m 572 1050 q 582 1099 567 1076 q 624 1126 597 1121 q 672 1117 650 1132 q 700 1075 694 1101 q 735 794 725 942 q 1040 838 842 789 q 1089 831 1065 844 q 1119 791 1113 817 q 1111 742 1125 765 q 1071 713 1097 718 q 740 664 863 660 q 732 336 744 510 q 856 273 794 310 q 997 183 918 236 q 1101 115 1075 131 q 1130 74 1124 100 q 1122 26 1136 49 q 1081 -3 1107 3 q 1032 4 1056 -10 q 933 69 996 28 q 820 142 869 111 q 726 196 771 172 q 725 189 725 192 q 700 63 722 111 q 593 -40 668 -7 q 436 -72 518 -72 q 279 -42 354 -72 q 171 53 204 -11 q 149 171 146 99 q 172 265 151 224 q 223 330 193 306 q 293 370 253 354 q 368 392 333 386 q 440 399 403 397 q 604 381 521 401 q 610 685 614 542 q 585 715 593 696 q 581 754 576 733 q 604 792 586 778 q 572 1050 596 928 z "},"":{"ha":1268,"x_min":217,"x_max":1131,"o":"m 451 960 q 418 998 426 972 q 422 1048 410 1024 q 460 1081 435 1072 q 510 1076 486 1089 q 572 1044 531 1065 q 628 1015 614 1022 q 673 993 642 1008 q 722 972 704 978 q 768 958 739 967 q 826 943 797 949 q 892 932 856 938 q 934 907 918 929 q 947 858 950 885 q 921 816 943 832 q 872 804 899 800 q 782 822 825 811 q 714 838 739 832 q 644 864 689 844 q 589 889 600 883 q 520 924 578 894 q 451 960 463 954 m 282 835 q 306 878 285 861 q 354 893 328 896 q 398 869 381 890 q 413 821 415 847 q 364 492 404 750 q 444 535 428 529 q 686 592 558 578 q 950 564 856 613 q 1082 449 1035 519 q 1131 299 1129 379 q 1084 146 1131 217 q 951 32 1038 75 q 636 -21 839 -25 q 332 15 488 -17 q 291 44 306 21 q 282 93 276 67 q 310 134 288 119 q 360 143 333 149 q 639 110 501 113 q 893 149 808 106 q 974 216 947 176 q 1000 297 1000 256 q 973 379 1000 339 q 892 447 946 419 q 701 463 832 478 q 489 413 589 450 q 400 363 485 411 q 340 331 361 340 q 314 318 325 322 q 297 314 304 315 q 244 324 268 308 q 217 418 197 357 q 224 436 222 438 q 250 606 226 457 q 282 835 274 756 z "},"":{"ha":1189,"x_min":263,"x_max":1049,"o":"m 346 1117 q 384 1149 358 1140 q 433 1146 410 1158 q 466 1108 457 1133 q 463 1058 475 1082 q 397 799 410 954 q 460 892 426 850 q 511 950 485 924 q 572 999 538 976 q 643 1032 607 1021 q 722 1042 679 1043 q 810 1022 765 1040 q 940 929 886 992 q 1019 797 994 867 q 1049 646 1043 728 q 1032 417 1058 533 q 954 218 1006 301 q 783 41 890 114 q 556 -64 676 -32 q 507 -58 531 -71 q 476 -19 483 -44 q 483 31 469 7 q 522 61 496 54 q 708 148 621 89 q 843 285 794 207 q 905 447 883 351 q 919 636 926 542 q 872 804 911 735 q 760 903 832 874 q 563 813 663 942 q 482 678 517 754 q 429 539 447 603 q 413 446 414 483 l 415 428 q 399 349 424 381 q 371 328 388 335 q 311 332 340 314 q 281 372 289 346 q 275 407 276 385 l 269 485 q 263 629 263 597 q 278 892 261 772 q 346 1117 294 1013 z "},"":{"ha":1329,"x_min":122,"x_max":1188,"o":"m 232 314 q 231 313 231 314 l 232 314 m 753 68 q 600 242 689 215 q 497 232 553 257 q 454 183 453 213 q 517 82 458 111 q 688 60 579 49 q 753 68 719 63 m 331 904 q 285 925 303 906 q 267 972 267 944 q 288 1017 268 999 q 333 1035 307 1035 q 782 1058 476 1031 q 808 1060 786 1058 q 822 1061 819 1060 q 833 1067 825 1063 q 926 1054 888 1090 q 950 972 958 1022 q 935 931 946 953 q 894 883 924 910 q 847 844 876 867 q 819 822 836 835 q 790 801 801 810 q 771 786 778 792 q 707 722 749 767 q 633 649 660 671 q 558 586 603 621 q 604 599 581 593 q 865 625 710 628 q 1031 575 956 624 q 1149 451 1107 526 q 1187 347 1176 401 q 1184 233 1197 292 q 1132 124 1171 174 q 951 -4 1075 50 q 700 -71 826 -58 q 457 -35 553 -83 q 324 175 332 29 q 356 283 321 239 q 444 351 392 328 q 542 375 490 371 q 639 367 594 379 q 878 106 790 321 q 1029 204 988 150 q 1061 293 1060 243 q 1036 388 1063 343 q 963 465 1008 435 q 863 494 917 494 q 638 474 726 497 q 315 356 456 425 q 275 326 313 354 q 183 290 228 290 q 135 311 154 290 q 122 381 107 342 q 129 394 125 388 q 136 403 133 400 l 139 406 q 156 419 143 410 q 210 465 193 450 q 258 508 226 481 q 315 559 289 536 q 365 600 342 582 q 447 664 381 613 q 547 746 513 715 q 613 811 568 765 q 688 886 658 861 q 736 924 696 893 q 331 904 481 900 z "},"":{"ha":1443,"x_min":68,"x_max":1301,"o":"m 188 206 q 149 174 175 182 q 100 178 124 165 q 68 217 76 192 q 74 267 60 243 q 283 515 124 363 q 290 724 285 544 q 290 738 290 731 q 168 728 226 733 q 121 743 142 726 q 98 787 100 760 q 113 835 96 814 q 157 858 129 856 q 290 868 218 864 q 304 1074 289 997 q 333 1115 310 1100 q 382 1124 356 1129 q 423 1095 408 1118 q 432 1046 438 1072 q 419 876 418 982 q 443 878 431 876 q 490 861 469 879 q 511 816 510 843 q 494 769 513 789 q 449 747 476 749 q 421 746 435 747 q 421 718 421 732 q 419 670 419 701 q 418 635 418 639 q 668 825 564 758 q 819 893 753 878 q 1014 838 940 921 q 1064 635 1069 775 q 1036 406 1061 576 q 1018 201 1015 264 q 1043 121 1021 133 q 1107 149 1067 107 q 1179 267 1153 197 q 1214 303 1189 292 q 1264 304 1239 314 q 1300 269 1289 294 q 1301 219 1311 244 q 1201 58 1265 126 q 1160 22 1182 38 q 1108 -5 1138 7 q 1045 -14 1079 -17 q 979 7 1011 -11 q 888 196 893 57 q 907 425 885 271 q 933 640 932 588 q 917 751 938 728 q 849 767 894 778 q 738 714 804 757 q 432 475 608 632 q 413 457 422 467 q 422 6 406 189 q 406 -42 424 -21 q 363 -65 389 -62 q 315 -49 336 -67 q 292 -6 294 -32 q 281 326 279 142 q 188 206 213 253 z "},"":{"ha":1306,"x_min":157,"x_max":1151,"o":"m 318 888 q 271 906 290 888 q 251 951 251 924 q 268 997 250 978 q 313 1018 286 1017 q 575 1029 488 1024 q 760 1047 621 1032 q 843 1056 821 1054 q 871 1058 861 1058 q 883 1058 879 1058 q 894 1057 890 1058 q 910 1053 903 1056 q 943 1021 933 1043 q 944 957 957 992 q 928 928 939 943 q 888 876 914 907 q 819 808 867 854 q 575 569 643 635 q 727 603 660 596 q 876 591 794 610 q 1033 519 958 572 q 1151 375 1121 458 q 1124 158 1196 257 q 954 36 1069 85 q 753 -22 863 -4 q 569 -33 644 -39 q 513 -24 544 -31 q 462 -12 482 -18 q 408 3 442 -7 q 364 17 374 14 q 325 47 338 24 q 319 97 313 71 q 350 136 326 124 q 400 142 374 149 q 448 128 417 138 q 496 113 479 118 q 536 103 513 108 q 581 97 560 99 q 733 107 640 92 q 903 156 825 122 q 1019 236 986 190 q 1029 331 1049 276 q 958 414 1013 375 q 833 467 899 456 q 705 468 767 479 q 551 426 643 457 q 368 335 458 394 q 307 296 328 308 q 267 272 282 281 q 247 263 256 265 q 228 257 238 258 q 221 258 225 257 q 206 261 217 258 q 187 268 196 264 q 169 281 178 272 q 157 301 160 290 q 196 396 138 360 q 210 403 208 403 q 253 447 222 415 q 307 502 283 479 q 353 544 331 525 q 728 900 468 644 q 734 906 729 901 q 742 914 739 911 q 583 899 629 901 q 318 888 494 893 z "},"":{"ha":1258,"x_min":160,"x_max":1121,"o":"m 279 153 q 240 123 265 129 q 190 131 214 117 q 160 170 167 144 q 168 219 154 196 q 353 421 224 313 q 353 553 351 490 q 297 552 335 553 q 240 550 260 551 q 194 567 214 549 q 172 613 174 586 q 190 659 171 639 q 235 681 208 679 q 295 682 254 681 q 358 683 336 683 q 374 826 364 760 q 399 869 376 853 q 447 881 421 885 q 490 856 474 878 q 501 807 506 833 q 490 696 494 756 q 496 696 494 696 q 507 696 501 696 q 525 690 517 694 q 564 629 565 672 q 522 551 563 585 q 510 542 515 546 q 504 537 506 538 q 501 535 503 536 q 499 532 500 533 q 483 518 492 524 q 549 557 515 539 q 808 644 692 638 q 1046 540 961 654 q 1105 424 1086 485 q 1121 306 1124 363 q 1097 194 1118 249 q 1042 94 1076 139 q 960 16 1008 50 q 856 -36 911 -18 q 737 -53 801 -54 q 608 -28 672 -51 q 572 6 583 -18 q 569 56 560 31 q 603 92 579 81 q 653 94 628 104 q 751 77 703 78 q 838 95 799 76 q 910 142 878 114 q 962 209 943 169 q 987 290 981 249 q 982 377 993 332 q 940 463 971 422 q 815 514 899 519 q 613 444 729 510 q 486 361 549 408 q 517 -33 493 179 q 502 -81 519 -60 q 458 -105 485 -101 q 411 -91 432 -108 q 386 -47 390 -74 q 361 251 369 110 q 279 153 304 194 z "},"":{"ha":1369,"x_min":71,"x_max":1224,"o":"m 206 246 q 176 206 200 219 q 127 198 153 192 q 88 228 101 204 q 81 276 74 251 q 150 419 100 358 q 275 536 200 479 q 283 742 276 638 q 140 729 211 733 q 93 746 114 728 q 71 790 72 764 q 88 838 69 817 q 132 860 106 858 q 296 874 215 865 q 324 1064 307 985 q 351 1106 329 1090 q 400 1115 374 1121 q 442 1088 426 1110 q 451 1039 457 1065 q 429 896 439 978 l 431 897 q 529 867 497 921 q 532 794 550 831 q 508 765 524 779 l 494 754 q 457 732 481 736 q 414 739 433 728 q 407 632 410 686 q 628 750 499 693 q 715 785 678 772 q 810 812 753 799 q 922 818 867 825 q 1028 786 978 811 q 1156 665 1106 746 q 1224 488 1207 583 q 1217 297 1240 390 q 1121 144 1193 204 q 1062 107 1107 133 q 999 72 1017 81 q 632 47 817 -17 q 594 80 606 56 q 591 130 582 104 q 624 167 600 156 q 674 169 649 179 q 940 189 808 124 q 993 218 954 196 q 1038 244 1032 240 q 1092 337 1076 278 q 1096 467 1107 396 q 1049 591 1083 536 q 969 669 1014 646 q 906 688 940 685 q 835 684 872 692 q 762 664 797 676 q 681 631 726 651 q 431 490 528 563 q 404 469 421 482 q 464 18 406 154 q 465 -31 475 -6 q 430 -67 454 -56 q 381 -67 406 -78 q 344 -32 356 -57 q 276 365 288 100 q 206 246 222 310 z "},"":{"ha":1349,"x_min":114,"x_max":1204,"o":"m 951 124 q 857 204 900 179 q 732 217 789 246 q 710 194 713 206 q 718 160 707 181 q 756 112 731 133 q 804 86 782 90 q 907 104 836 79 q 951 124 931 113 m 560 618 q 307 457 396 565 q 247 343 258 394 q 243 210 235 281 q 252 165 246 183 q 263 139 258 146 q 271 131 268 132 q 336 153 300 117 q 404 261 376 192 q 436 336 413 282 q 496 472 460 390 q 560 618 532 554 m 331 915 q 282 926 304 911 q 256 968 260 942 q 267 1017 251 994 q 308 1043 282 1039 q 522 1069 371 1054 q 651 1082 600 1079 q 700 1085 681 1085 q 744 1081 729 1085 q 793 1055 769 1074 q 825 1004 817 1036 q 826 961 831 986 q 819 925 825 946 q 790 838 810 892 q 767 778 781 811 q 964 728 876 772 q 1047 665 1013 703 q 1115 578 1082 628 q 1204 233 1239 393 q 1120 83 1185 147 q 951 -18 1056 19 q 776 -42 846 -56 q 676 10 724 -31 q 601 100 628 50 q 582 222 569 163 q 671 331 599 293 q 925 315 793 396 q 1053 206 985 279 q 1076 261 1069 232 q 1007 506 1100 367 q 906 611 953 588 q 714 647 825 653 q 696 604 704 626 q 597 378 658 518 q 524 211 535 238 q 428 60 486 118 q 372 17 401 33 q 299 -4 342 1 q 215 14 257 -10 q 114 193 131 54 q 119 368 103 286 q 207 538 136 451 q 387 684 275 622 q 622 768 499 746 q 668 882 650 833 q 692 954 685 928 q 660 953 681 954 q 536 940 613 949 q 331 915 389 925 z "},"":{"ha":1360,"x_min":69,"x_max":1222,"o":"m 690 414 q 749 431 719 421 q 899 510 840 463 q 951 586 950 551 q 919 668 954 644 q 797 692 881 693 q 514 638 676 690 q 682 572 624 657 q 690 414 732 501 m 521 407 q 569 463 554 438 q 576 497 583 486 q 549 510 568 508 q 500 494 529 511 q 478 463 481 479 q 500 418 475 443 q 521 407 506 411 m 354 957 q 307 975 326 957 q 287 1020 288 993 q 304 1067 286 1047 q 349 1088 322 1086 q 444 1092 374 1088 q 553 1097 515 1097 q 776 1108 679 1097 q 811 1113 801 1111 q 818 1115 813 1113 q 826 1119 824 1118 q 864 1126 846 1126 q 903 1115 885 1126 q 931 1079 922 1103 q 929 1031 940 1054 q 919 1015 925 1022 q 910 1004 915 1010 q 892 989 903 997 q 846 954 875 975 q 775 904 833 946 q 633 803 708 858 q 796 822 722 821 q 992 776 919 824 q 1082 581 1089 713 q 981 408 1076 486 q 792 308 904 347 q 583 269 682 271 q 563 269 572 269 q 560 268 561 268 q 543 254 551 261 q 639 203 599 242 q 676 154 660 182 q 715 194 693 176 q 1017 239 869 326 q 1060 210 1039 226 q 1105 167 1081 193 q 1139 129 1129 140 q 1177 83 1149 118 q 1207 47 1206 49 q 1222 -1 1224 26 q 1199 -44 1219 -28 q 1151 -59 1178 -61 q 1107 -36 1124 -57 q 1079 -2 1100 -28 q 1051 33 1058 24 q 1026 60 1043 42 q 1000 88 1010 79 q 977 108 990 97 q 951 126 964 119 q 911 142 931 139 q 863 135 892 146 q 799 94 833 125 q 742 1 764 65 l 742 0 q 742 -5 742 -1 q 740 -15 742 -8 q 681 -92 735 -78 q 629 -86 653 -100 q 596 -47 606 -74 q 592 -8 590 -31 q 592 0 592 -6 q 593 8 593 6 q 547 108 581 78 q 375 104 499 156 q 251 31 310 76 q 215 -6 226 6 q 190 -31 201 -19 q 176 -43 181 -39 q 165 -50 171 -47 q 138 -58 151 -57 q 93 -43 113 -58 q 69 1 72 -26 q 75 33 68 18 q 79 42 76 38 q 85 49 82 46 q 163 126 113 88 q 238 199 206 172 q 344 274 256 214 q 414 319 388 301 q 406 326 410 324 q 349 481 338 399 q 424 599 360 551 q 428 603 426 600 q 379 580 422 600 q 321 553 336 560 q 300 543 307 547 q 290 540 294 542 q 281 538 286 539 q 265 536 274 536 q 210 572 228 536 q 206 621 199 596 q 214 638 208 629 q 221 647 217 642 q 229 656 225 651 q 247 671 236 661 q 297 710 265 685 q 331 737 313 722 q 364 762 350 751 q 379 774 378 772 q 639 968 536 894 q 553 967 599 967 q 447 963 515 967 q 354 957 379 958 z "},"":{"ha":1325,"x_min":121,"x_max":1188,"o":"m 1121 688 q 1167 669 1147 688 q 1187 624 1186 651 q 1169 578 1188 597 q 1124 557 1151 558 q 1002 531 1081 556 q 838 467 924 507 q 835 196 854 358 q 810 153 831 169 q 762 140 789 136 q 718 164 735 143 q 704 213 701 185 q 713 401 718 321 q 540 271 603 336 q 482 156 478 204 q 615 69 486 100 q 857 49 729 42 q 903 54 878 50 q 943 61 929 58 q 994 73 957 64 q 1040 85 1031 82 q 1090 76 1067 90 q 1119 36 1113 63 q 1111 -13 1125 10 q 1071 -43 1097 -36 q 1026 -53 1065 -43 q 971 -66 988 -62 q 922 -75 954 -69 q 865 -82 890 -81 q 585 -57 718 -90 q 351 144 365 -4 q 446 360 343 250 q 661 522 525 443 q 682 535 671 528 q 678 540 681 538 q 608 582 654 578 q 425 528 540 586 q 265 414 339 485 q 262 409 264 413 q 257 401 260 406 q 231 374 246 383 q 156 368 194 349 q 121 407 129 381 q 122 460 111 433 q 146 490 129 476 q 161 503 149 493 q 163 506 163 504 q 202 551 174 518 q 248 607 231 585 q 281 651 265 629 q 383 813 342 743 q 178 826 249 815 q 135 852 151 831 q 124 900 119 874 q 149 942 128 926 q 197 954 171 958 q 272 947 235 949 q 373 943 310 944 q 453 942 436 942 q 515 1086 492 1017 q 548 1124 524 1113 q 598 1127 572 1136 q 635 1094 624 1118 q 638 1044 647 1069 q 594 936 619 992 q 988 960 826 929 q 1036 950 1014 965 q 1064 908 1058 935 q 1054 860 1069 882 q 1013 832 1039 838 q 531 807 824 796 q 457 683 499 750 q 618 711 547 717 q 788 611 728 703 q 799 593 793 601 q 1121 688 1000 683 z "},"":{"ha":1378,"x_min":99,"x_max":1239,"o":"m 467 1099 q 497 1138 474 1125 q 547 1143 521 1150 q 586 1113 574 1136 q 592 1063 599 1089 q 556 960 581 1022 q 519 868 528 892 q 444 615 496 797 q 425 550 433 578 q 471 585 451 574 q 564 611 518 608 q 679 564 636 615 q 733 415 721 514 q 741 342 736 393 q 749 267 746 292 q 785 149 760 190 q 868 92 811 107 q 923 96 896 85 q 992 140 950 107 q 1060 226 1031 171 q 1111 394 1090 286 q 1139 436 1117 421 q 1188 446 1161 451 q 1229 418 1214 440 q 1239 369 1244 396 q 1174 165 1215 243 q 1075 40 1132 88 q 1045 17 1058 26 q 1012 -5 1032 7 q 973 -24 992 -17 q 932 -37 954 -32 q 885 -41 910 -42 q 835 -33 860 -40 q 736 13 778 -18 q 672 85 694 43 q 638 164 649 126 q 619 249 626 201 q 613 325 617 275 q 604 397 608 375 q 579 481 596 460 q 571 482 576 482 q 532 468 554 481 q 456 396 513 458 q 336 246 394 328 q 308 204 321 225 q 285 133 296 167 q 243 15 258 53 q 231 -14 236 -3 q 217 -32 225 -24 q 185 -50 203 -46 q 118 -26 143 -60 q 99 67 90 11 q 126 147 106 101 q 190 263 149 199 q 240 401 211 321 q 319 651 274 490 q 397 910 372 836 q 435 1008 406 938 q 467 1099 457 1064 z "},"":{"ha":1463,"x_min":111,"x_max":1324,"o":"m 372 949 q 328 974 346 953 q 315 1021 311 994 q 339 1065 318 1047 q 386 1079 360 1082 q 626 1042 440 1072 q 857 1015 769 1018 q 902 994 883 1014 q 919 947 921 974 q 898 902 918 921 q 851 885 878 883 q 606 914 756 889 q 372 949 424 943 m 194 508 q 144 511 168 499 q 112 549 121 524 q 115 599 103 575 q 153 631 128 622 q 554 738 411 717 q 985 653 835 776 q 1076 450 1083 571 q 997 254 1069 357 q 857 100 940 172 q 703 -10 774 28 q 658 -31 681 -22 q 608 -47 636 -40 q 566 -58 581 -54 q 518 -67 551 -61 q 479 -74 485 -72 q 431 -64 453 -79 q 403 -22 408 -49 q 413 26 397 4 q 454 54 428 49 q 497 62 464 56 q 540 70 529 68 q 572 78 550 72 q 610 90 594 83 q 642 104 625 96 q 772 199 700 136 q 890 329 843 261 q 946 458 942 403 q 901 553 950 513 q 572 608 796 640 q 194 508 440 590 m 963 843 q 945 890 944 863 q 965 935 946 917 q 1012 952 985 953 q 1057 932 1039 951 q 1106 878 1092 894 q 1147 824 1121 861 q 1189 750 1174 786 q 1188 701 1199 725 q 1151 666 1176 676 q 1102 667 1126 656 q 1067 703 1078 678 q 1040 751 1058 726 q 1008 793 1022 776 q 963 843 993 810 m 1094 901 q 1070 944 1074 918 q 1083 992 1067 971 q 1126 1017 1100 1014 q 1175 1004 1153 1021 q 1272 912 1238 956 q 1324 796 1306 868 q 1315 747 1329 769 q 1275 717 1301 724 q 1226 725 1249 711 q 1196 765 1203 739 q 1166 837 1186 811 q 1094 901 1146 863 z "},"":{"ha":481,"x_min":-25,"x_max":340,"o":"m -11 1035 q -24 1083 -28 1057 q 1 1126 -21 1110 q 49 1140 22 1143 q 92 1115 75 1136 q 114 1088 101 1101 q 138 1150 107 1126 q 185 1163 158 1167 q 229 1139 213 1160 q 336 979 300 1050 q 340 930 349 956 q 308 892 332 904 q 258 888 283 879 q 219 921 232 896 q 204 949 213 935 q 182 908 201 924 q 134 893 161 890 q 90 917 107 896 q 42 974 78 932 q -11 1035 8 1011 z "},"":{"ha":440,"x_min":-4,"x_max":303,"o":"m 160 1024 q 140 1028 151 1026 q 118 1013 125 1025 l 119 1013 q 160 1024 138 1008 m 142 1160 q 201 1153 171 1161 q 232 1136 218 1149 q 271 1108 254 1125 q 302 1042 299 1079 q 290 979 306 1006 q 208 902 265 931 q 94 885 151 874 q -4 958 22 900 q 0 1068 -28 1011 q 81 1144 26 1121 q 129 1161 101 1163 q 142 1160 136 1160 z "},"":{"ha":1032,"x_min":349,"x_max":876,"o":"m 372 836 q 349 881 351 854 q 365 928 347 907 q 408 951 382 949 q 456 936 435 953 q 733 664 621 797 q 861 478 821 561 q 876 275 917 360 q 767 175 847 210 q 654 140 732 160 q 605 149 628 135 q 576 189 582 163 q 583 238 569 215 q 624 268 597 261 q 714 294 690 283 q 760 331 750 310 q 743 422 772 358 q 635 579 711 489 q 372 836 528 704 z "},"":{"ha":1244,"x_min":358,"x_max":1103,"o":"m 392 743 q 358 781 367 756 q 363 831 350 807 q 401 864 375 856 q 450 860 426 872 q 513 821 482 843 q 563 781 543 799 q 611 732 583 764 q 650 686 639 700 q 690 633 661 672 q 725 588 719 594 q 757 548 732 578 q 804 490 782 518 q 840 436 826 461 q 831 204 911 310 q 809 178 821 190 q 783 156 797 165 q 758 140 768 147 q 731 127 749 133 q 705 117 713 121 q 677 110 697 114 q 653 106 657 107 q 627 101 649 104 q 604 99 606 99 q 556 110 578 94 q 531 153 535 126 q 542 201 526 179 q 585 226 558 222 q 680 247 653 238 q 728 282 707 256 q 726 372 756 319 q 699 414 715 393 q 660 462 683 435 q 622 507 636 489 q 590 550 613 519 q 558 592 567 581 q 529 628 549 604 q 497 663 510 651 q 467 692 485 675 q 430 721 449 708 q 392 743 411 733 m 735 864 q 725 913 719 886 q 753 953 731 939 q 803 963 776 968 q 843 933 829 957 q 919 838 854 918 q 999 708 976 769 q 997 659 1008 683 q 960 625 985 635 q 910 627 935 615 q 876 664 886 639 q 819 756 861 704 q 735 864 749 842 m 876 914 q 855 958 857 932 q 871 1005 853 985 q 915 1027 889 1025 q 963 1011 942 1029 q 1101 814 1053 932 q 1102 764 1113 789 q 1067 728 1092 739 q 1017 728 1042 718 q 982 764 992 739 q 876 914 944 854 z "}}}
